SplineFontDB: 3.2
FontName: ZameroSans-ExtraBold
FullName: Zamero Sans ExtraBold
FamilyName: Zamero Sans
Weight: ExtraBold
Copyright: Copyright (c) 2024, Zamero Type Foundry
UComments: "2024-1-17: Created with FontForge (http://fontforge.org)+AAoACgAK-Instead of Charlie and the Alphabet and Charlie and the Numbers, how about Charlie and the Fonts? :)"
Version: 001.000
ItalicAngle: 0
UnderlinePosition: -100
UnderlineWidth: 50
Ascent: 800
Descent: 200
InvalidEm: 0
LayerCount: 2
Layer: 0 0 "Back" 1
Layer: 1 0 "Fore" 0
XUID: [1021 474 1118879153 20760]
StyleMap: 0x0000
FSType: 0
OS2Version: 0
OS2_WeightWidthSlopeOnly: 0
OS2_UseTypoMetrics: 1
CreationTime: 1705525712
ModificationTime: 1727736573
PfmFamily: 33
TTFWeight: 800
TTFWidth: 5
LineGap: 90
VLineGap: 90
OS2TypoAscent: 0
OS2TypoAOffset: 1
OS2TypoDescent: 0
OS2TypoDOffset: 1
OS2TypoLinegap: 90
OS2WinAscent: 0
OS2WinAOffset: 1
OS2WinDescent: 0
OS2WinDOffset: 1
HheadAscent: 0
HheadAOffset: 1
HheadDescent: 0
HheadDOffset: 1
OS2Vendor: 'ZAM '
Lookup: 1 0 0 "'ss15' Style Set 15 lookup 20" { "'ss15' Style Set 15 lookup 20-1" ("ss15") } ['ss15' ('DFLT' <'dflt' > 'grek' <'dflt' > 'latn' <'dflt' > ) ]
Lookup: 1 0 0 "'ss14' Style Set 14 lookup 19" { "'ss14' Style Set 14 lookup 19-1" ("ss14") } ['ss14' ('DFLT' <'dflt' > 'grek' <'dflt' > 'latn' <'dflt' > ) ]
Lookup: 1 0 0 "'onum' Oldstyle Figures lookup 18" { "'onum' Oldstyle Figures lookup 18-1" ("osf") } ['onum' ('DFLT' <'dflt' > 'grek' <'dflt' > 'latn' <'dflt' > ) ]
Lookup: 1 0 0 "'tnum' Tabular Numbers lookup 17" { "'tnum' Tabular Numbers lookup 17-1" ("tf") } ['tnum' ('DFLT' <'dflt' > 'grek' <'dflt' > 'latn' <'dflt' > ) ]
Lookup: 1 0 0 "'dnom' Denominators lookup 0" { "'dnom' Denominators lookup 0 subtable" ("dnom") } ['dnom' ('DFLT' <'dflt' > 'latn' <'dflt' > ) ]
Lookup: 1 0 0 "'numr' Numerators lookup 0" { "'numr' Numerators lookup 0 subtable" ("numr") } ['numr' ('DFLT' <'dflt' > 'latn' <'dflt' > ) ]

StartChar: I
Encoding: 73 73 0
Width: 434
Flags: W
HStem: 0 153.75<27.5 127.5 306.5 406.5> 30 123.75<127.5 306.5> 576.25 154.75<27.5 127.5 306.5 406.5> 576.25 124.75<127.5 306.5>
VStem: 27.5 379<0 153.75 576.25 731> 127.5 179<30 701>
LayerCount: 2
Fore
SplineSet
406.5 0 m 1x88
 27.5 0 l 1
 27.5 153.75 l 1
 406.5 153.75 l 1
 406.5 0 l 1x88
406.5 576.25 m 1x28
 27.5 576.25 l 1
 27.5 731 l 1
 406.5 731 l 1
 406.5 576.25 l 1x28
127.5 30 m 1x54
 127.5 701 l 1
 306.5 701 l 1
 306.5 30 l 1
 127.5 30 l 1x54
EndSplineSet
EndChar

StartChar: O
Encoding: 79 79 1
Width: 797
Flags: W
HStem: -9.99805 161.212<299.082 498.695> 577.909 161.212<299.082 498.695>
VStem: 32.5 175.099<252.236 476.887> 590.179 175.099<252.236 476.887>
LayerCount: 2
Fore
SplineSet
207.598632812 364.561523438 m 0
 207.598632812 236.626851084 264.888881244 151.213867188 398.888671875 151.213867188 c 0
 532.888462506 151.213867188 590.178710938 236.626851084 590.178710938 364.561523438 c 0
 590.178710938 492.496195791 532.888462506 577.909179688 398.888671875 577.909179688 c 0
 264.888881244 577.909179688 207.598632812 492.496195791 207.598632812 364.561523438 c 0
32.5 364.561523438 m 0
 32.5 591.206054688 171.134428492 739.12109375 398.888671875 739.12109375 c 0
 626.642915258 739.12109375 765.27734375 591.206054688 765.27734375 364.561523438 c 0
 765.27734375 137.916992188 626.642915258 -9.998046875 398.888671875 -9.998046875 c 0
 171.134428492 -9.998046875 32.5 137.916992188 32.5 364.561523438 c 0
EndSplineSet
EndChar

StartChar: H
Encoding: 72 72 2
Width: 719
Flags: W
HStem: 0 21G<52.5 231.5 487.5 666.5> 280 156<142.5 561.5> 711.008 20G<52.5 231.5 487.5 666.5>
VStem: 52.5 179<0 280 436 731.008> 142.5 89<280 436> 487.5 179<0 280 436 731.008> 487.5 74<280 436>
LayerCount: 2
Fore
SplineSet
561.5 280 m 1xea
 142.5 280 l 1
 142.5 436 l 1
 561.5 436 l 1
 561.5 280 l 1xea
487.5 0 m 1xe4
 487.5 731.0078125 l 1
 666.5 731.0078125 l 1
 666.5 0 l 1
 487.5 0 l 1xe4
52.5 0 m 1xf0
 52.5 731.0078125 l 1
 231.5 731.0078125 l 1
 231.5 0 l 1
 52.5 0 l 1xf0
EndSplineSet
EndChar

StartChar: V
Encoding: 86 86 4
Width: 699
Flags: W
HStem: 0 21G<231.071 477.656> 711.008 20G<2.5 198.596 500.702 696.5>
LayerCount: 2
Fore
SplineSet
237.5 0 m 1
 2.5 731.0078125 l 1
 192.75 731.0078125 l 1
 353.606445312 180.694335938 l 1
 506.25 731.0078125 l 1
 696.5 731.0078125 l 1
 471.5 0 l 1
 237.5 0 l 1
EndSplineSet
EndChar

StartChar: D
Encoding: 68 68 5
Width: 727
Flags: W
HStem: 0 159.102<231.5 419.883> 571.9 159.108<231.5 420.29>
VStem: 52.5 179<159.102 571.9> 515.429 179.849<251.618 477.762>
LayerCount: 2
Fore
SplineSet
52.5 0 m 1
 52.5 731.0078125 l 1
 321.388671875 731.0078125 l 2
 518.109624971 731.0078125 695.27734375 631.206054688 695.27734375 364.561523438 c 0
 695.27734375 97.9169921875 516.958235806 -2.23571161585e-14 321.388671875 0 c 2
 52.5 0 l 1
231.5 571.899908099 m 1
 231.5 159.102142023 l 1
 296.388671875 159.211914062 l 2
 421.788981989 159.343313948 515.428710938 196.136590901 515.428710938 364.561523438 c 0
 515.428710938 533.049082104 421.788980848 571.671309799 296.388671875 571.795898438 c 2
 231.5 571.899908099 l 1
EndSplineSet
EndChar

StartChar: U
Encoding: 85 85 6
Width: 719
Flags: W
HStem: -9.99805 161.212<277.123 438.654> 711.008 20G<52.5 231.5 484.277 663.277>
VStem: 52.5 179<198.431 731.008> 484.277 179<198.431 731.008>
LayerCount: 2
Fore
SplineSet
357.888671875 -9.998046875 m 0
 129.821452335 -9.998046875 52.5 102.375640235 52.5 274.561523438 c 2
 52.5 731.0078125 l 1
 231.5 731.0078125 l 1
 231.5 304.561523438 l 2
 231.5 212.606062087 248.92589506 151.213867188 357.888671875 151.213867188 c 0
 466.85144869 151.213867188 484.27734375 212.606062087 484.27734375 304.561523438 c 2
 484.27734375 731.0078125 l 1
 663.27734375 731.0078125 l 1
 663.27734375 274.561523438 l 2
 663.27734375 102.375640235 585.955891415 -9.998046875 357.888671875 -9.998046875 c 0
EndSplineSet
EndChar

StartChar: L
Encoding: 76 76 7
Width: 568
Flags: W
HStem: 0 154.75<231.5 544> 711.008 20G<52.5 231.5>
VStem: 52.5 179<154.75 731.008>
LayerCount: 2
Fore
SplineSet
231.5 154.75 m 1
 544 154.75 l 1
 544 0 l 1
 52.5 0 l 1
 52.5 731.0078125 l 1
 231.5 731.0078125 l 1
 231.5 154.75 l 1
EndSplineSet
EndChar

StartChar: F
Encoding: 70 70 8
Width: 574
Flags: W
HStem: 0 21G<52.5 231.5> 261 153.75<142.5 486.5> 576.258 154.75<231.5 546.5>
VStem: 52.5 179<0 261 414.75 576.258> 142.5 89<261 414.75>
LayerCount: 2
Fore
SplineSet
486.5 261 m 1xe8
 142.5 261 l 1
 142.5 414.75 l 1
 486.5 414.75 l 1
 486.5 261 l 1xe8
231.5 576.2578125 m 1xf0
 231.5 0 l 1
 52.5 0 l 1
 52.5 731.0078125 l 1
 546.5 731.0078125 l 1
 546.5 576.2578125 l 1
 231.5 576.2578125 l 1xf0
EndSplineSet
EndChar

StartChar: C
Encoding: 67 67 9
Width: 667
Flags: W
HStem: -9.99805 161.212<312.417 545.104> 577.909 161.212<317.328 528.473>
VStem: 33.75 180.599<252.073 472.295>
LayerCount: 2
Fore
SplineSet
33.75 360.561523438 m 0
 33.75 589.626439045 168.539896229 739.12109375 405.888671875 739.12109375 c 0
 571.571008916 739.12109375 639.681640625 672.891601562 639.681640625 672.891601562 c 1
 574.60546875 527.888671875 l 1
 574.60546875 527.888671875 523.502871729 577.909179688 419.888671875 577.909179688 c 0
 275.906672939 577.909179688 214.348632812 490.894809858 214.348632812 360.561523438 c 0
 214.348632812 235.02546515 275.906672939 151.213867188 419.888671875 151.213867188 c 0
 533.398924974 151.213867188 593.518554688 197.345703125 593.518554688 197.345703125 c 1
 642.827148438 44.595703125 l 1
 642.827148438 44.595703125 570.452460077 -9.998046875 405.888671875 -9.998046875 c 0
 168.539896229 -9.998046875 33.75 136.337376545 33.75 360.561523438 c 0
EndSplineSet
Substitution2: "'ss12' Style Set 12 lookup 13-1" C.ss12
EndChar

StartChar: E
Encoding: 69 69 10
Width: 579
Flags: W
HStem: 0 154.75<231.5 551.5> 288.25 153.5<142.5 491.5> 576.258 154.75<231.5 551.5>
VStem: 142.5 89<288.25 441.75>
LayerCount: 2
Fore
SplineSet
491.5 288.25 m 1
 142.5 288.25 l 1
 142.5 441.75 l 1
 491.5 441.75 l 1
 491.5 288.25 l 1
231.5 576.2578125 m 1
 231.5 154.75 l 1
 551.5 154.75 l 1
 551.5 0 l 1
 52.5 0 l 1
 52.5 731.0078125 l 1
 551.5 731.0078125 l 1
 551.5 576.2578125 l 1
 231.5 576.2578125 l 1
EndSplineSet
EndChar

StartChar: N
Encoding: 78 78 11
Width: 719
Flags: W
HStem: 0 21G<52.5 219.5 475.915 666.5> 711.008 20G<52.5 243.467 499.5 666.5>
VStem: 52.5 167<0 427.505> 499.5 167<316.1 731.008>
LayerCount: 2
Fore
SplineSet
52.5 0 m 1
 52.5 731.0078125 l 1
 230.5 731.0078125 l 1
 499.5 316.099609375 l 1
 499.5 731.0078125 l 1
 666.5 731.0078125 l 1
 666.5 0 l 1
 488.5 0 l 1
 219.5 427.504882812 l 1
 219.5 0 l 1
 52.5 0 l 1
EndSplineSet
EndChar

StartChar: M
Encoding: 77 77 12
Width: 830
Flags: W
HStem: 0 21G<52.5 231.5 598.5 777.5> 711.008 20G<52.5 261.337 568.663 777.5>
VStem: 52.5 179<0 410.005> 598.5 179<0 410.005>
LayerCount: 2
Fore
SplineSet
52.5 0 m 1
 52.5 731.0078125 l 1
 251.5 731.0078125 l 1
 415 398.599609375 l 1
 578.5 731.0078125 l 1
 777.5 731.0078125 l 1
 777.5 0 l 1
 598.5 0 l 1
 598.5 410.004882812 l 1
 465 147.5 l 1
 365 147.5 l 1
 231.5 410.004882812 l 1
 231.5 0 l 1
 52.5 0 l 1
EndSplineSet
EndChar

StartChar: G
Encoding: 71 71 13
Width: 789
Flags: W
HStem: -9.99805 161.212<305.278 497.944> 282.25 145.5<406 531.019 690.327 766.5> 282.25 17.3457<531.019 690.327> 577.909 161.212<313.044 534.395>
VStem: 32.5 180.599<245.466 474.672> 541.731 161.751<191.675 282.087>
LayerCount: 2
Fore
SplineSet
766.5 282.25 m 1xdc
 406 282.25 l 1
 406 427.75 l 1
 766.5 427.75 l 1
 766.5 282.25 l 1xdc
32.5 364.561523438 m 0
 32.5 591.206054688 174.918236212 739.12109375 408.888671875 739.12109375 c 0
 578.645868152 739.12109375 648.431640625 675.141601562 648.431640625 675.141601562 c 1
 584.60546875 528.638671875 l 1
 584.60546875 528.638671875 528.878704394 577.909179688 415.888671875 577.909179688 c 0
 273.833064015 577.909179688 213.098632812 492.496195791 213.098632812 364.561523438 c 0
 213.098632812 236.626851084 265.030212009 151.213867188 406.888671875 151.213867188 c 0
 503.191045774 151.213867188 541.731445312 193.012788848 541.731445312 255.75 c 0
 541.731445312 286.415816318 531.018554688 299.595703125 531.018554688 299.595703125 c 1
 690.327148438 299.595703125 l 1xbc
 690.327148438 299.595703125 703.482421875 281.42084784 703.482421875 222 c 0
 703.482421875 93.0859042083 605.775274967 -9.998046875 399.888671875 -9.998046875 c 0
 165.880280043 -9.998046875 32.5 137.916992188 32.5 364.561523438 c 0
EndSplineSet
Substitution2: "'ss12' Style Set 12 lookup 13-1" G.ss12
Substitution2: "'ss08' Style Set 8 lookup 9-1" G.ss08
EndChar

StartChar: A
Encoding: 65 65 14
Width: 719
Flags: W
HStem: 0 21G<2.5 198.913 519.776 716.5> 130 154.75<162 556> 711.008 20G<252.955 456.319>
LayerCount: 2
Fore
SplineSet
556 130 m 1
 162 130 l 1
 162 284.75 l 1
 556 284.75 l 1
 556 130 l 1
449 731.0078125 m 1
 716.5 0 l 1
 526.25 0 l 1
 355.393554688 527.813476562 l 1
 192.75 0 l 1
 2.5 0 l 1
 260 731.0078125 l 1
 449 731.0078125 l 1
EndSplineSet
EndChar

StartChar: P
Encoding: 80 80 15
Width: 665
Flags: W
HStem: 0 21G<52.5 231.5> 224 151.102<166.5 420.29> 575.899 155.108<231.5 420.584>
VStem: 52.5 179<0 224 375.102 575.899> 166.5 65<224 375.102> 458.429 179.849<409.263 540.946>
LayerCount: 2
Fore
SplineSet
166.5 224 m 1xec
 166.5 375.1015625 l 1xec
 329.388671875 375.211914062 l 2
 403.263960736 375.321390845 458.428710938 393.076336748 458.428710938 474.561523438 c 0
 458.428710938 556.868007084 403.263968914 575.692562587 329.388671875 575.795898438 c 2
 231.5 575.899414062 l 1
 231.5 0 l 1
 52.5 0 l 1
 52.5 731.0078125 l 1xf4
 351.388671875 731.0078125 l 2
 502.334707979 731.0078125 638.27734375 661.164588003 638.27734375 474.561523438 c 0
 638.27734375 291.297915868 501.451235081 224 351.388671875 224 c 2
 166.5 224 l 1xec
EndSplineSet
EndChar

StartChar: R
Encoding: 82 82 16
Width: 660
Flags: W
HStem: 0 21G<52.5 231.5 461.545 650> 252 147.602<166.5 390.264> 576.149 154.858<231.5 401.615>
VStem: 52.5 179<0 252 399.602 576.149> 166.5 65<252 399.602> 430.929 179.849<427.634 548.437>
LayerCount: 2
Back
SplineSet
124 383.3515625 m 1xec
 300.888671875 383.461914062 l 2
 383.403259307 383.509014034 462.928710938 404.697396723 462.928710938 501.561523438 c 0
 462.928710938 596.672668425 383.403268044 618.487535435 300.888671875 618.545898438 c 2
 184 618.649414062 l 1
 184 0 l 1
 55 0 l 1
 55 731.0078125 l 1xf4
 308.888671875 731.0078125 l 2
 457.204101562 731.0078125 590.77734375 670.696715458 590.77734375 509.561523438 c 4
 590.77734375 364.195131811 466.688476562 330.276367188 466.688476562 330.276367188 c 1
 466.688476562 330.276367188 540.174524344 311.767586577 573.702148438 195.399414062 c 2
 630 0 l 1
 492 0 l 1
 447 165 l 2
 420.732434887 256.417062766 391.813913829 266 270 266 c 2
 124 266 l 1
 124 383.3515625 l 1xec
EndSplineSet
Fore
SplineSet
166.5 399.6015625 m 1xec
 310.388671875 399.711914062 l 2
 379.397669984 399.7476395 430.928710938 415.418241332 430.928710938 487.061523438 c 0
 430.928710938 559.407986736 379.397669969 575.992938825 310.388671875 576.045898438 c 2
 231.5 576.149414062 l 1
 231.5 0 l 1
 52.5 0 l 1
 52.5 731.0078125 l 1xf4
 326.388671875 731.0078125 l 2
 476.019473946 731.0078125 610.77734375 669.334960938 610.77734375 504.561523438 c 0
 610.77734375 368.825734629 503.188476562 331.276367188 503.188476562 331.276367188 c 1
 503.188476562 331.276367188 559.472108002 314.205855636 595.225585938 190.112060547 c 2
 650 0 l 1
 467 0 l 1
 422 165 l 2
 398.477738324 244.346545256 379.753024428 252 286.5 252 c 2
 166.5 252 l 1
 166.5 399.6015625 l 1xec
EndSplineSet
Substitution2: "'ss01' Style Set 1 lookup 2-1" R.ss01
EndChar

StartChar: T
Encoding: 84 84 17
Width: 614
Flags: W
HStem: 0 21G<217.5 396.5> 576.25 154.75<27.5 217.5 396.5 586.5> 576.25 124.75<217.5 396.5>
VStem: 217.5 179<0 701>
LayerCount: 2
Fore
SplineSet
586.5 576.25 m 1xd0
 27.5 576.25 l 1
 27.5 731 l 1
 586.5 731 l 1
 586.5 576.25 l 1xd0
217.5 0 m 1
 217.5 701 l 1
 396.5 701 l 1xb0
 396.5 0 l 1
 217.5 0 l 1
EndSplineSet
EndChar

StartChar: Q
Encoding: 81 81 18
Width: 866
Flags: W
HStem: -9.99805 161.212<304.381 648.562 695.438 792.758> 577.909 161.212<302.945 500.323>
VStem: 32.5 175.099<254.451 474.672> 600.179 177.099<254.489 475.665>
LayerCount: 2
Fore
SplineSet
32.5 364.561523438 m 0
 32.5 591.206054687 173.026332352 739.12109375 403.888671875 739.12109375 c 0
 635.994249854 739.12109375 777.27734375 589.104132899 777.27734375 384.561523438 c 0
 777.27734375 223.391213134 695.438476562 155.348632812 695.438476562 155.348632812 c 1
 755.131555171 156.53125078 829.388671875 169.751953125 829.388671875 169.751953125 c 1
 844.388671875 19.001953125 l 1
 844.388671875 19.001953125 739.509874184 -9.998046875 469 -9.998046875 c 0
 166.808933867 -9.998046875 32.5 137.916992188 32.5 364.561523438 c 0
207.598632812 364.561523438 m 0
 207.598632812 236.626851084 270.234421051 151.213867188 403.888671875 151.213867188 c 0
 537.542922699 151.213867188 600.178710938 236.626851084 600.178710938 364.561523438 c 0
 600.178710938 492.496195791 537.542922699 577.909179688 403.888671875 577.909179688 c 0
 270.234421051 577.909179688 207.598632812 492.496195791 207.598632812 364.561523438 c 0
EndSplineSet
Substitution2: "'ss10' Style Set 10 lookup 11-1" Q.ss10
Substitution2: "'ss09' Style Set 9 lookup 10-1" Q.ss09
EndChar

StartChar: B
Encoding: 66 66 19
Width: 640
Flags: W
HStem: 0 155.21<232.75 405.98> 293.656 143.695<166.5 390.107> 575.899 155.108<232.75 384.4>
VStem: 166.5 66.25<293.656 437.352> 408.179 181.099<456.058 554.179> 431.179 181.099<177.609 274.111>
LayerCount: 2
Fore
SplineSet
494.162109375 376.4375 m 1xf8
 494.162109375 376.4375 612.27734375 342.813198592 612.27734375 206.446289062 c 0xf4
 612.27734375 56.2257093529 487.697709119 -1.54459778301e-14 348.388671875 0 c 2
 52.5 0 l 1
 52.5 731.0078125 l 1
 327.388671875 731.0078125 l 2
 465.1809962 731.0078125 589.27734375 674.782103147 589.27734375 524.561523438 c 0
 589.27734375 408.693422378 494.162109375 376.4375 494.162109375 376.4375 c 1xf8
232.75 155.210009765 m 1
 324.138671875 155.211914062 l 2
 385.352925212 155.212701052 431.178710938 168.530675706 431.178710938 226.446289062 c 0xf4
 431.178710938 281.48046817 387.556406377 293.461174172 329.138671875 293.545898438 c 2
 166.5 293.65625 l 1
 166.5 437.3515625 l 1
 307.138671875 437.461914062 l 2
 364.983765973 437.58502806 408.178710938 449.752111477 408.178710938 505.811523438 c 0xf8
 408.178710938 562.710850532 364.984019203 575.74634993 307.138671875 575.795898438 c 2
 232.75 575.899414062 l 1
 232.75 155.210009765 l 1
EndSplineSet
EndChar

StartChar: J
Encoding: 74 74 20
Width: 432
Flags: W
HStem: -10 159<22.4628 187.105> 576.258 154.75<50 203>
VStem: 203 179<166.556 576.258>
LayerCount: 2
Fore
SplineSet
128 149 m 0
 180.803955078 149 203 171.569518308 203 224.5 c 2
 203 576.2578125 l 1
 50 576.2578125 l 1
 50 731.0078125 l 1
 382 731.0078125 l 1
 382 201 l 2
 382 74.4647758463 322.5 -10 179 -10 c 0
 79.0980313929 -10 10 10 10 10 c 1
 24 164 l 1
 24 164 67.3388671875 149 128 149 c 0
EndSplineSet
EndChar

StartChar: K
Encoding: 75 75 21
Width: 669
Flags: W
HStem: 0 21G<52.5 231.5 425.838 661.5> 338 33<146 318> 711.008 20G<52.5 231.5 423.864 651.5>
VStem: 52.5 179<0 311 401 731.008> 212.5 19<311 401>
LayerCount: 2
Fore
SplineSet
146 371 m 1xe0
 318 371 l 1
 318 338 l 1
 146 338 l 1
 146 371 l 1xe0
440.5 0 m 1
 212.5 311 l 1
 212.5 401 l 1xe8
 437.5 731.0078125 l 1
 651.5 731.0078125 l 1
 382.5 372 l 1
 661.5 0 l 1
 440.5 0 l 1
52.5 0 m 1xf0
 52.5 731.0078125 l 1
 231.5 731.0078125 l 1
 231.5 0 l 1
 52.5 0 l 1xf0
EndSplineSet
EndChar

StartChar: S
Encoding: 83 83 22
Width: 591
Flags: W
HStem: -10 156.212<133.698 357.905> 581.909 157.212<242.999 447.476>
VStem: 39.627 185.562<477.798 564.213> 379.588 179.432<168.277 247.566>
LayerCount: 2
Fore
SplineSet
283.3828125 276.890625 m 0
 96.6613455983 327.222617823 39.626953125 398.875622593 39.626953125 515.5 c 0
 39.626953125 651.52767744 142.586799951 739.12109375 311.733398438 739.12109375 c 0
 461.103040602 739.12109375 533.745117188 688.891601562 533.745117188 688.891601562 c 1
 491.37109375 539.388671875 l 1
 491.37109375 539.388671875 428.103853067 581.909179688 328.86328125 581.909179688 c 0
 257.34826175 581.909179688 225.188476562 560.644690132 225.188476562 520.5 c 0
 225.188476562 486.116602696 244.599193277 467.65892677 318.247070312 449.081054688 c 0
 509.47009068 400.921190907 559.01953125 331.631037868 559.01953125 214 c 0
 559.01953125 75.9519988739 463.201876024 -10 283.8046875 -10 c 0
 128.658363182 -10 30.31640625 42.2294921875 30.31640625 42.2294921875 c 1
 67.47265625 194.732421875 l 1
 67.47265625 194.732421875 154.737641294 146.211914062 266.696289062 146.211914062 c 0
 343.176653619 146.211914062 379.587890625 167.230521856 379.587890625 208 c 0
 379.587890625 242.938641862 363.786630439 255.209852369 283.3828125 276.890625 c 0
EndSplineSet
EndChar

StartChar: W
Encoding: 87 87 23
Width: 949
Flags: W
HStem: 0 21G<152.287 391.722 551.679 790.878> 711.008 20G<2.5 198.048 753.291 946.5>
LayerCount: 2
Fore
SplineSet
156.5 0 m 1
 2.5 731.0078125 l 1
 194.75 731.0078125 l 1
 282.606445312 198.194335938 l 1
 393.25 671.0078125 l 1
 557.25 671.0078125 l 1
 664.606445312 198.194335938 l 1
 756.75 731.0078125 l 1
 946.5 731.0078125 l 1
 786.5 0 l 1
 556 0 l 1
 475.25 373.771484375 l 1
 387 0 l 1
 156.5 0 l 1
EndSplineSet
EndChar

StartChar: X
Encoding: 88 88 24
Width: 689
Flags: W
HStem: 0 21G<7.5 230.786 458.214 681.5> 711.008 20G<17.5 232.954 456.046 671.5>
VStem: 294 101<311 401>
LayerCount: 2
Fore
SplineSet
219.5 0 m 1
 7.5 0 l 1
 231 372 l 1
 17.5 731.0078125 l 1
 222.5 731.0078125 l 1
 395 401 l 1
 395 311 l 1
 219.5 0 l 1
469.5 0 m 1
 294 311 l 1
 294 401 l 1
 466.5 731.0078125 l 1
 671.5 731.0078125 l 1
 458 372 l 1
 681.5 0 l 1
 469.5 0 l 1
EndSplineSet
EndChar

StartChar: Y
Encoding: 89 89 25
Width: 689
Flags: W
HStem: 0 21G<255 434> 257 109<261 428> 711.008 20G<17.5 221.881 467.119 671.5>
VStem: 255 179<0 366>
LayerCount: 2
Fore
SplineSet
261 257 m 1
 17.5 731.0078125 l 1
 212.75 731.0078125 l 1
 344.5 442.416015625 l 1
 476.25 731.0078125 l 1
 671.5 731.0078125 l 1
 428 257 l 1
 261 257 l 1
255 0 m 1
 255 366 l 1
 434 366 l 1
 434 0 l 1
 255 0 l 1
EndSplineSet
EndChar

StartChar: Z
Encoding: 90 90 26
Width: 594
Flags: W
HStem: 0 154.75<262.5 566.5> 576.25 154.75<37.5 331.5>
LayerCount: 2
Fore
SplineSet
566.5 0 m 1
 27.5 0 l 1
 27.5 96 l 1
 331.5 576.25 l 1
 37.5 576.25 l 1
 37.5 731 l 1
 556.5 731 l 1
 556.5 625 l 1
 262.5 154.75 l 1
 566.5 154.75 l 1
 566.5 0 l 1
EndSplineSet
EndChar

StartChar: ampersand
Encoding: 38 38 27
Width: 754
Flags: W
HStem: -10 153.305<540.558 732.476> -10 141.593<219.11 348.035> 591.762 147.23<344.941 493.88>
VStem: 32.5 163.837<155.213 264.623> 146.551 173.376<452.368 567.215>
LayerCount: 2
Fore
SplineSet
293.767578125 451.321289062 m 1x70
 333.341796875 348.213867188 l 0
 333.341796875 348.213867188 196.336914063 297.165607696 196.336914062 206.5 c 0
 196.336914062 160.302847778 230.039589022 131.592773438 283.900390625 131.592773438 c 0
 363.41884383 131.592773438 470.168536491 208.213455404 522.5 453.705078125 c 1
 680.538085938 407.3046875 l 1
 589.445167497 103.031455534 436.937865251 -10 265.928710938 -10 c 0
 118.157988734 -10 32.5 70.9521484375 32.5 188.185546875 c 0
 32.5 380.830603361 293.767578125 451.321289062 293.767578125 451.321289062 c 1x70
742.451171875 4.5546875 m 1
 742.451171875 4.5546875 710.242003679 -10 623.5 -10 c 0
 481.420265187 -10 384.650728221 65.8800519364 309.5 156 c 0
 201.918444066 284.975566435 146.55078125 421.854893974 146.55078125 522 c 0
 146.55078125 663.905888236 239.453709172 738.9921875 393.522460938 738.9921875 c 0
 484.855235577 738.9921875 540.650390625 703.649414062 540.650390625 703.649414062 c 1
 500.0703125 565.348632812 l 1
 500.0703125 565.348632812 470.477309902 591.76171875 414.028076172 591.76171875 c 0
 350.60061034 591.76171875 319.926757812 564.949230964 319.926757812 496 c 0
 319.926757812 443.876292686 342.879515675 352.844342626 431.9375 248 c 0
 476.896282727 194.995063508 538.617492289 143.3046875 629.01171875 143.3046875 c 0xa8
 694.280128155 143.3046875 731.62890625 152.5546875 731.62890625 152.5546875 c 1
 742.451171875 4.5546875 l 1
EndSplineSet
EndChar

StartChar: i
Encoding: 105 105 28
Width: 269
Flags: W
HStem: 0 21G<50 219> 481.011 20G<50 219> 558.551 196.449<70.2382 198.761>
VStem: 36.8867 195.227<592.111 721.439> 50 169<0 501.011>
LayerCount: 2
Fore
SplineSet
50 0 m 1xe8
 50 501.010742188 l 1
 219 501.010742188 l 1
 219 0 l 1
 50 0 l 1xe8
36.88671875 656.775390625 m 0xf0
 36.88671875 716.281447073 75.363000192 755 134.499023438 755 c 0
 193.636002253 755 232.11328125 716.281447073 232.11328125 656.775390625 c 0
 232.11328125 597.268259108 193.636002253 558.55078125 134.499023438 558.55078125 c 0
 75.363000192 558.55078125 36.88671875 597.268259108 36.88671875 656.775390625 c 0xf0
EndSplineSet
EndChar

StartChar: o
Encoding: 111 111 29
Width: 589
Flags: W
HStem: -9.99805 148.962<233.434 358.637> 361.784 149.149<229.204 359.537>
VStem: 33.5 164.849<174.443 329.518> 391.429 164.849<174.443 329.518>
LayerCount: 2
Fore
SplineSet
198.348632812 253.561523438 m 0
 198.348632812 184.84263586 226.962315992 138.963867188 293.888671875 138.963867188 c 0
 362.216039451 138.963867188 391.428710938 184.84263586 391.428710938 253.561523438 c 0
 391.428710938 318.457619846 362.249381574 361.784179688 294 361.784179688 c 0
 226.995658115 361.784179688 198.348632812 318.457619846 198.348632812 253.561523438 c 0
33.5 253.561523438 m 0
 33.5 409.296356709 132.026066667 510.93359375 293.888671875 510.93359375 c 0
 456.994515539 510.93359375 556.27734375 409.296356709 556.27734375 253.561523438 c 0
 556.27734375 94.0826581127 456.994515539 -9.998046875 293.888671875 -9.998046875 c 0
 132.026066667 -9.998046875 33.5 94.0826581127 33.5 253.561523438 c 0
EndSplineSet
EndChar

StartChar: n
Encoding: 110 110 30
Width: 595
Flags: W
HStem: 0 21G<52.5 221.5 374.277 543.277> 371.534 139.399<256.78 417.227> 481.011 20G<52.5 221.5>
VStem: 52.5 169<0 501.011> 374.277 169<0 353.354>
LayerCount: 2
Fore
SplineSet
221.5 284 m 9xd8
 159 293.561523438 l 17
 180.065872945 444 230.017663318 510.93359375 354.5 510.93359375 c 0
 479.166135504 510.93359375 543.27734375 444.084682028 543.27734375 304.561523438 c 2
 543.27734375 0 l 1
 374.27734375 0 l 1
 374.27734375 287.561523438 l 2
 374.27734375 340.755409201 351.834844721 371.534179688 299 371.534179688 c 0
 244.710796941 371.534179688 221.5 336.490178683 221.5 284 c 9xd8
52.5 0 m 1
 52.5 501.010742188 l 1
 221.5 501.010742188 l 1xb8
 221.5 0 l 1
 52.5 0 l 1
EndSplineSet
EndChar

StartChar: m
Encoding: 109 109 31
Width: 882
Flags: W
HStem: 0 21G<52.5 221.5 356.777 525.777 661.055 830.055> 371.534 139.399<252.377 405.194 551.5 709.471> 481.011 20G<52.5 221.5>
VStem: 52.5 169<0 501.011> 356.777 169<0 344.421> 661.055 169<0 355.65>
CounterMasks: 1 1c
LayerCount: 2
Fore
SplineSet
525.77734375 284 m 9xdc
 453.27734375 293.561523438 l 17
 474.477908976 444 524.749084199 510.93359375 650.02734375 510.93359375 c 0
 768.91509153 510.93359375 830.0546875 447.323924219 830.0546875 314.561523438 c 2
 830.0546875 0 l 1
 661.0546875 0 l 1
 661.0546875 297.561523438 l 2
 661.0546875 344.420741687 640.848169901 371.534179688 593.27734375 371.534179688 c 0
 545.99319915 371.534179688 525.77734375 336.490178682 525.77734375 284 c 9xdc
221.5 284 m 9
 159 293.561523438 l 17
 179.123026968 444 226.8391234 510.93359375 345.75 510.93359375 c 0
 464.637747781 510.93359375 525.77734375 447.323924219 525.77734375 314.561523438 c 2
 525.77734375 0 l 1
 356.77734375 0 l 1
 356.77734375 297.561523438 l 2
 356.77734375 344.420741687 336.570826151 371.534179688 289 371.534179688 c 0
 241.7158554 371.534179688 221.5 336.490178683 221.5 284 c 9
52.5 0 m 1
 52.5 501.010742188 l 1
 221.5 501.010742188 l 1xbc
 221.5 0 l 1
 52.5 0 l 1
EndSplineSet
EndChar

StartChar: p
Encoding: 112 112 32
Width: 602
Flags: W
HStem: -9.99805 142.212<246.305 366.841> 369.534 141.399<257.518 368.872> 481.011 20G<52.5 221.5>
VStem: 52.5 169<-180 501.011> 133.651 87.8486<66.4394 183.562> 158.651 62.8486<283.562 425.747> 404.08 167.349<169.854 335.421>
LayerCount: 2
Fore
SplineSet
52.5 -180 m 1xb2
 52.5 501.010742188 l 1
 221.5 501.010742188 l 1
 221.5 -180 l 1
 52.5 -180 l 1xb2
221.5 213.561523438 m 1
 221.5 173.929425064 246.519753331 132.213867188 305.040039062 132.213867188 c 0
 374.418165407 132.213867188 404.080078125 180.794974622 404.080078125 253.561523438 c 0
 404.080078125 323.104934601 374.45150753 369.534179688 305.151367188 369.534179688 c 0
 246.553095454 369.534179688 221.5 335.115329099 221.5 283.561523438 c 1xd2
 158.651367188 283.561523438 l 1xc6
 158.651367188 425.746590474 232.997264286 510.93359375 347.5 510.93359375 c 0
 489.740588621 510.93359375 571.428710938 409.296356709 571.428710938 253.561523438 c 0
 571.428710938 94.0826581129 485.956780902 -9.998046875 345.540039062 -9.998046875 c 0
 213.825966416 -9.998046875 133.651367188 66.4393843718 133.651367188 183.561523438 c 1xca
 221.5 213.561523438 l 1
EndSplineSet
EndChar

StartChar: j
Encoding: 106 106 33
Width: 269
Flags: W
HStem: -190 143.75<-90.5858 34.1513> 481.011 20G<50 219> 558.551 196.449<70.2382 198.761>
VStem: 36.8867 195.227<592.111 721.439> 50 169<-29.724 501.011>
LayerCount: 2
Fore
SplineSet
50 36.5 m 2xe8
 50 501.010742188 l 1
 219 501.010742188 l 1
 219 28.5 l 2
 219 -103.014218009 159.060344828 -190 14.5 -190 c 0
 -54.9584692978 -190 -103 -174.5 -103 -174.5 c 1
 -89 -35.5 l 1
 -89 -35.5 -61.1839482234 -46.25 -22.25 -46.25 c 0
 28.6178100585 -46.25 50 -21.3253012048 50 36.5 c 2xe8
36.88671875 656.775390625 m 0xf0
 36.88671875 716.281447073 75.363000192 755 134.499023438 755 c 0
 193.636002253 755 232.11328125 716.281447073 232.11328125 656.775390625 c 0
 232.11328125 597.268259108 193.636002253 558.55078125 134.499023438 558.55078125 c 0
 75.363000192 558.55078125 36.88671875 597.268259108 36.88671875 656.775390625 c 0xf0
EndSplineSet
EndChar

StartChar: k
Encoding: 107 107 34
Width: 555
Flags: W
HStem: 0 21G<52.5 221.5 326.4 547.5> 208.5 95<124 210> 481.011 20G<323.017 537.5> 731.002 20G<52.5 221.5>
VStem: 52.5 169<0 208.5 303.5 751.002> 124 97.5<208.5 303.5>
LayerCount: 2
Fore
SplineSet
210 303.5 m 1xf4
 210 208.5 l 1
 124 208.5 l 1
 124 303.5 l 1
 210 303.5 l 1xf4
338.75 0 m 1
 210 208.5 l 1
 210 303.5 l 1
 335.75 501.010742188 l 1
 537.5 501.010742188 l 1
 355 273.75 l 1
 547.5 0 l 1
 338.75 0 l 1
52.5 0 m 1xf8
 52.5 751.001953125 l 1
 221.5 751.001953125 l 1
 221.5 0 l 1
 52.5 0 l 1xf8
EndSplineSet
EndChar

StartChar: l
Encoding: 108 108 35
Width: 371
Flags: W
HStem: -10.0088 142.75<230.211 330.83> 731.002 20G<50 219>
VStem: 50 169<141.836 751.002>
LayerCount: 2
Fore
SplineSet
219 196.991210938 m 2
 219 152.093620576 235.573046875 132.741210938 275 132.741210938 c 0
 306.934586745 132.741210938 329.75 142.491210938 329.75 142.491210938 c 1
 343.75 4.7412109375 l 1
 343.75 4.7412109375 300.921486459 -10.0087890625 239 -10.0087890625 c 0
 105.396551724 -10.0087890625 50 60.0575616484 50 165.991210938 c 2
 50 751.001953125 l 1
 219 751.001953125 l 1
 219 196.991210938 l 2
EndSplineSet
EndChar

StartChar: h
Encoding: 104 104 36
Width: 595
Flags: W
HStem: 0 21G<52.5 221.5 374.277 543.277> 371.534 139.399<256.78 417.227> 731.002 20G<52.5 221.5>
VStem: 52.5 169<0 751.002> 374.277 169<0 353.354>
LayerCount: 2
Fore
SplineSet
52.5 0 m 1
 52.5 751.001953125 l 1
 221.5 751.001953125 l 1
 221.5 0 l 1
 52.5 0 l 1
221.5 284 m 9
 159 293.561523438 l 17
 180.065872945 444 230.017663318 510.93359375 354.5 510.93359375 c 0
 479.166135504 510.93359375 543.27734375 444.084682028 543.27734375 304.561523438 c 2
 543.27734375 0 l 1
 374.27734375 0 l 1
 374.27734375 287.561523438 l 2
 374.27734375 340.755409201 351.834844721 371.534179688 299 371.534179688 c 0
 244.710796941 371.534179688 221.5 336.490178683 221.5 284 c 9
EndSplineSet
EndChar

StartChar: q
Encoding: 113 113 37
Width: 602
Flags: W
HStem: -9.99805 142.212<239.713 356.351> 369.534 141.399<237.706 347.738> 481.011 20G<385.5 554.5>
VStem: 35.5713 167.349<168.818 335.421> 385.5 169<-180 501.011> 385.5 62.8486<66.4394 183.562 283.562 425.747>
LayerCount: 2
Fore
SplineSet
554.5 -180 m 1xb8
 385.5 -180 l 1
 385.5 501.010742188 l 1
 554.5 501.010742188 l 1
 554.5 -180 l 1xb8
385.5 205.561523438 m 1
 448.348632812 183.561523438 l 1xd4
 448.348632812 66.4393843718 377.633552882 -9.998046875 261.459960938 -9.998046875 c 0
 121.043219098 -9.998046875 35.5712890625 94.0826581127 35.5712890625 253.561523438 c 0
 35.5712890625 409.296356709 117.259411379 510.93359375 259.5 510.93359375 c 0
 370.971134849 510.93359375 443.348632812 425.746590474 443.348632812 283.561523438 c 1
 385.5 275.561523438 l 1
 385.5 331.912557233 359.698169162 369.534179688 299.348632812 369.534179688 c 0xd8
 231.799757086 369.534179688 202.919921875 323.1049346 202.919921875 253.561523438 c 0
 202.919921875 180.794974622 231.833099209 132.213867188 299.459960938 132.213867188 c 0
 359.731511285 132.213867188 385.5 169.826977884 385.5 205.561523438 c 1
EndSplineSet
EndChar

StartChar: g
Encoding: 103 103 38
Width: 602
Flags: W
HStem: -190 134<153.712 354.548> 20.002 132.712<234.079 353.006> 372.784 138.149<233.996 347.555> 481.011 20G<385.5 554.5>
VStem: 35.5713 164.849<184.622 340.361> 385.5 169<-27.8901 39 223.562 501.011> 385.5 62.8486<100.388 223.562 303.562 433.24>
LayerCount: 2
Fore
SplineSet
385.5 39 m 2xdc
 385.5 501.010742188 l 1
 554.5 501.010742188 l 1
 554.5 31 l 2
 554.5 -102.018957346 478.439655174 -190 295 -190 c 0
 159.334308904 -190 65.5 -143.5 65.5 -143.5 c 1
 102 -12 l 1
 102 -12 174.092538687 -56 275 -56 c 0
 352.797827148 -56 385.5 -27.3855421687 385.5 39 c 2xdc
385.5 235.561523438 m 1
 448.348632812 223.561523438 l 1xea
 448.348632812 100.388423477 375.649070733 20.001953125 261.459960938 20.001953125 c 0
 123.659019524 20.001953125 35.5712890625 115.39477208 35.5712890625 261.561523438 c 0
 35.5712890625 412.455587994 117.935435302 510.93359375 254.5 510.93359375 c 0
 366.9046237 510.93359375 443.348632812 433.239771422 443.348632812 303.561523438 c 1
 385.5 285.561523438 l 1
 385.5 337.864895995 356.503270645 372.784179688 294.848632812 372.784179688 c 0xec
 228.700768778 372.784179688 200.419921875 327.956320534 200.419921875 260.811523438 c 0
 200.419921875 195.990383718 229.932087517 152.713867188 298.959960938 152.713867188 c 0
 359.581764207 152.713867188 385.5 195.198633911 385.5 235.561523438 c 1
EndSplineSet
Substitution2: "'ss14' Style Set 14 lookup 19-1" g.ss14
EndChar

StartChar: f
Encoding: 102 102 39
Width: 398
Flags: W
HStem: 0 21G<90 259> 364.25 136.761<11.5 384.5> 626.011 135<272.383 409.638>
VStem: 90 169<0 612.304>
LayerCount: 2
Fore
SplineSet
11.5 501.010742188 m 1
 384.5 501.010742188 l 1
 384.5 364.25 l 1
 11.5 364.25 l 1
 11.5 501.010742188 l 1
259 552.010742188 m 2
 259 0 l 1
 90 0 l 1
 90 565.010742188 l 2
 90 682.98213044 149.206723906 761.010742188 292 761.010742188 c 0
 368.84765625 761.010742188 422 745.010742188 422 745.010742188 c 1
 408 615.010742188 l 1
 408 615.010742188 374.662109375 626.010742188 328 626.010742188 c 0
 279.420634501 626.010742188 259 603.721251606 259 552.010742188 c 2
EndSplineSet
EndChar

StartChar: c
Encoding: 99 99 40
Width: 492
Flags: W
HStem: -9.99805 142.462<247.185 409.66> 366.284 144.649<242.916 387.168>
VStem: 32.5 172.599<174.234 329.164>
LayerCount: 2
Fore
SplineSet
32.5 253.561523438 m 0
 32.5 409.296356709 121.378715572 510.93359375 288.638671875 510.93359375 c 0
 415.166926694 510.93359375 467.181640625 449.704101562 467.181640625 449.704101562 c 1
 410.60546875 324.701171875 l 1
 410.60546875 324.701171875 378.944631073 366.284179688 314.75 366.284179688 c 0
 237.938576271 366.284179688 205.098632812 321.15606067 205.098632812 253.561523438 c 0
 205.098632812 180.944888 238.504222457 132.463867188 316.638671875 132.463867188 c 0
 388.635903396 132.463867188 426.768554688 164.595703125 426.768554688 164.595703125 c 1
 459.577148438 28.595703125 l 1
 459.577148438 28.595703125 399.680581031 -9.998046875 295.638671875 -9.998046875 c 0
 124.028429626 -9.998046875 32.5 94.0826581131 32.5 253.561523438 c 0
EndSplineSet
Substitution2: "'ss12' Style Set 12 lookup 13-1" c.ss12
EndChar

StartChar: t
Encoding: 116 116 41
Width: 412
Flags: W
HStem: -10 136.75<267.012 370.277> 364 137.011<11.5 384.5>
VStem: 90 169<134.598 650.511>
LayerCount: 2
Fore
SplineSet
11.5 501.010742188 m 1
 384.5 501.010742188 l 1
 384.5 364 l 1
 11.5 364 l 1
 11.5 501.010742188 l 1
259 183.5 m 2
 259 143.843629602 275.573268581 126.75 315 126.75 c 0
 344.656929979 126.75 368.75 137.75 368.75 137.75 c 1
 383.25 6 l 1
 383.25 6 341.852501502 -10 282 -10 c 0
 125.740938611 -10 90 61.0617714128 90 168.5 c 2
 90 650.510742188 l 1
 259 671.510742188 l 1
 259 183.5 l 2
EndSplineSet
Substitution2: "'ss11' Style Set 11 lookup 12-1" t.ss11
EndChar

StartChar: r
Encoding: 114 114 42
Width: 420
Flags: W
HStem: 0 21G<52.5 221.5> 361.284 149.649<247.838 397.745> 481.011 20G<52.5 221.5>
VStem: 52.5 169<0 501.011>
LayerCount: 2
Fore
SplineSet
52.5 0 m 1xb0
 52.5 501.010742188 l 1
 221.5 501.010742188 l 1
 221.5 0 l 1
 52.5 0 l 1xb0
337 510.93359375 m 0xd0
 401.601246111 510.93359375 420 484.93359375 420 484.93359375 c 1
 394 339.93359375 l 1
 394 339.93359375 360.953483858 361.284179688 310.5 361.284179688 c 0
 254.574499253 361.284179688 221.5 335.122300236 221.5 284 c 1
 159 293.561523438 l 1
 178.086160498 444 223.343619837 510.93359375 337 510.93359375 c 0xd0
EndSplineSet
EndChar

StartChar: e
Encoding: 101 101 43
Width: 551
Flags: W
HStem: -9.99805 141.712<242.974 456.61> 202.5 99.75<137.75 359.75> 377.034 133.899<224.742 336.536>
VStem: 137.75 58.8486<202.5 302.25>
LayerCount: 2
Fore
SplineSet
32.5 253.561523438 m 0
 32.5 409.296356709 129.134162808 510.93359375 287.888671875 510.93359375 c 0
 471.4350119 510.93359375 528.965820312 373.297694709 528.965820312 266.7109375 c 0
 528.965820312 227.069751854 524.5 202.5 524.5 202.5 c 1
 137.75 202.5 l 1
 137.75 302.25 l 1
 359.75 302.25 l 1
 359.75 302.25 359.22817459 310.514474062 355.910089233 321.499999775 c 0
 350.09969761 341.617890456 333.284886023 377.034179688 280 377.034179688 c 0
 221.576854727 377.034179688 196.598632812 331.305540947 196.598632812 262.811523438 c 0
 196.598632812 177.144547098 232.021573015 131.713867188 322.25 131.713867188 c 0
 409.530830889 131.713867188 459.268554688 159.845703125 459.268554688 159.845703125 c 1
 486.827148438 17.345703125 l 1
 486.827148438 17.345703125 427.295941065 -9.998046875 323.888671875 -9.998046875 c 0
 122.582793545 -9.998046875 32.5 94.0826581131 32.5 253.561523438 c 0
EndSplineSet
Substitution2: "'ss03' Style Set 3 lookup 4-1" e.ss03
EndChar

StartChar: d
Encoding: 100 100 44
Width: 602
Flags: W
HStem: -9.99805 141.399<235.845 350.74> 0 21G<385.5 554.5> 368.722 142.212<237.896 361.315> 731.002 20G<385.5 554.5>
VStem: 35.5713 167.349<165.515 332.117> 385.5 169<217.374 751.002> 385.5 70.3486<317.374 434.496> 385.5 62.8486<75.1885 217.374>
LayerCount: 2
Fore
SplineSet
554.5 0 m 1x7c
 385.5 0 l 1x79
 385.5 751.001953125 l 1
 554.5 751.001953125 l 1
 554.5 0 l 1x7c
385.5 295.374023438 m 1xbc
 385.5 331.108774083 360.106221102 368.721679688 300.709960938 368.721679688 c 0
 232.207851704 368.721679688 202.919921875 320.140846474 202.919921875 247.374023438 c 0
 202.919921875 177.830810398 232.173737213 131.401367188 300.598632812 131.401367188 c 0
 360.072123745 131.401367188 385.5 169.023190729 385.5 225.374023438 c 1xbc
 448.348632812 217.374023438 l 1xb9
 448.348632812 75.1884765625 374.986784461 -9.998046875 262 -9.998046875 c 0
 118.171757618 -9.998046875 35.5712890625 91.6396484376 35.5712890625 247.374023438 c 0
 35.5712890625 406.852539062 121.988917909 510.93359375 263.959960938 510.93359375 c 0
 383.241516683 510.93359375 455.848632812 434.49609375 455.848632812 317.374023438 c 1xba
 385.5 295.374023438 l 1xbc
EndSplineSet
Substitution2: "'ss05' Style Set 5 lookup 6-1" d.ss05
EndChar

StartChar: b
Encoding: 98 98 45
Width: 602
Flags: W
HStem: -9.99805 141.399<250.179 370.224> 0 21G<52.5 221.5> 368.722 142.212<251.388 369.104> 731.002 20G<52.5 221.5>
VStem: 52.5 169<197.374 751.002> 158.651 62.8486<55.1885 197.374 297.374 424.496> 404.08 167.349<165.515 332.117>
LayerCount: 2
Fore
SplineSet
52.5 0 m 1x7a
 52.5 751.001953125 l 1
 221.5 751.001953125 l 1x7a
 221.5 0 l 1x76
 52.5 0 l 1x7a
221.5 295.374023438 m 1
 153.651367188 297.374023438 l 1
 153.651367188 424.49609375 225.312529663 510.93359375 343.040039062 510.93359375 c 0
 485.011082091 510.93359375 571.428710938 406.852539062 571.428710938 247.374023438 c 0
 571.428710938 91.6396484376 490.652226369 -9.998046875 350 -9.998046875 c 0
 233.981618721 -9.998046875 158.651367188 55.1884765624 158.651367188 197.374023438 c 1xb6
 221.5 225.374023438 l 1
 221.5 169.023190729 246.927876255 131.401367188 306.401367188 131.401367188 c 0xba
 374.826262787 131.401367188 404.080078125 177.830810398 404.080078125 247.374023438 c 0
 404.080078125 320.140846474 374.792148297 368.721679688 306.290039062 368.721679688 c 0
 246.893778898 368.721679688 221.5 331.108774083 221.5 295.374023438 c 1
EndSplineSet
EndChar

StartChar: a
Encoding: 97 97 46
Width: 566
Flags: W
HStem: -9.99805 131.998<410.618 550.387> -9.99805 121.712<141.873 294.068> 213.784 96.1494<207.601 337.777> 374.011 137<139.05 299.998>
VStem: 28.75 166.599<119.87 197.01> 321.929 170<130.572 213.784 289.011 350.924> 321.929 46.0986<52.4203 148.062> 321.929 15.8486<213.784 309.934>
LayerCount: 2
Back
SplineSet
347.928710938 177.561523438 m 1x7c
 397.77734375 180.561523438 l 1x7a
 397.77734375 65.2546726396 333.443566636 -9.998046875 197.888671875 -9.998046875 c 0
 93.5258452633 -9.998046875 30 50 30 141 c 0
 30 286.71747631 169.159368499 309.798279039 363.928710938 309.93359375 c 1
 363.77734375 224.284179688 l 1x79
 204.9215174 224.170106541 154.848632812 210.544945242 154.848632812 148.561523438 c 0
 154.848632812 111.324445486 179.419144912 86.4638671875 236.888671875 86.4638671875 c 0
 303.711369303 86.4638671875 347.928710938 123.027306191 347.928710938 177.561523438 c 1x7c
347.928710938 299.010742188 m 2xbc
 347.928710938 377.97408765 315.670027449 412.010742188 238.928710938 412.010742188 c 0
 160.769677734 412.010742188 104.928710938 368.010742188 104.928710938 368.010742188 c 5
 69.9287109375 467.010742188 l 5
 69.9287109375 467.010742188 149.657226562 511.010742188 264.928710938 511.010742188 c 0
 407.721987032 511.010742188 466.928710938 427.01055301 466.928710938 300.010742188 c 2
 466.928710938 118 l 2
 466.928710938 93.251950046 475.36431245 84 497.928710938 84 c 0
 515.694039812 84 526.928710938 91 526.928710938 91 c 1
 535.928710938 13 l 1
 535.928710938 13 510.8653569 -9.998046875 457.928710938 -9.998046875 c 0
 384.082557091 -9.998046875 347.928710938 33 347.928710938 125 c 2
 347.928710938 299.010742188 l 2xbc
EndSplineSet
Fore
SplineSet
321.928710938 177.561523438 m 1x7c
 368.02734375 148.061523438 l 1x7a
 368.02734375 52.4202955461 311.659305608 -9.998046875 192.888671875 -9.998046875 c 0
 90.8569173686 -9.998046875 28.75 50 28.75 141 c 0
 28.75 286.71747631 159.985465455 309.798279039 337.928710938 309.93359375 c 1
 337.77734375 213.784179688 l 1x79
 234.41465424 213.704378504 195.348632812 204.172740001 195.348632812 160.811523438 c 0
 195.348632812 131.369941205 212.806158752 111.713867188 253.638671875 111.713867188 c 0
 294.734880559 111.713867188 321.928710938 138.142832125 321.928710938 177.561523438 c 1x7c
321.928710938 289.010742188 m 2xbc
 321.928710938 348.407948951 295.958990974 374.010742188 234.178710938 374.010742188 c 0
 164.477185058 374.010742188 114.678710938 338.760742188 114.678710938 338.760742188 c 1
 68.6787109375 467.010742188 l 1
 68.6787109375 467.010742188 147.282850059 511.010742188 260.928710938 511.010742188 c 0
 424.222011817 511.010742188 491.928710938 427.01055301 491.928710938 300.010742188 c 2
 491.928710938 153.5 l 2xbc
 491.928710938 130.571659602 500.228254361 122 522.428710938 122 c 0
 538.968844718 122 549.428710938 128.25 549.428710938 128.25 c 1
 558.428710938 13.25 l 1
 558.428710938 13.25 525.332230607 -9.998046875 455.428710938 -9.998046875 c 0
 365.806333316 -9.998046875 321.928710938 33 321.928710938 125 c 2xba
 321.928710938 289.010742188 l 2xbc
EndSplineSet
Substitution2: "'ss15' Style Set 15 lookup 20-1" a.ss15
Substitution2: "'ss02' Style Set 2 lookup 3-1" a.ss02
EndChar

StartChar: plus
Encoding: 43 43 47
Width: 450
Flags: W
HStem: 291.25 133.5<30 420>
VStem: 158.25 133.5<163 553>
LayerCount: 2
Fore
SplineSet
291.75 553 m 1
 291.75 163 l 1
 158.25 163 l 1
 158.25 553 l 1
 291.75 553 l 1
420 291.25 m 1
 30 291.25 l 1
 30 424.75 l 1
 420 424.75 l 1
 420 291.25 l 1
EndSplineSet
EndChar

StartChar: s
Encoding: 115 115 48
Width: 476
Flags: W
HStem: -9.99805 129.979<92.6348 273.212> 380.404 130.529<210.665 385.302>
LayerCount: 2
Fore
SplineSet
208.096679688 185.818359375 m 0
 76.7922084613 217.91701533 40.4541015625 269.579267832 40.4541015625 352.5 c 0
 40.4541015625 451.193301768 123.438303389 510.93359375 259.767578125 510.93359375 c 0
 377.384487525 510.93359375 434.584960938 472.225585938 434.584960938 472.225585938 c 1
 399.544921875 352.444335938 l 1
 399.544921875 352.444335938 346.774789817 380.404296875 268.993164062 380.404296875 c 0
 227.618752247 380.404296875 209.01171875 369.347991288 209.01171875 351.518554688 c 0
 209.01171875 334.366777039 220.552990201 323.860026556 259.537109375 314.086914062 c 0
 406.597354738 277.117867896 444.189453125 231.53529728 444.189453125 145.90234375 c 0
 444.189453125 49.8227150905 368.871231528 -9.998046875 227.856445312 -9.998046875 c 0
 106.453616971 -9.998046875 29.5 27.5625 29.5 27.5625 c 1
 60.314453125 155.361328125 l 1
 60.314453125 155.361328125 126.993457987 119.981445312 208.743164062 119.981445312 c 0
 254.490632798 119.981445312 276.270507812 130.137475144 276.270507812 149.836914062 c 0
 276.270507812 166.32966749 263.711245984 172.290183324 208.096679688 185.818359375 c 0
EndSplineSet
EndChar

StartChar: y
Encoding: 121 121 49
Width: 539
Flags: W
HStem: 481.011 20G<2.5 189.608 350.294 536.5>
LayerCount: 2
Fore
SplineSet
184.75 43.5 m 1
 2.5 501.010742188 l 1
 182.75 501.010742188 l 1
 275.606445312 230.194335938 l 1
 356.25 501.010742188 l 1
 536.5 501.010742188 l 1
 281 -179.994140625 l 1
 89.75 -179.994140625 l 1
 184.75 43.5 l 1
EndSplineSet
Substitution2: "'ss04' Style Set 4 lookup 5-1" y.ss04
EndChar

StartChar: u
Encoding: 117 117 50
Width: 595
Flags: W
HStem: -9.92285 139.399<178.551 338.998> 0 21G<374.277 543.277> 481.011 20G<52.5 221.5 374.277 543.277>
VStem: 52.5 169<147.657 501.011> 374.277 169<207.449 501.011>
LayerCount: 2
Fore
SplineSet
374.27734375 217.010742188 m 9xb8
 436.77734375 207.44921875 l 17
 415.711470805 57.0107421877 365.759680432 -9.9228515625 241.27734375 -9.9228515625 c 0
 116.611208246 -9.9228515625 52.5 56.9260601597 52.5 196.44921875 c 2
 52.5 501.010742188 l 1
 221.5 501.010742188 l 1
 221.5 213.44921875 l 2
 221.5 160.255332987 243.942499029 129.4765625 296.77734375 129.4765625 c 0
 351.066546809 129.4765625 374.27734375 164.520563505 374.27734375 217.010742188 c 9xb8
543.27734375 501.010742188 m 1
 543.27734375 0 l 1
 374.27734375 0 l 1x78
 374.27734375 501.010742188 l 1
 543.27734375 501.010742188 l 1
EndSplineSet
Substitution2: "'ss05' Style Set 5 lookup 6-1" u.ss05
EndChar

StartChar: backslash
Encoding: 92 92 51
Width: 434
Flags: W
LayerCount: 2
Fore
SplineSet
281.25 -171.469726562 m 1
 6.25 761.403320312 l 1
 152.75 761.403320312 l 1
 427.75 -171.469726562 l 1
 281.25 -171.469726562 l 1
EndSplineSet
EndChar

StartChar: equal
Encoding: 61 61 52
Width: 450
Flags: W
HStem: 211.25 123.5<30 420> 381.25 123.5<30 420>
LayerCount: 2
Back
SplineSet
420 285 m 5xea
 30 285 l 5
 30 431 l 5
 420 431 l 5
 420 285 l 5xea
EndSplineSet
Fore
SplineSet
420 211.25 m 1
 30 211.25 l 1
 30 334.75 l 1
 420 334.75 l 1
 420 211.25 l 1
420 381.25 m 1
 30 381.25 l 1
 30 504.75 l 1
 420 504.75 l 1
 420 381.25 l 1
EndSplineSet
EndChar

StartChar: v
Encoding: 118 118 53
Width: 539
Flags: W
HStem: 0 21G<160.913 387.687> 481.011 20G<2.5 188.051 351.429 536.5>
LayerCount: 2
Fore
SplineSet
167.5 0 m 1
 2.5 501.010742188 l 1
 182.75 501.010742188 l 1
 273.606445312 158.194335938 l 1
 356.25 501.010742188 l 1
 536.5 501.010742188 l 1
 381.5 0 l 1
 167.5 0 l 1
EndSplineSet
EndChar

StartChar: w
Encoding: 119 119 54
Width: 735
Flags: W
HStem: 0 21G<106.189 319.9 414.184 627.851> 481.011 20G<2.5 177.37 557.63 732.5>
LayerCount: 2
Fore
SplineSet
110.5 0 m 1
 2.5 501.010742188 l 1
 173.75 501.010742188 l 1
 229.106445312 195.194335938 l 1
 286.5 451.010742188 l 1
 448.5 451.010742188 l 1
 505.893554688 195.194335938 l 1
 561.25 501.010742188 l 1
 732.5 501.010742188 l 1
 623.5 0 l 1
 418.5 0 l 1
 367.5 236.341796875 l 1
 315.5 0 l 1
 110.5 0 l 1
EndSplineSet
EndChar

StartChar: x
Encoding: 120 120 55
Width: 528
Flags: W
HStem: 0 21G<2.5 206.827 321.173 525.5> 481.011 20G<10.5 208.688 319.312 517.5>
VStem: 233.5 61<194 289>
LayerCount: 2
Fore
SplineSet
196.75 0 m 1
 2.5 0 l 1
 152.5 257.5 l 1
 10.5 501.010742188 l 1
 199.75 501.010742188 l 1
 294.5 289 l 1
 294.5 194 l 1
 196.75 0 l 1
331.25 0 m 1
 233.5 194 l 1
 233.5 289 l 1
 328.25 501.010742188 l 1
 517.5 501.010742188 l 1
 375.5 257.5 l 1
 525.5 0 l 1
 331.25 0 l 1
EndSplineSet
EndChar

StartChar: z
Encoding: 122 122 56
Width: 478
Flags: W
HStem: 0 145<261.75 450.5> 356.011 145<37.5 218.75>
LayerCount: 2
Fore
SplineSet
450.5 0 m 1
 27.5 0 l 1
 27.5 96 l 1
 218.75 356.010742188 l 1
 37.5 356.010742188 l 1
 37.5 501.010742188 l 1
 440.5 501.010742188 l 1
 440.5 405.010742188 l 1
 261.75 145 l 1
 450.5 145 l 1
 450.5 0 l 1
EndSplineSet
EndChar

StartChar: period
Encoding: 46 46 57
Width: 245
Flags: W
HStem: -10 196.449<58.3516 186.874>
VStem: 25 195.227<23.5608 152.888>
LayerCount: 2
Fore
SplineSet
25 88.224609375 m 0
 25 147.730230558 63.4767561959 186.44921875 122.612304688 186.44921875 c 0
 181.748818583 186.44921875 220.2265625 147.730230558 220.2265625 88.224609375 c 0
 220.2265625 28.7179592526 181.748818583 -10 122.612304688 -10 c 0
 63.4767561958 -10 25 28.7179592526 25 88.224609375 c 0
EndSplineSet
EndChar

StartChar: two
Encoding: 50 50 58
Width: 608
Flags: W
HStem: 0 154<234.813 581.049> 580.599 158.394<173.956 372.229>
VStem: 397.176 176.086<445.025 554.007>
LayerCount: 2
Fore
SplineSet
397.17578125 497.263427735 m 0
 397.17578125 551.311826179 368.235608081 580.598632812 283.328125 580.598632812 c 0
 184.387616859 580.598632812 113.538085938 526.754882812 113.538085938 526.754882812 c 1
 60.322265625 675.796875 l 1
 60.322265625 675.796875 152.513081712 738.9921875 286.69140625 738.9921875 c 0
 465.38670046 738.9921875 573.26171875 662.295898438 573.26171875 510.93359375 c 0
 573.26171875 370.399666389 509.505113074 313.751656194 349.374023438 238.0234375 c 0
 238.91225917 185.575150054 235.28112678 156.75 234.813476562 154 c 1
 581.048828125 154 l 1
 581.048828125 0 l 1
 48 0 l 1
 48 54 l 2
 48 214.530780377 145.336479509 303.42681123 314.821289062 397.876953125 c 0
 379.335609168 433.756464822 397.17578125 466.031122177 397.17578125 497.263427735 c 0
EndSplineSet
Substitution2: "'onum' Oldstyle Figures lookup 18-1" two.osf
Substitution2: "'tnum' Tabular Numbers lookup 17-1" two.tf
Substitution2: "'numr' Numerators lookup 0 subtable" two.numr
Substitution2: "'dnom' Denominators lookup 0 subtable" two.dnom
Substitution2: "'sups' Superscript lookup 0 subtable" two.superior
Substitution2: "'sinf' Scientific Inferiors lookup 0 subtable" two.inferior
Substitution2: "'sups' Superscript lookup 0 subtable" two.superior
EndChar

StartChar: three
Encoding: 51 51 59
Width: 579
Flags: W
HStem: -9.99805 154.188<123.422 331.261> 303.5 138.481<164.139 325.422> 580.349 158.644<123.757 322.937>
VStem: 345.484 186.086<463.417 558.439> 363.827 183.584<174.979 273.014>
LayerCount: 2
Fore
SplineSet
231.388671875 441.981445312 m 2xe8
 317.438547583 441.981445313 345.484375 465.254741195 345.484375 511.55859375 c 0
 345.484375 550.662902538 321.167128919 580.348632812 242.13671875 580.348632812 c 0
 142.962590611 580.348632812 82.5966796875 538.754882812 82.5966796875 538.754882812 c 1
 38.380859375 687.296875 l 1
 38.380859375 687.296875 116.531994255 738.9921875 252 738.9921875 c 0
 425.089862399 738.9921875 531.5703125 667.857421875 531.5703125 532.868164062 c 0xf0
 531.5703125 412 421.413085938 375.697265625 421.413085938 375.697265625 c 1
 421.413085938 375.697265625 547.411132812 341 547.411132812 205.670898438 c 0
 547.411132812 51.6816406251 428.519412268 -9.998046875 250 -9.998046875 c 0
 102.934570312 -9.998046875 15.451171875 40.9091796875 15.451171875 40.9091796875 c 1
 66.2744140625 195.262695312 l 1
 66.2744140625 195.262695312 132.936217618 144.189453125 237.5 144.189453125 c 0
 324.888056963 144.189453125 363.827148438 173.109383063 363.827148438 225.25 c 0
 363.827148438 277.70500298 318.287863332 303.001716858 231.388671875 303.237304688 c 2
 164 303.5 l 1
 164.138671875 441.981445312 l 1
 231.388671875 441.981445312 l 2xe8
EndSplineSet
Substitution2: "'onum' Oldstyle Figures lookup 18-1" three.osf
Substitution2: "'tnum' Tabular Numbers lookup 17-1" three.tf
Substitution2: "'numr' Numerators lookup 0 subtable" three.numr
Substitution2: "'dnom' Denominators lookup 0 subtable" three.dnom
Substitution2: "'sups' Superscript lookup 0 subtable" three.superior
Substitution2: "'sinf' Scientific Inferiors lookup 0 subtable" three.inferior
Substitution2: "'sups' Superscript lookup 0 subtable" three.superior
EndChar

StartChar: comma
Encoding: 44 44 61
Width: 252
Flags: W
HStem: -116 302.449
VStem: 25 202.227<22.1907 148.137>
LayerCount: 2
Fore
SplineSet
25 88.224609375 m 0
 25 147.730230558 63.4767561959 186.44921875 122.612304688 186.44921875 c 0
 185.989547413 186.44921875 227.2265625 146.786472284 227.2265625 75 c 0
 227.2265625 -31.9590269226 133 -116 133 -116 c 1
 49.5 -73 l 1
 49.5 -73 90.2418271966 -41.2621435542 108.44867232 -9.44877987673 c 1
 57.4723208177 -4.41739747993 25 32.9320287702 25 88.224609375 c 0
EndSplineSet
EndChar

StartChar: zero
Encoding: 48 48 63
Width: 683
Flags: W
HStem: -9.99805 159.462<270.65 413.127> 579.659 159.462<270.65 413.127>
VStem: 32.5 172.849<234.131 494.992> 478.429 172.849<234.131 494.992>
LayerCount: 2
Fore
SplineSet
205.348632812 364.561523438 m 0
 205.348632812 235.577457428 246.241576308 149.463867188 341.888671875 149.463867188 c 0
 437.535767441 149.463867188 478.428710938 235.577457428 478.428710938 364.561523438 c 0
 478.428710938 493.545589445 437.535767441 579.659179688 341.888671875 579.659179688 c 0
 246.241576308 579.659179688 205.348632812 493.545589445 205.348632812 364.561523438 c 0
32.5 364.561523438 m 0
 32.5 591.206054688 139.485261726 739.12109375 341.888671875 739.12109375 c 0
 544.292082024 739.12109375 651.27734375 591.206054688 651.27734375 364.561523438 c 0
 651.27734375 137.916992188 544.292082024 -9.998046875 341.888671875 -9.998046875 c 0
 139.485261726 -9.998046875 32.5 137.916992188 32.5 364.561523438 c 0
EndSplineSet
Substitution2: "'onum' Oldstyle Figures lookup 18-1" zero.osf
Substitution2: "'tnum' Tabular Numbers lookup 17-1" zero.tf
Substitution2: "'numr' Numerators lookup 0 subtable" zero.numr
Substitution2: "'dnom' Denominators lookup 0 subtable" zero.dnom
Substitution2: "'sups' Superscript lookup 0 subtable" zero.superior
Substitution2: "'sinf' Scientific Inferiors lookup 0 subtable" zero.inferior
Substitution2: "'sups' Superscript lookup 0 subtable" zero.superior
EndChar

StartChar: one
Encoding: 49 49 64
Width: 415
Flags: W
HStem: 0 21G<183.5 362.5> 711 20G<165.568 362.5>
VStem: 183.5 179<0 555.5>
LayerCount: 2
Fore
SplineSet
362.5 731 m 1
 362.5 0 l 1
 183.5 0 l 1
 183.5 555.5 l 1
 58 485.5 l 1
 7.5 620.5 l 1
 200.5 731 l 1
 362.5 731 l 1
EndSplineSet
Substitution2: "'onum' Oldstyle Figures lookup 18-1" one.osf
Substitution2: "'tnum' Tabular Numbers lookup 17-1" one.tf
Substitution2: "'numr' Numerators lookup 0 subtable" one.numr
Substitution2: "'dnom' Denominators lookup 0 subtable" one.dnom
Substitution2: "'sups' Superscript lookup 0 subtable" one.superior
Substitution2: "'sinf' Scientific Inferiors lookup 0 subtable" one.inferior
Substitution2: "'sups' Superscript lookup 0 subtable" one.superior
EndChar

StartChar: four
Encoding: 52 52 65
Width: 660
Flags: W
HStem: 0 21G<353.75 528> 158.25 143.5<217.5 632.5> 711 20G<341.152 528>
VStem: 353.75 174.25<0 488.5>
LayerCount: 2
Fore
SplineSet
528 731 m 1
 528 0 l 1
 353.75 0 l 1
 353.75 488.5 l 1
 217.5 301.75 l 1
 632.5 301.75 l 1
 632.5 158.25 l 1
 58.5 158.25 l 1
 26.75 280.25 l 1
 355.75 731 l 1
 528 731 l 1
EndSplineSet
Substitution2: "'onum' Oldstyle Figures lookup 18-1" four.osf
Substitution2: "'tnum' Tabular Numbers lookup 17-1" four.tf
Substitution2: "'numr' Numerators lookup 0 subtable" four.numr
Substitution2: "'dnom' Denominators lookup 0 subtable" four.dnom
Substitution2: "'sups' Superscript lookup 0 subtable" four.superior
Substitution2: "'sinf' Scientific Inferiors lookup 0 subtable" four.inferior
Substitution2: "'sups' Superscript lookup 0 subtable" four.superior
EndChar

StartChar: exclam
Encoding: 33 33 66
Width: 274
Flags: W
HStem: -10 196.449<72.7384 201.261> 711.008 20G<47 231>
VStem: 39.3867 195.227<23.5608 152.888> 47 184<565.672 731.008> 68 142<235 400.336>
LayerCount: 2
Fore
SplineSet
68 235 m 1xc8
 47 731.0078125 l 1
 231 731.0078125 l 1xd0
 210 235 l 1
 68 235 l 1xc8
39.38671875 88.224609375 m 0xe0
 39.38671875 147.730230558 77.8634749459 186.44921875 136.999023438 186.44921875 c 0
 196.135537333 186.44921875 234.61328125 147.730230558 234.61328125 88.224609375 c 0
 234.61328125 28.7179592526 196.135537333 -10 136.999023438 -10 c 0
 77.8634749458 -10 39.38671875 28.7179592526 39.38671875 88.224609375 c 0xe0
EndSplineSet
EndChar

StartChar: five
Encoding: 53 53 67
Width: 594
Flags: W
HStem: -9.99805 157.643<121.149 346.193> 344.686 136.685<237.909 352.418> 579.591 151.417<228.305 517.172>
VStem: 385.345 176.982<184.569 310.931>
LayerCount: 2
Fore
SplineSet
267 -9.998046875 m 0
 107.707794754 -9.998046875 12.951171875 40.9091796875 12.951171875 40.9091796875 c 1
 57.7744140625 194.262695312 l 1
 57.7744140625 194.262695312 142.770332227 147.64453125 252 147.64453125 c 0
 348.325880005 147.64453125 385.344726562 185.040492664 385.344726562 245.576171875 c 0
 385.344726562 307.649691899 349.93478635 344.685546875 278.5 344.685546875 c 0
 203.375224842 344.685546875 177.5 297 177.5 297 c 1
 49.447265625 326.728515625 l 1
 80.5 731.0078125 l 1
 517.171875 731.0078125 l 1
 517.171875 579.590820312 l 1
 228.3046875 579.590820312 l 1
 218.470703125 446.322265625 l 1
 218.470703125 446.322265625 248.405207449 481.370117188 344.815429688 481.370117188 c 0
 485.46341162 481.370117188 562.327148438 395.114922978 562.327148438 251.247070312 c 0
 562.327148438 89.3239624144 462.8586214 -9.998046875 267 -9.998046875 c 0
EndSplineSet
Substitution2: "'onum' Oldstyle Figures lookup 18-1" five.osf
Substitution2: "'tnum' Tabular Numbers lookup 17-1" five.tf
Substitution2: "'numr' Numerators lookup 0 subtable" five.numr
Substitution2: "'dnom' Denominators lookup 0 subtable" five.dnom
Substitution2: "'sups' Superscript lookup 0 subtable" five.superior
Substitution2: "'sinf' Scientific Inferiors lookup 0 subtable" five.inferior
Substitution2: "'sups' Superscript lookup 0 subtable" five.superior
EndChar

StartChar: six
Encoding: 54 54 68
Width: 640
Flags: W
HStem: -9.99805 145.389<256.185 406.259> 338.391 133.209<255.684 403.626> 589.52 149.473<279.6 482.977>
VStem: 32.5 188.398<192.073 440.809> 440.898 166.767<169.353 302.322>
LayerCount: 2
Back
SplineSet
178.3984375 236.890625 m 0
 178.3984375 160.019065367 219.88147703 103.890625 320.3984375 103.890625 c 0
 421.623435844 103.890625 463.3984375 160.019065367 463.3984375 236.890625 c 0
 463.3984375 314.340166284 421.623435844 370.890625 320.3984375 370.890625 c 0
 219.88147703 370.890625 178.3984375 314.340166284 178.3984375 236.890625 c 0
163.303710938 405.747070312 m 1
 163.303710938 405.747070312 204.094697864 475.599609375 331.263671875 475.599609375 c 0
 505.711185917 475.599609375 585.165039062 379.238029036 585.165039062 239 c 0
 585.165039062 79.095703125 484.937095781 -9.998046875 321.297851562 -9.998046875 c 0
 141.540405276 -9.998046875 35 99.6728515625 35 365.331054688 c 0
 35 605.528320312 149.046377502 738.9921875 354.297851562 738.9921875 c 0
 495.428880973 738.9921875 566.923828125 678.860351562 566.923828125 678.860351562 c 1
 522.619140625 573.388671875 l 5
 522.619140625 573.388671875 463.487673927 622.51953125 354.778320312 622.51953125 c 4
 232.266224145 622.51953125 170.301516454 546.295339891 163.303710938 405.747070312 c 1
EndSplineSet
Fore
SplineSet
220.8984375 236.890625 m 0
 220.8984375 178.225487386 252.887119391 135.390625 330.3984375 135.390625 c 0
 408.617754402 135.390625 440.8984375 178.225487386 440.8984375 236.890625 c 0
 440.8984375 295.555762614 408.617754402 338.390625 330.3984375 338.390625 c 0
 252.887119391 338.390625 220.8984375 295.555762614 220.8984375 236.890625 c 0
199.303710938 424.747070312 m 1
 199.303710938 424.747070312 238.394668245 471.599609375 360.263671875 471.599609375 c 0
 511.706457619 471.599609375 607.665039062 376.867137057 607.665039062 239 c 0
 607.665039062 79.095703125 502.689065898 -9.998046875 331.297851562 -9.998046875 c 0
 143.692047118 -9.998046875 32.5 99.6728515625 32.5 365.331054688 c 0
 32.5 605.528320312 151.904057342 738.9921875 366.797851562 738.9921875 c 0
 514.56640625 738.9921875 589.423828125 678.860351562 589.423828125 678.860351562 c 1
 530.619140625 540.388671875 l 1
 530.619140625 540.388671875 474.834588775 589.51953125 372.278320312 589.51953125 c 0
 261.603165797 589.51953125 205.625398599 531.580217654 199.303710938 424.747070312 c 1
EndSplineSet
Substitution2: "'onum' Oldstyle Figures lookup 18-1" six.osf
Substitution2: "'tnum' Tabular Numbers lookup 17-1" six.tf
Substitution2: "'numr' Numerators lookup 0 subtable" six.numr
Substitution2: "'dnom' Denominators lookup 0 subtable" six.dnom
Substitution2: "'ss07' Style Set 7 lookup 8-1" six.ss07
Substitution2: "'sups' Superscript lookup 0 subtable" six.superior
Substitution2: "'sinf' Scientific Inferiors lookup 0 subtable" six.inferior
Substitution2: "'sups' Superscript lookup 0 subtable" six.superior
EndChar

StartChar: parenright
Encoding: 41 41 69
Width: 402
Flags: W
HStem: -171.47 147.525<27.5 107.224> 611.944 147.525<27.5 107.224>
VStem: 207.948 166.679<107.33 480.67>
LayerCount: 2
Fore
SplineSet
27.5 -23.9443359375 m 1
 148.43457912 -23.9443359375 207.948242188 64.1460867826 207.948242188 294 c 0
 207.948242188 523.853913217 148.43457912 611.944335938 27.5 611.944335938 c 1
 27.5 759.469726562 l 1
 253.225983434 759.469726562 374.626953125 611.823242188 374.626953125 294 c 0
 374.626953125 -23.8232421874 253.225983434 -171.469726562 27.5 -171.469726562 c 1
 27.5 -23.9443359375 l 1
EndSplineSet
EndChar

StartChar: seven
Encoding: 55 55 70
Width: 604
Flags: W
HStem: 0 21G<154 335.656> 576 155<37.5 359.25>
VStem: 154 180<0 157.309>
LayerCount: 2
Fore
SplineSet
334 0 m 1
 154 0 l 1
 164.44259869 317.046153846 359.25 576 359.25 576 c 1
 37.5 576 l 1
 37.5 731 l 1
 566.5 731 l 1
 566.5 625 l 1
 566.5 625 337.311823032 356 334 0 c 1
EndSplineSet
Substitution2: "'onum' Oldstyle Figures lookup 18-1" seven.osf
Substitution2: "'tnum' Tabular Numbers lookup 17-1" seven.tf
Substitution2: "'numr' Numerators lookup 0 subtable" seven.numr
Substitution2: "'dnom' Denominators lookup 0 subtable" seven.dnom
Substitution2: "'sups' Superscript lookup 0 subtable" seven.superior
Substitution2: "'sinf' Scientific Inferiors lookup 0 subtable" seven.inferior
Substitution2: "'sups' Superscript lookup 0 subtable" seven.superior
EndChar

StartChar: eight
Encoding: 56 56 71
Width: 647
Flags: W
HStem: -9.99805 142.764<238.567 408.433> 312.397 136.664<268.556 381.529> 359.573 60.7568<157.059 493.195> 594.998 143.887<257.591 395.293>
VStem: 32.5 171.768<165.428 279.714> 67.7598 166.688<472.164 572.245> 417.552 166.688<472.795 572.245> 442.732 171.768<165.428 279.714>
LayerCount: 2
Fore
SplineSet
323.5 449.061523438 m 0xd6
 381.528837485 449.061523438 417.551757812 477.193400059 417.551757812 521.869140625 c 0
 417.551757812 567.848620037 382.938858646 594.998046875 323.5 594.998046875 c 0
 267.221277818 594.998046875 234.448242188 567.848620037 234.448242188 521.869140625 c 0
 234.448242188 477.193400059 268.556121956 449.061523438 323.5 449.061523438 c 0xd6
323.5 738.884765625 m 0
 486.018903088 738.884765625 584.240234375 665.090820312 584.240234375 543.655273438 c 0
 584.240234375 424.0703125 493.195213191 359.573242188 323.5 359.573242188 c 0xb6
 157.058694982 359.573242188 67.759765625 424.0703125 67.759765625 543.655273438 c 0
 67.759765625 665.090820312 164.097310558 738.884765625 323.5 738.884765625 c 0
323.5 132.765625 m 0
 400.54435379 132.765625 442.732421875 165.275560709 442.732421875 224.020507812 c 0
 442.732421875 278.070711807 400.560891645 312.397460938 323.5 312.397460938 c 0
 246.439108355 312.397460938 204.267578125 278.070711807 204.267578125 224.020507812 c 0xd9
 204.267578125 165.275560709 246.45564621 132.765625 323.5 132.765625 c 0
323.5 420.330078125 m 0xb9
 511.22029054 420.330078125 614.5 344.878579167 614.5 208.381835938 c 0
 614.5 76.1718749998 500.023514028 -9.998046875 323.5 -9.998046875 c 0
 146.976485973 -9.998046875 32.5 76.171875 32.5 208.381835938 c 0
 32.5 344.878579167 135.77970946 420.330078125 323.5 420.330078125 c 0xb9
EndSplineSet
Substitution2: "'onum' Oldstyle Figures lookup 18-1" eight.osf
Substitution2: "'tnum' Tabular Numbers lookup 17-1" eight.tf
Substitution2: "'numr' Numerators lookup 0 subtable" eight.numr
Substitution2: "'dnom' Denominators lookup 0 subtable" eight.dnom
Substitution2: "'sups' Superscript lookup 0 subtable" eight.superior
Substitution2: "'sinf' Scientific Inferiors lookup 0 subtable" eight.inferior
Substitution2: "'sups' Superscript lookup 0 subtable" eight.superior
EndChar

StartChar: nine
Encoding: 57 57 72
Width: 640
Flags: W
HStem: -9.99805 149.473<150.492 357.134> 252.395 134.459<238.164 387.396> 589.854 149.139<239.066 385.605>
VStem: 32.5 170.017<421.21 554.52> 422.517 185.148<288.185 537.209>
LayerCount: 2
Fore
SplineSet
422.516601562 488.353515625 m 0
 422.516601562 547.01865324 390.527919671 589.853515625 313.016601562 589.853515625 c 0
 234.79728466 589.853515625 202.516601562 547.01865324 202.516601562 488.353515625 c 0
 202.516601562 429.688378011 234.79728466 386.853515625 313.016601562 386.853515625 c 0
 390.527919671 386.853515625 422.516601562 429.688378011 422.516601562 488.353515625 c 0
428.361328125 304.247070312 m 1
 428.361328125 304.247070312 392.306137994 252.39453125 279.901367188 252.39453125 c 0
 128.458581444 252.39453125 32.5 349.164169963 32.5 489.994140625 c 0
 32.5 649.8984375 137.475973164 738.9921875 308.8671875 738.9921875 c 0
 496.472991944 738.9921875 607.665039062 629.321289062 607.665039062 363.663085938 c 0
 607.665039062 123.465820312 488.26098172 -9.998046875 273.3671875 -9.998046875 c 0
 125.598632812 -9.998046875 50.7412109375 50.1337890625 50.7412109375 50.1337890625 c 1
 97.0458984377 188.60546875 l 1
 97.0458984377 188.60546875 157.234285614 139.474609375 267.88671875 139.474609375 c 0
 370.563939716 139.474609375 422.496476851 197.413922971 428.361328125 304.247070312 c 1
EndSplineSet
Substitution2: "'onum' Oldstyle Figures lookup 18-1" nine.osf
Substitution2: "'tnum' Tabular Numbers lookup 17-1" nine.tf
Substitution2: "'numr' Numerators lookup 0 subtable" nine.numr
Substitution2: "'dnom' Denominators lookup 0 subtable" nine.dnom
Substitution2: "'ss07' Style Set 7 lookup 8-1" nine.ss07
Substitution2: "'sups' Superscript lookup 0 subtable" nine.superior
Substitution2: "'sinf' Scientific Inferiors lookup 0 subtable" nine.inferior
Substitution2: "'sups' Superscript lookup 0 subtable" nine.superior
EndChar

StartChar: question
Encoding: 63 63 73
Width: 562
Flags: W
HStem: -10 196.449<160.738 289.261> 299.594 117.455<199.665 381.468> 584.479 154.514<130.326 323.373>
VStem: 127.387 195.227<23.5608 152.888> 159.923 131.956<235 300.653> 355.596 178.774<445.884 552.449>
LayerCount: 2
Back
SplineSet
152.38671875 63.224609375 m 0xf4
 152.38671875 107.584937143 181.008990842 136.44921875 224.999023438 136.44921875 c 0
 268.990077228 136.44921875 297.61328125 107.584937143 297.61328125 63.224609375 c 0
 297.61328125 18.8635145521 268.990077228 -10 224.999023438 -10 c 0
 181.008990842 -10 152.38671875 18.8635145521 152.38671875 63.224609375 c 0xf4
280.88671875 300.653320312 m 1
 282.37890625 210 l 1
 169.422851562 210 l 1xec
 171.15625 399.46875 l 1
 171.15625 399.46875 208.949224154 395.048828125 256.3984375 395.048828125 c 0
 348.180522211 395.048828125 392.095703125 431.389934102 392.095703125 499.145507812 c 0
 392.095703125 585.201602829 327.571533338 623.228515625 232.89453125 623.228515625 c 0
 138.66274719 623.228515625 76.923828125 573.958007812 76.923828125 573.958007812 c 1
 30.2412109375 685.311523438 l 1
 30.2412109375 685.311523438 107.390463661 738.9921875 239.89453125 738.9921875 c 0
 405.150107971 738.9921875 521.870117188 670 521.870117188 501.010742188 c 0
 521.870117188 365.685958308 421.37343496 300.59375 309 300.59375 c 0
 290.63582236 300.59375 280.88671875 300.653320312 280.88671875 300.653320312 c 1
EndSplineSet
Fore
SplineSet
127.38671875 88.224609375 m 0xf4
 127.38671875 147.730230558 165.863474946 186.44921875 224.999023438 186.44921875 c 0
 284.135537333 186.44921875 322.61328125 147.730230558 322.61328125 88.224609375 c 0
 322.61328125 28.7179592526 284.135537333 -10 224.999023438 -10 c 0
 165.863474946 -10 127.38671875 28.7179592526 127.38671875 88.224609375 c 0xf4
290.38671875 300.653320312 m 1
 291.87890625 235 l 1
 159.922851562 235 l 1xec
 161.65625 421.46875 l 1
 161.65625 421.46875 195.348144381 417.048828125 237.6484375 417.048828125 c 0
 317.424886017 417.048828125 355.595703125 445.360423074 355.595703125 498.145507812 c 0
 355.595703125 558.020599932 307.486166757 584.478515625 236.89453125 584.478515625 c 0
 142.36066551 584.478515625 80.423828125 536.458007812 80.423828125 536.458007812 c 1
 20.2412109375 685.311523438 l 1
 20.2412109375 685.311523438 101.0703125 738.9921875 239.89453125 738.9921875 c 0
 412.475900742 738.9921875 534.370117188 667.168074176 534.370117188 500.010742188 c 0
 534.370117188 364.685958308 434.685213384 299.59375 328.25 299.59375 c 0
 303.516920403 299.59375 290.38671875 300.653320312 290.38671875 300.653320312 c 1
EndSplineSet
EndChar

StartChar: hyphen
Encoding: 45 45 74
Width: 354
Flags: W
HStem: 204.25 150.5<27.5 326.5>
VStem: 27.5 299<204.25 354.75>
LayerCount: 2
Fore
SplineSet
326.5 204.25 m 1
 27.5 204.25 l 1
 27.5 354.75 l 1
 326.5 354.75 l 1
 326.5 204.25 l 1
EndSplineSet
EndChar

StartChar: quotesingle
Encoding: 39 39 75
Width: 266
Flags: W
HStem: 456 275.008<76 194>
VStem: 76 118<456 547.669>
LayerCount: 2
Fore
SplineSet
76 456 m 1
 55 731.0078125 l 1
 215 731.0078125 l 1
 194 456 l 1
 76 456 l 1
EndSplineSet
EndChar

StartChar: parenleft
Encoding: 40 40 77
Width: 402
Flags: W
HStem: -171.47 147.525<294.903 374.627> 611.944 147.525<294.903 374.627>
VStem: 27.5 166.679<107.33 480.67>
LayerCount: 2
Fore
SplineSet
374.626953125 -23.9443359375 m 1
 374.626953125 -171.469726562 l 1
 148.900969691 -171.469726562 27.5 -23.8232421874 27.5 294 c 0
 27.5 611.823242188 148.900969691 759.469726562 374.626953125 759.469726562 c 1
 374.626953125 611.944335938 l 1
 253.692374005 611.944335938 194.178710938 523.853913217 194.178710938 294 c 0
 194.178710938 64.1460867826 253.692374005 -23.9443359375 374.626953125 -23.9443359375 c 1
EndSplineSet
EndChar

StartChar: asterisk
Encoding: 42 42 78
Width: 400
Flags: W
HStem: 718.992 20G<135.034 265.405>
LayerCount: 2
Fore
SplineSet
265.405273438 738.9921875 m 1
 254.396484375 624.151367188 l 1
 358.440429688 669.049804688 l 1
 395.440429688 551.869140625 l 1
 287.896484375 527.767578125 l 1
 364.405273438 435.006835938 l 1
 255.25390625 366.916992188 l 1
 200.219726562 477.075195312 l 1
 145.185546875 366.916992188 l 1
 36.0341796875 435.006835938 l 1
 112.54296875 527.767578125 l 1
 5 551.869140625 l 1
 42 669.049804688 l 1
 146.04296875 624.151367188 l 1
 135.034179688 738.9921875 l 1
 265.405273438 738.9921875 l 1
EndSplineSet
Substitution2: "'ss13' Style Set 13 lookup 14-1" asterisk.ss13
EndChar

StartChar: less
Encoding: 60 60 79
Width: 450
Flags: W
LayerCount: 2
Fore
SplineSet
420 155 m 1
 30 280 l 1
 30 436 l 1
 420 561 l 1
 420 416.25 l 1
 202.454101562 358 l 1
 420 299.75 l 1
 420 155 l 1
EndSplineSet
EndChar

StartChar: greater
Encoding: 62 62 80
Width: 450
Flags: W
LayerCount: 2
Fore
SplineSet
30 561 m 1
 420 436 l 1
 420 280 l 1
 30 155 l 1
 30 299.75 l 1
 250.045898438 358 l 1
 30 416.25 l 1
 30 561 l 1
EndSplineSet
EndChar

StartChar: slash
Encoding: 47 47 81
Width: 434
Flags: W
LayerCount: 2
Fore
SplineSet
6.25 -171.469726562 m 1
 281.25 761.403320312 l 1
 427.75 761.403320312 l 1
 152.75 -171.469726562 l 1
 6.25 -171.469726562 l 1
EndSplineSet
EndChar

StartChar: bar
Encoding: 124 124 82
Width: 249
Flags: W
VStem: 51.25 146.5<-171.47 759.47>
LayerCount: 2
Fore
SplineSet
51.25 -171.469726562 m 1
 51.25 759.469726562 l 1
 197.75 759.469726562 l 1
 197.75 -171.469726562 l 1
 51.25 -171.469726562 l 1
EndSplineSet
EndChar

StartChar: bracketleft
Encoding: 91 91 83
Width: 375
Flags: W
HStem: -171.47 135<209 350> 624.22 135.25<209 350>
VStem: 50 300<-171.47 -36.4697 624.22 759.47> 50 159<-36.4697 624.22>
LayerCount: 2
Fore
SplineSet
50 759.469726562 m 1xe0
 350 759.469726562 l 1
 350 624.219726562 l 1xe0
 209 624.219726562 l 1
 209 -36.4697265625 l 1xd0
 350 -36.4697265625 l 1
 350 -171.469726562 l 1
 50 -171.469726562 l 1
 50 759.469726562 l 1xe0
EndSplineSet
EndChar

StartChar: bracketright
Encoding: 93 93 84
Width: 375
Flags: W
HStem: -171.47 135<25 166> 624.47 135<25 166>
VStem: 25 300<-171.47 -36.4697 624.47 759.47> 166 159<-36.4697 624.47>
LayerCount: 2
Fore
SplineSet
325 -171.469726562 m 1xe0
 25 -171.469726562 l 1
 25 -36.4697265625 l 1xe0
 166 -36.4697265625 l 1
 166 624.469726562 l 1xd0
 25 624.469726562 l 1
 25 759.469726562 l 1
 325 759.469726562 l 1
 325 -171.469726562 l 1xe0
EndSplineSet
EndChar

StartChar: asciicircum
Encoding: 94 94 85
Width: 449
Flags: W
HStem: 440 291.008<152.5 158 292 296.5>
LayerCount: 2
Fore
SplineSet
296.5 731.0078125 m 1
 446.5 440 l 1
 292 440 l 1
 225.393554688 613.063476562 l 1
 158 440 l 1
 2.5 440 l 1
 152.5 731.0078125 l 1
 296.5 731.0078125 l 1
EndSplineSet
EndChar

StartChar: braceleft
Encoding: 123 123 86
Width: 433
Flags: W
HStem: -171.47 132.996<289.541 401.538> 249.032 131<25 107.222> 626.474 132.996<289.448 401.617>
VStem: 115 159<-22.9098 240.103 388.34 610.909>
LayerCount: 2
Fore
SplineSet
213 314.532226562 m 1
 213 314.532226562 274 289.532226562 274 209.532226562 c 2
 274 33.5263671875 l 2
 274 -21.755859375 300.6015625 -38.4736328125 348 -38.4736328125 c 0
 391.443359375 -38.4736328125 401 -33.4736328125 401 -33.4736328125 c 1
 408 -161.469726562 l 1
 408 -161.469726562 371 -171.469726562 311 -171.469726562 c 0
 166.700268817 -171.469726562 115 -105.096386718 115 7.5302734375 c 2
 115 187.032226562 l 2
 115 234.360351562 96.501953125 249.032226562 60 249.032226562 c 2
 25 249.032226562 l 1
 25 380.032226562 l 1
 60 380.032226562 l 2
 96.501953125 380.032226562 115 394.705078125 115 442.032226562 c 2
 115 580.469726562 l 2
 115 693.09330193 166.700268817 759.469726562 311 759.469726562 c 0
 365.75 759.469726562 408 749.469726562 408 749.469726562 c 1
 401 621.473632812 l 1
 401 621.473632812 384.180664062 626.473632812 347 626.473632812 c 0
 300.2421875 626.473632812 274 609.754882812 274 554.473632812 c 2
 274 419.532226562 l 2
 274 337.53515625 213 314.532226562 213 314.532226562 c 1
EndSplineSet
EndChar

StartChar: grave
Encoding: 96 96 87
Width: 242
Flags: W
HStem: 511 230.008
VStem: -1.5 245
LayerCount: 2
Fore
SplineSet
138.5 511 m 1
 -1.5 711.0078125 l 1
 154.5 741.0078125 l 1
 243.5 531 l 1
 138.5 511 l 1
EndSplineSet
EndChar

StartChar: underscore
Encoding: 95 95 88
Width: 564
Flags: W
HStem: -116 116<27.5 536.5>
LayerCount: 2
Fore
SplineSet
536.5 -116 m 1
 27.5 -116 l 1
 27.5 0 l 1
 536.5 0 l 1
 536.5 -116 l 1
EndSplineSet
EndChar

StartChar: dollar
Encoding: 36 36 89
Width: 591
Flags: W
HStem: -105 174.47<220 369> -10 156.212<133.698 357.905> 581.909 157.212<242.999 447.476> 655 174.47<220 369>
VStem: 39.627 185.562<477.798 564.213> 220 149<-105 69.4697 655 829.47> 379.588 179.432<168.277 247.566>
LayerCount: 2
Fore
SplineSet
220 -105 m 1x86
 220 69.4697265625 l 1
 369 69.4697265625 l 1
 369 -105 l 1
 220 -105 l 1x86
220 655 m 1x16
 220 829.469726562 l 1
 369 829.469726562 l 1
 369 655 l 1
 220 655 l 1x16
EndSplineSet
Refer: 22 83 N 1 0 0 1 0 0 2
EndChar

StartChar: percent
Encoding: 37 37 90
Width: 953
Flags: W
HStem: -9.99805 123.03<672.112 773.114> 0 21G<188.5 334.675> 263.822 123.029<671.591 773.65> 342.143 123.029<181.49 282.114> 615.962 123.03<180.976 282.65> 711.008 20G<621.325 767.5>
VStem: 32.5 132.91<481.416 600.567> 299.66 130.8<481.957 600.042> 523.5 131.91<129.816 247.902> 790.66 130.8<129.816 247.902>
LayerCount: 2
Fore
SplineSet
655.41015625 188.981445312 m 0xa3c0
 655.41015625 134.495679677 685.591416183 113.032226562 722.48046875 113.032226562 c 0
 759.064877091 113.032226562 790.66015625 134.495679677 790.66015625 188.981445312 c 0
 790.66015625 243.865095242 759.064877091 263.822265625 722.48046875 263.822265625 c 0
 685.591416183 263.822265625 655.41015625 243.865095242 655.41015625 188.981445312 c 0xa3c0
523.5 188.981445312 m 0
 523.5 298.011769132 596.100841027 386.8515625 722.48046875 386.8515625 c 0
 848.859096026 386.8515625 921.459960938 298.011769132 921.459960938 188.981445312 c 0
 921.459960938 80.0806689567 848.859096026 -9.998046875 722.48046875 -9.998046875 c 0
 596.100841027 -9.998046875 523.5 80.0806689567 523.5 188.981445312 c 0
165.41015625 541.122070312 m 0
 165.41015625 486.636288898 195.141421859 465.171875 231.48046875 465.171875 c 0
 268.064877091 465.171875 299.66015625 486.636288898 299.66015625 541.122070312 c 0
 299.66015625 596.004749629 268.064877091 615.961914062 231.48046875 615.961914062 c 0x1bc0
 195.141421859 615.961914062 165.41015625 596.004749629 165.41015625 541.122070312 c 0
32.5 541.122070312 m 0
 32.5 650.152394132 105.100841027 738.9921875 231.48046875 738.9921875 c 0
 357.859096026 738.9921875 430.459960938 650.152394132 430.459960938 541.122070312 c 0
 430.459960938 432.221293956 357.859096026 342.142578125 231.48046875 342.142578125 c 0
 105.100841027 342.142578125 32.5 432.221293956 32.5 541.122070312 c 0
EndSplineSet
Refer: 138 8260 N 1 0 0 1 301 0 2
EndChar

StartChar: at
Encoding: 64 64 91
Width: 924
Flags: W
HStem: -159.727 123.008<360.688 654.487> 76.9697 122.504<395.662 502.13> 77.709 113.926<668.505 749.843> 353.553 120.523<402.712 505.768> 586.488 121.238<349.572 597.299>
VStem: 35 129.925<144.148 402.995> 234.842 147.267<214.795 333.189> 522.433 139.902<230.26 328.576> 534.783 65.7217<154.184 347.699> 769.167 120.12<209.812 429.471>
LayerCount: 2
Fore
SplineSet
382.108398438 268.5546875 m 0xdf40
 382.108398438 223.350638721 404.775815978 199.473632812 447.694335938 199.473632812 c 0
 494.894105292 199.473632812 522.432617188 230.260058493 522.432617188 283.029296875 c 0
 522.432617188 328.575536005 496.864835723 353.552734375 455.334960938 353.552734375 c 0
 409.040196687 353.552734375 382.108398438 322.291463764 382.108398438 268.5546875 c 0xdf40
420.892578125 76.9697265625 m 0
 309.51235113 76.9697265625 234.841796875 150.743558949 234.841796875 260.787109375 c 0
 234.841796875 387.191646549 321.491652665 474.076171875 433.707519531 474.076171875 c 0
 547.882722196 474.076171875 600.504882812 404.054313842 600.504882812 264.02734375 c 0xdec0
 600.504882812 154.183982127 526.365234375 76.9697265625 420.892578125 76.9697265625 c 0
487.713867188 -159.7265625 m 0
 207.397460938 -159.7265625 35 14.611328125 35 268.08984375 c 0
 35 524.041992188 210.711204655 707.7265625 463.920898438 707.7265625 c 0
 712.257396843 707.7265625 889.287109375 561.379882812 889.287109375 321.901367188 c 0
 889.287109375 174.207718559 818.929251356 77.708984375 696.126953125 77.708984375 c 0
 594.972177836 77.708984375 534.783203125 124.428943267 534.783203125 228.081054688 c 0xbec0
 534.783203125 347.698859448 571.813476562 471.46484375 571.813476562 471.46484375 c 1
 701.62890625 471.46484375 l 1
 701.62890625 471.46484375 662.334960938 339.296075965 662.334960938 244.077148438 c 0
 662.334960938 209.75 678.008386109 191.634765625 705.679199219 191.634765625 c 0xbf40
 747.327192243 191.634765625 769.166992188 217.972828827 769.166992188 317.072265625 c 0
 769.166992188 489.258926586 653.55139826 586.48828125 465.484375 586.48828125 c 0
 281.503881595 586.48828125 164.924804688 463.355352745 164.924804688 272.989257812 c 0
 164.924804688 80.5408435539 279.74667384 -36.71875 505.1796875 -36.71875 c 0
 665.742397465 -36.71875 766.11328125 33.5576171875 766.11328125 33.5576171875 c 1
 805.250976562 -72.2255859375 l 1
 805.250976562 -72.2255859375 701.004882812 -159.7265625 487.713867188 -159.7265625 c 0
EndSplineSet
EndChar

StartChar: numbersign
Encoding: 35 35 92
Width: 767
Flags: W
HStem: 0 21G<91.5 245.014 361.5 515.014> 171.5 128.5<30 702> 414 128.5<65 737> 711.008 20G<251.986 405.5 521.986 675.5>
LayerCount: 2
Fore
SplineSet
65 542.5 m 1
 737 542.5 l 1
 737 414 l 1
 65 414 l 1
 65 542.5 l 1
30 300 m 1
 702 300 l 1
 702 171.5 l 1
 30 171.5 l 1
 30 300 l 1
361.5 0 m 1
 526.5 731.0078125 l 1
 675.5 731.0078125 l 1
 510.5 0 l 1
 361.5 0 l 1
91.5 0 m 1
 256.5 731.0078125 l 1
 405.5 731.0078125 l 1
 240.5 0 l 1
 91.5 0 l 1
EndSplineSet
EndChar

StartChar: braceright
Encoding: 125 125 93
Width: 433
Flags: W
HStem: -171.47 132.996<36.4621 147.502> 249.032 131<325.778 408> 626.474 132.996<36.3831 147.576>
VStem: 159 159<-25.7259 240.103 388.34 613.725>
LayerCount: 2
Fore
SplineSet
220 314.532226562 m 1
 220 314.532226562 159 337.53515625 159 419.532226562 c 2
 159 563.473632812 l 2
 159 611.844726562 134.555222603 626.473632812 91 626.473632812 c 0
 53.8193359375 626.473632812 37 621.473632812 37 621.473632812 c 1
 30 749.469726562 l 1
 30 749.469726562 72.25 759.469726562 127 759.469726562 c 0
 267.618615591 759.469726562 318 696.430664062 318 589.469726562 c 2
 318 442.032226562 l 2
 318 394.705078125 336.498046875 380.032226562 373 380.032226562 c 2
 408 380.032226562 l 1
 408 249.032226562 l 1
 373 249.032226562 l 2
 336.498046875 249.032226562 318 234.360351562 318 187.032226562 c 2
 318 -1.4697265625 l 2
 318 -108.43359375 267.618615591 -171.469726562 127 -171.469726562 c 0
 67 -171.469726562 30 -161.469726562 30 -161.469726562 c 1
 37 -33.4736328125 l 1
 37 -33.4736328125 46.556640625 -38.4736328125 90 -38.4736328125 c 0
 134.195840371 -38.4736328125 159 -23.8455810547 159 24.5263671875 c 2
 159 209.532226562 l 2
 159 289.532226562 220 314.532226562 220 314.532226562 c 1
EndSplineSet
EndChar

StartChar: asciitilde
Encoding: 126 126 94
Width: 436
VWidth: 999
Flags: W
HStem: 272 140<231.151 352.629> 321 139<71.1232 204.877>
LayerCount: 2
Fore
SplineSet
433.5 355 m 1x80
 433.5 355 380.581967212 272 299 272 c 0x80
 221.461538462 272 195.615384615 321 139 321 c 0
 102.376811594 321 72.5 289.5 72.5 289.5 c 1
 2.5 397.5 l 1
 2.5 397.5 60.9303278689 460 137 460 c 0x40
 213.307692308 460 245.307692308 412 297 412 c 0
 338.346153846 412 359.5 439.5 359.5 439.5 c 1
 433.5 355 l 1x80
EndSplineSet
EndChar

StartChar: cent
Encoding: 162 162 95
Width: 492
Flags: W
HStem: -5 189.47<223 364> 105.002 142.462<247.185 409.66> 481.284 144.649<242.916 387.168> 570 159.47<223 364>
VStem: 32.5 172.599<289.234 444.164> 223 141<-5 184.47 570 729.47>
LayerCount: 2
Fore
SplineSet
223 -5 m 1x8c
 223 184.469726562 l 1
 364 184.469726562 l 1
 364 -5 l 1
 223 -5 l 1x8c
223 570 m 1x1c
 223 729.469726562 l 1
 364 729.469726562 l 1
 364 570 l 1
 223 570 l 1x1c
EndSplineSet
Refer: 40 99 N 1 0 0 1 0 115 2
EndChar

StartChar: sterling
Encoding: 163 163 96
Width: 553
Flags: W
HStem: 0 154<225.319 523> 270.5 144.5<32.5 434> 583.871 155.591<260.172 454.987>
VStem: 51.8516 187.729<453.289 564.365> 129.324 161.407<230.13 412.292>
LayerCount: 2
Fore
SplineSet
434 270.5 m 1xe0
 32.5 270.5 l 1
 32.5 415 l 1
 434 415 l 1
 434 270.5 l 1xe0
523 0 m 1
 25 0 l 1
 25 130 l 1
 25 130 129.32421875 205.513671875 129.32421875 314.379882812 c 0xe8
 129.32421875 406.676903587 51.8515625 430.678985619 51.8515625 547.185546875 c 0
 51.8515625 671.3984375 152.268972856 739.461914062 302.80859375 739.461914062 c 0
 446.858997623 739.461914062 511.20703125 703.405273438 511.20703125 703.405273438 c 1
 479.9375 552.274414062 l 1
 479.9375 552.274414062 414.877929688 583.87109375 342.80859375 583.87109375 c 0
 280.432233162 583.87109375 239.580078125 567.247545987 239.580078125 513.524414062 c 0xf0
 239.580078125 456.10898488 290.731445312 417.907110894 290.731445312 327.658203125 c 0xe8
 290.731445312 220.051539765 225.319335938 154 225.319335938 154 c 1
 523 154 l 1
 523 0 l 1
EndSplineSet
EndChar

StartChar: yen
Encoding: 165 165 97
Width: 649
Flags: W
HStem: 0 21G<235 414> 175 86<74.5 574.5> 305 123.5<235 414> 305 86<74.5 241 408 574.5> 322 69<241 408> 711.008 20G<17.5 222.11 426.89 631.5>
VStem: 235 179<0 428.5>
LayerCount: 2
Fore
SplineSet
241 322 m 1xce
 17.5 731.0078125 l 1
 213.5 731.0078125 l 1
 324.5 473.166015625 l 1
 435.5 731.0078125 l 1
 631.5 731.0078125 l 1
 408 322 l 1
 241 322 l 1xce
235 0 m 1
 235 428.5 l 1
 414 428.5 l 1xe6
 414 0 l 1
 235 0 l 1
574.5 175 m 1
 74.5 175 l 1
 74.5 261 l 1
 574.5 261 l 1
 574.5 175 l 1
574.5 305 m 1xd6
 74.5 305 l 1
 74.5 391 l 1
 574.5 391 l 1
 574.5 305 l 1xd6
EndSplineSet
EndChar

StartChar: currency
Encoding: 164 164 98
Width: 513
Flags: W
HStem: 156.724 127.462<210.846 301.662> 430.006 127.649<210.865 301.68>
VStem: 52.6113 135.849<299.576 414.156> 324.54 135.849<300.116 413.647>
LayerCount: 2
Fore
SplineSet
302.739257812 213.436523438 m 1
 416.389648438 246.325195312 l 1
 510.759765625 124.765625 l 1
 364.580078125 66.1455078125 l 1
 302.739257812 213.436523438 l 1
210.520507812 213.436523438 m 1
 148.6796875 66.1455078125 l 1
 2.5 124.765625 l 1
 96.8701171875 246.325195312 l 1
 210.520507812 213.436523438 l 1
302.739257812 497.74609375 m 1
 364.580078125 645.036132812 l 1
 510.759765625 586.416015625 l 1
 416.389648438 464.856445312 l 1
 302.739257812 497.74609375 l 1
210.520507812 497.74609375 m 1
 96.8701171875 464.856445312 l 1
 2.5 586.416015625 l 1
 148.6796875 645.036132812 l 1
 210.520507812 497.74609375 l 1
188.459960938 359.283203125 m 0
 188.459960938 314.251161827 208.538391536 284.185546875 255.5 284.185546875 c 0
 303.862970434 284.185546875 324.540039062 314.251161827 324.540039062 359.283203125 c 0
 324.540039062 401.692170725 303.896175546 430.005859375 255.611328125 430.005859375 c 0
 208.571596709 430.005859375 188.459960938 401.692170725 188.459960938 359.283203125 c 0
52.611328125 359.283203125 m 0
 52.611328125 479.317382812 129.379882812 557.655273438 255.5 557.655273438 c 0
 382.86328125 557.655273438 460.388671875 479.317382812 460.388671875 359.283203125 c 0
 460.388671875 236.715820312 382.86328125 156.723632812 255.5 156.723632812 c 0
 129.379882812 156.723632812 52.611328125 236.715820312 52.611328125 359.283203125 c 0
EndSplineSet
EndChar

StartChar: brokenbar
Encoding: 166 166 99
Width: 249
Flags: W
VStem: 52.5 144<-171.47 239 339 759.47>
LayerCount: 2
Fore
SplineSet
52.5 -171.469726562 m 1
 52.5 239 l 1
 196.5 239 l 1
 196.5 -171.469726562 l 1
 52.5 -171.469726562 l 1
52.5 339 m 1
 52.5 759.469726562 l 1
 196.5 759.469726562 l 1
 196.5 339 l 1
 52.5 339 l 1
EndSplineSet
EndChar

StartChar: section
Encoding: 167 167 100
Width: 593
Flags: W
HStem: -19.6709 131.891<159.562 328.205> 622.712 131.891<265.712 434.355>
VStem: 27.5918 151.358<357.239 440.092> 97.2422 165.481<557.095 614.803> 331.193 165.481<120.129 177.71> 414.967 151.358<296.729 379.173>
LayerCount: 2
Fore
SplineSet
173.922607422 540.153320312 m 1xe8
 238.731201172 459.951171875 l 1
 238.731201172 459.951171875 178.950195313 447.025574812 178.950195313 392.393554688 c 0
 178.950195313 360.415954956 201.946147424 342.003997846 322.473632812 322.629394531 c 0
 464.014282985 299.916611456 496.674560547 233.552177175 496.674560547 145.370117188 c 0
 496.674560547 42.560546875 411.666015625 -19.6708984375 272.009765625 -19.6708984375 c 0
 159.294921875 -19.6708984375 104.477294922 19.734375 104.477294922 19.734375 c 1
 145.10546875 140.325195312 l 1
 145.10546875 140.325195312 195.594482422 112.219726562 270.012451172 112.219726562 c 0
 312.21484375 112.219726562 331.193359375 125.032189651 331.193359375 145.693359375 c 0
 331.193359375 163.843948188 320.441449817 180.238440275 283.510742188 185.3046875 c 0
 81.2396138027 213.959675 27.591796875 272.764852473 27.591796875 367.309570312 c 0
 27.591796875 485.186309967 173.922607422 540.153320312 173.922607422 540.153320312 c 1xe8
424.994140625 199.778320312 m 1
 355.185546875 274.98046875 l 1
 355.185546875 274.98046875 414.966796875 287.994779897 414.966796875 344.422851563 c 0
 414.966796875 374.441396338 392.598491329 394.376914351 273.426269531 412.378417969 c 0
 130.21058198 434.020203861 97.2421875 501.417357144 97.2421875 589.561523438 c 0
 97.2421875 692.37109375 182.250732422 754.602539062 321.906982422 754.602539062 c 0
 434.621826172 754.602539062 489.439453125 715.197265625 489.439453125 715.197265625 c 1
 448.811279297 594.606445312 l 1
 448.811279297 594.606445312 398.322021484 622.711914062 323.904296875 622.711914062 c 0
 281.702072705 622.711914062 262.723632813 609.899450975 262.723632813 589.23828125 c 0
 262.723632813 571.37676524 273.921798093 554.696116649 308.666992188 550.2578125 c 0
 513.57169875 524.051513672 566.325195313 463.677334755 566.325195313 369.872070312 c 0xd4
 566.325195313 253.723933311 424.994140625 199.778320312 424.994140625 199.778320312 c 1
EndSplineSet
EndChar

StartChar: dieresis
Encoding: 168 168 101
Width: 459
Flags: W
HStem: 567.543 171.449<65.4629 183.536 275.463 393.536>
VStem: 39.3867 170.227<592.349 714.185> 249.387 170.227<592.349 714.185>
LayerCount: 2
Fore
SplineSet
249.38671875 653.267578125 m 0
 249.38671875 705.200932475 282.935818935 738.9921875 334.499023438 738.9921875 c 0
 386.063212665 738.9921875 419.61328125 705.200932475 419.61328125 653.267578125 c 0
 419.61328125 601.33328552 386.063212665 567.54296875 334.499023438 567.54296875 c 0
 282.935818935 567.54296875 249.38671875 601.33328552 249.38671875 653.267578125 c 0
39.38671875 653.267578125 m 0
 39.38671875 705.200932475 72.9358189356 738.9921875 124.499023438 738.9921875 c 0
 176.063212664 738.9921875 209.61328125 705.200932475 209.61328125 653.267578125 c 0
 209.61328125 601.33328552 176.063212664 567.54296875 124.499023438 567.54296875 c 0
 72.9358189356 567.54296875 39.38671875 601.33328552 39.38671875 653.267578125 c 0
EndSplineSet
EndChar

StartChar: copyright
Encoding: 169 169 102
Width: 797
Flags: W
HStem: -9.99805 114.857<281.647 516.13> 177.281 112.481<374.658 520.459> 439.36 112.481<374.658 503.175> 624.264 114.857<281.647 516.13>
VStem: 35 117.896<238.845 490.278> 225.707 130.674<307.746 421.377> 644.881 117.896<238.845 490.278>
LayerCount: 2
Fore
SplineSet
225.70703125 364.561523438 m 0
 225.70703125 477.88408452 290.754551043 551.841796875 415.901367188 551.841796875 c 0
 498.7421875 551.841796875 538.797851562 518.7265625 538.797851562 518.7265625 c 1
 508.134765625 413.599609375 l 1
 508.134765625 413.599609375 486.80859375 439.360351562 431.401367188 439.360351562 c 0
 376.796249407 439.360351562 356.380859375 409.415224647 356.380859375 364.561523438 c 0
 356.380859375 319.707822229 376.796249407 289.762695312 431.401367188 289.762695312 c 0
 491.26171875 289.762695312 516.965820312 312.828125 516.965820312 312.828125 c 1
 540.370117188 204.578125 l 1
 540.370117188 204.578125 498.182617188 177.28125 415.901367188 177.28125 c 0
 290.754551043 177.28125 225.70703125 251.238962356 225.70703125 364.561523438 c 0
152.896484375 364.561523438 m 0
 152.896484375 208.830297285 226.569907946 104.859375 398.888671875 104.859375 c 0
 571.207435803 104.859375 644.880859375 208.830297285 644.880859375 364.561523438 c 0
 644.880859375 520.292749591 571.207435803 624.263671875 398.888671875 624.263671875 c 0
 226.569907946 624.263671875 152.896484375 520.292749591 152.896484375 364.561523438 c 0
35 364.561523438 m 0
 35 591.206054688 172.688476562 739.12109375 398.888671875 739.12109375 c 0
 625.088867188 739.12109375 762.77734375 591.206054688 762.77734375 364.561523438 c 0
 762.77734375 137.916992188 625.088867188 -9.998046875 398.888671875 -9.998046875 c 0
 172.688476562 -9.998046875 35 137.916992188 35 364.561523438 c 0
EndSplineSet
EndChar

StartChar: registered
Encoding: 174 174 103
Width: 797
Flags: W
HStem: -9.99805 114.857<281.647 516.13> 310.752 83.9258<309.75 414.819> 461.326 86.9297<361 431.808> 624.264 114.857<281.647 516.13>
VStem: 35 117.896<238.845 490.278> 240.25 120.75<182.752 310.752 394.678 461.326> 309.75 51.25<310.752 394.678> 433.965 118.174<397.194 458.339> 644.881 117.896<238.845 490.278>
LayerCount: 2
Fore
SplineSet
309.75 394.677734375 m 1xfb80
 393.444335938 394.732421875 l 2
 416.642267039 394.747467437 433.96484375 400.630328102 433.96484375 427.533203125 c 0
 433.96484375 454.966423053 416.642268694 461.255887504 393.444335938 461.275390625 c 2
 361 461.326171875 l 1
 361 182.751953125 l 1
 240.25 182.751953125 l 1
 240.25 548.255859375 l 1xfd80
 411.194335938 548.255859375 l 2
 485.352050781 548.255859375 552.138671875 517.623829756 552.138671875 435.783203125 c 0
 552.138671875 363.319996983 492.09375 341.890625 492.09375 341.890625 c 1
 492.09375 341.890625 519.789330129 332.306412018 539.1015625 271.451171875 c 2
 567.25 182.751953125 l 1
 445 182.751953125 l 1
 422.5 265.251953125 l 2
 411.300689138 306.316092952 410.013387652 310.751953125 375.25 310.751953125 c 2
 309.75 310.751953125 l 1
 309.75 394.677734375 l 1xfb80
152.896484375 364.561523438 m 0
 152.896484375 208.830297285 226.569907946 104.859375 398.888671875 104.859375 c 0
 571.207435803 104.859375 644.880859375 208.830297285 644.880859375 364.561523438 c 0
 644.880859375 520.292749591 571.207435803 624.263671875 398.888671875 624.263671875 c 0
 226.569907946 624.263671875 152.896484375 520.292749591 152.896484375 364.561523438 c 0
35 364.561523438 m 0
 35 591.206054688 172.688476562 739.12109375 398.888671875 739.12109375 c 0
 625.088867188 739.12109375 762.77734375 591.206054688 762.77734375 364.561523438 c 0
 762.77734375 137.916992188 625.088867188 -9.998046875 398.888671875 -9.998046875 c 0
 172.688476562 -9.998046875 35 137.916992188 35 364.561523438 c 0
EndSplineSet
EndChar

StartChar: uni2117
Encoding: 8471 8471 104
Width: 797
Flags: W
HStem: -9.99805 114.857<281.647 516.13> 286.752 90.1758<312.694 452.807> 456.326 91.9297<366.694 452.039> 624.264 114.857<281.647 516.13>
VStem: 35 117.896<238.845 490.278> 245.944 120.75<182.752 286.752 376.928 456.326> 312.694 54<286.752 376.928> 458.409 118.674<382.501 450.343> 644.881 117.896<238.845 490.278>
LayerCount: 2
Fore
SplineSet
312.694335938 286.751953125 m 1xfb80
 312.694335938 376.927734375 l 1xfb80
 403.138671875 376.982421875 l 2
 434.780996954 376.999879067 458.409179688 384.004288059 458.409179688 416.033203125 c 0
 458.409179688 448.751268974 434.78098548 456.235383949 403.138671875 456.275390625 c 2
 366.694335938 456.326171875 l 1
 366.694335938 182.751953125 l 1
 245.944335938 182.751953125 l 1
 245.944335938 548.255859375 l 1xfd80
 434.638671875 548.255859375 l 2
 509.585541456 548.255859375 577.083007812 512.244978898 577.083007812 416.033203125 c 0
 577.083007812 321.475395761 507.716091426 286.751953125 431.638671875 286.751953125 c 2
 312.694335938 286.751953125 l 1xfb80
152.896484375 364.561523438 m 0
 152.896484375 208.830297285 226.569907946 104.859375 398.888671875 104.859375 c 0
 571.207435803 104.859375 644.880859375 208.830297285 644.880859375 364.561523438 c 0
 644.880859375 520.292749591 571.207435803 624.263671875 398.888671875 624.263671875 c 0
 226.569907946 624.263671875 152.896484375 520.292749591 152.896484375 364.561523438 c 0
35 364.561523438 m 0
 35 591.206054688 172.688476562 739.12109375 398.888671875 739.12109375 c 0
 625.088867188 739.12109375 762.77734375 591.206054688 762.77734375 364.561523438 c 0
 762.77734375 137.916992188 625.088867188 -9.998046875 398.888671875 -9.998046875 c 0
 172.688476562 -9.998046875 35 137.916992188 35 364.561523438 c 0
EndSplineSet
EndChar

StartChar: guillemotleft
Encoding: 171 171 105
Width: 590
Flags: W
LayerCount: 2
Fore
SplineSet
32.5 281 m 1
 172.5 441 l 1
 342.5 441 l 1
 189.25 254 l 1
 342.5 67 l 1
 172.5 67 l 1
 32.5 227 l 1
 32.5 281 l 1
282.5 281 m 1
 422.5 441 l 1
 592.5 441 l 1
 439.25 254 l 1
 592.5 67 l 1
 422.5 67 l 1
 282.5 227 l 1
 282.5 281 l 1
EndSplineSet
EndChar

StartChar: guillemotright
Encoding: 187 187 106
Width: 590
Flags: W
LayerCount: 2
Fore
SplineSet
557.5 227 m 1
 417.5 67 l 1
 247.5 67 l 1
 400.75 254 l 1
 247.5 441 l 1
 417.5 441 l 1
 557.5 281 l 1
 557.5 227 l 1
307.5 227 m 1
 167.5 67 l 1
 -2.5 67 l 1
 150.75 254 l 1
 -2.5 441 l 1
 167.5 441 l 1
 307.5 281 l 1
 307.5 227 l 1
EndSplineSet
EndChar

StartChar: mu
Encoding: 181 181 107
Width: 595
Flags: W
HStem: -9.92285 139.399<187.474 340.348> 0 21G<374.277 543.277> 481.011 20G<52.5 221.5 374.277 543.277>
VStem: 52.5 169<196.449 501.011> 92.5 129<56.9261 321.011> 374.277 169<207.449 501.011>
LayerCount: 2
Fore
SplineSet
52.5 -180 m 1x34
 52.5 501.010742188 l 1
 221.5 501.010742188 l 1x34
 221.5 -180 l 1x2c
 52.5 -180 l 1x34
374.27734375 217.010742188 m 9
 441.77734375 207.44921875 l 17
 419.633932548 57.0107421877 369.763675404 -9.9228515625 236.27734375 -9.9228515625 c 0
 138.67117763 -9.9228515625 92.5 56.9260601597 92.5 196.44921875 c 2
 92.5 321.010742188 l 1xac
 221.5 321.010742188 l 1
 221.5 213.44921875 l 2
 221.5 160.255332987 243.942499029 129.4765625 296.77734375 129.4765625 c 0xb4
 351.066546809 129.4765625 374.27734375 164.520563505 374.27734375 217.010742188 c 9
543.27734375 501.010742188 m 1
 543.27734375 0 l 1
 374.27734375 0 l 1x64
 374.27734375 501.010742188 l 1
 543.27734375 501.010742188 l 1
EndSplineSet
EndChar

StartChar: acute
Encoding: 180 180 108
Width: 242
Flags: W
HStem: 511 230.008
VStem: -1.5 245
LayerCount: 2
Fore
SplineSet
103.5 511 m 1
 -1.5 531 l 1
 87.5 741.0078125 l 1
 243.5 711.0078125 l 1
 103.5 511 l 1
EndSplineSet
EndChar

StartChar: macron
Encoding: 175 175 109
Width: 374
Flags: W
HStem: 605.008 126<25 349>
VStem: 25 324<605.008 731.008>
LayerCount: 2
Fore
SplineSet
349 605.0078125 m 1
 25 605.0078125 l 1
 25 731.0078125 l 1
 349 731.0078125 l 1
 349 605.0078125 l 1
EndSplineSet
EndChar

StartChar: uni00AD
Encoding: 173 173 110
Width: 354
Flags: W
HStem: 204.25 150.5<25 329>
VStem: 25 304<204.25 354.75>
LayerCount: 2
Fore
SplineSet
329 204.25 m 1
 25 204.25 l 1
 25 354.75 l 1
 329 354.75 l 1
 329 204.25 l 1
EndSplineSet
EndChar

StartChar: logicalnot
Encoding: 172 172 111
Width: 450
Flags: W
HStem: 291.25 133.5<30 286.25>
VStem: 286.25 137.5<165 291.25>
LayerCount: 2
Fore
SplineSet
423.75 165 m 1
 286.25 165 l 1
 286.25 291.25 l 1
 30 291.25 l 1
 30 424.75 l 1
 423.75 424.75 l 1
 423.75 165 l 1
EndSplineSet
EndChar

StartChar: minus
Encoding: 8722 8722 112
Width: 450
Flags: W
HStem: 291.25 133.5<30 420>
LayerCount: 2
Fore
SplineSet
420 291.25 m 1
 30 291.25 l 1
 30 424.75 l 1
 420 424.75 l 1
 420 291.25 l 1
EndSplineSet
EndChar

StartChar: notequal
Encoding: 8800 8800 113
Width: 450
Flags: W
HStem: 211.25 123.5<30 420> 381.25 123.5<30 420>
LayerCount: 2
Fore
SplineSet
45 108.530273438 m 1
 250 601.403320312 l 1
 399 601.403320312 l 1
 194 108.530273438 l 1
 45 108.530273438 l 1
EndSplineSet
Refer: 52 61 N 1 0 0 1 0 0 2
EndChar

StartChar: partialdiff
Encoding: 8706 8706 114
Width: 620
Flags: W
HStem: -9.99805 145.639<229.946 357.755> 338.141 132.459<241.784 370.297> 575.77 163.223<188.147 364.708>
VStem: 32.5 170.767<161.043 300.711> 395.267 192.398<202.696 464.984>
LayerCount: 2
Fore
SplineSet
395.266601562 246.890625 m 0
 395.266601562 299.631450688 370.28913762 338.140625 309.766601562 338.140625 c 0
 234.378753144 338.140625 203.266601562 291.191083716 203.266601562 226.890625 c 0
 203.266601562 174.149799312 228.536095571 135.640625 289.766601562 135.640625 c 0
 364.446455996 135.640625 395.266601562 182.590166284 395.266601562 246.890625 c 0
422.361328125 428.997070312 m 1
 417.464969993 524.159598419 374.108320593 575.76953125 288.38671875 575.76953125 c 0
 205.261245504 575.76953125 160.045898438 537.388671875 160.045898438 537.388671875 c 1
 100.741210938 688.860351562 l 1
 100.741210938 688.860351562 166.351827326 738.9921875 295.8671875 738.9921875 c 0
 483.441074602 738.9921875 587.665039062 612.671898034 587.665039062 385.331054688 c 0
 587.665039062 105.516837439 476.472991944 -9.998046875 288.8671875 -9.998046875 c 0
 129.879125354 -9.998046875 32.5 75.5176128099 32.5 229 c 0
 32.5 372.20164401 131.173643521 470.599609375 286.901367188 470.599609375 c 0
 389.46333586 470.599609375 422.361328125 428.997070312 422.361328125 428.997070312 c 1
EndSplineSet
EndChar

StartChar: emptyset
Encoding: 8709 8709 115
Width: 797
Flags: W
HStem: -9.99805 127.462<336.435 508.771> 611.659 127.462<289.006 469.412>
VStem: 35 129.849<243.714 485.409> 632.929 129.849<243.714 485.409>
LayerCount: 2
Fore
SplineSet
164.848632812 364.561523438 m 0
 164.848632812 216.388544894 234.942256331 117.463867188 398.888671875 117.463867188 c 0
 562.83508742 117.463867188 632.928710938 216.388544894 632.928710938 364.561523438 c 0
 632.928710938 512.73450198 562.83508742 611.659179688 398.888671875 611.659179688 c 0
 234.942256331 611.659179688 164.848632812 512.73450198 164.848632812 364.561523438 c 0
35 364.561523438 m 0
 35 591.206054688 172.688476562 739.12109375 398.888671875 739.12109375 c 0
 625.088867188 739.12109375 762.77734375 591.206054688 762.77734375 364.561523438 c 0
 762.77734375 137.916992188 625.088867188 -9.998046875 398.888671875 -9.998046875 c 0
 172.688476562 -9.998046875 35 137.916992188 35 364.561523438 c 0
99 -90.873046875 m 1
 564 812 l 1
 698 812 l 1
 233 -90.873046875 l 1
 99 -90.873046875 l 1
EndSplineSet
EndChar

StartChar: Delta
Encoding: 8710 8710 116
Width: 719
Flags: W
HStem: 0 165<220.25 498.75> 711.008 20G<252.101 457.246>
LayerCount: 2
Fore
SplineSet
686.5 0 m 1
 32.5 0 l 1
 32.5 155 l 1
 260 731.0078125 l 1
 449 731.0078125 l 1
 686.5 155 l 1
 686.5 0 l 1
498.75 165 m 1
 355.393554688 527.813476562 l 1
 220.25 165 l 1
 498.75 165 l 1
EndSplineSet
EndChar

StartChar: plusminus
Encoding: 177 177 117
Width: 450
Flags: W
HStem: 142.25 123.5<30 158.25 291.75 420> 166 99.75<158.25 291.75> 333.25 133.5<30 420>
VStem: 158.25 133.5<166 570>
LayerCount: 2
Fore
SplineSet
420 142.25 m 1xb0
 30 142.25 l 1
 30 265.75 l 1
 420 265.75 l 1
 420 142.25 l 1xb0
158.25 166 m 1x70
 158.25 570 l 1
 291.75 570 l 1
 291.75 166 l 1
 158.25 166 l 1x70
420 333.25 m 1
 30 333.25 l 1
 30 466.75 l 1
 420 466.75 l 1
 420 333.25 l 1
EndSplineSet
EndChar

StartChar: degree
Encoding: 176 176 118
Width: 431
Flags: W
HStem: 400.07 120.276<171.7 261.56> 640.538 120.464<171.71 261.57>
VStem: 28.75 131.912<530.746 630.362> 271.115 131.912<531.124 629.989>
LayerCount: 2
Fore
SplineSet
160.662109375 580.854492188 m 0
 160.662109375 544.571029866 176.872264462 520.346679688 214.786132812 520.346679688 c 0
 254.244896565 520.346679688 271.115234375 544.571029866 271.115234375 580.854492188 c 0
 271.115234375 616.643965815 254.281980189 640.538085938 214.909179688 640.538085938 c 0
 176.909347306 640.538085938 160.662109375 616.643965815 160.662109375 580.854492188 c 0
28.75 580.629882812 m 0
 28.75 689.772696384 99.1809025428 761.001953125 214.888671875 761.001953125 c 0
 331.839603889 761.001953125 403.02734375 689.772696384 403.02734375 580.629882812 c 0
 403.02734375 471.374251811 331.839603889 400.0703125 214.888671875 400.0703125 c 0
 99.1809025428 400.0703125 28.75 471.374251811 28.75 580.629882812 c 0
EndSplineSet
EndChar

StartChar: cedilla
Encoding: 184 184 120
Width: 317
VWidth: 999
Flags: W
HStem: -255 93<48.6557 171.226>
VStem: 173 114<-159.364 -100.663>
LayerCount: 2
Fore
SplineSet
287 -131 m 0
 287 -209.970703125 237.749023438 -255 146 -255 c 0
 84.1281148976 -255 28.5 -232 28.5 -232 c 1
 54 -141 l 1
 54 -141 83.103515625 -162 130 -162 c 0
 161.985799154 -162 173 -151.359216639 173 -129 c 0
 173 -110.407169117 159.379683645 -98.5 137.25 -98.5 c 0
 113.333349609 -98.5 105 -111 105 -111 c 1
 47 -92 l 1
 69 39 l 1
 162.25 39 l 1
 152.235351562 -24.853515625 l 1
 152.235351562 -24.853515625 160.122582911 -21 186.75 -21 c 0
 252.603679997 -21 287 -62.5234375 287 -131 c 0
EndSplineSet
EndChar

StartChar: paragraph
Encoding: 182 182 121
Width: 682
Flags: W
HStem: 589.992 141<405.889 483.389>
VStem: 27.5 378.389<393.837 589.068> 256.389 149.5<-179.994 284.637> 483.389 149.5<-179.994 589.992>
LayerCount: 2
Fore
SplineSet
405.888671875 -179.994140625 m 1xb0
 256.388671875 -179.994140625 l 1
 256.388671875 282.9921875 l 1xb0
 128.580980731 292.9921875 27.5 337.833007812 27.5 499.432617188 c 0xd0
 27.5 667.032226562 139.5 730.9921875 281.388671875 730.9921875 c 2
 632.888671875 730.9921875 l 1
 632.888671875 -179.994140625 l 1
 483.388671875 -179.994140625 l 1
 483.388671875 589.9921875 l 1
 405.888671875 589.9921875 l 1
 405.888671875 -179.994140625 l 1xb0
EndSplineSet
EndChar

StartChar: ordfeminine
Encoding: 170 170 122
Width: 402
Flags: W
HStem: 369.992 99<290.827 392.961> 369.992 91<100.5 219.581> 521.492 71.75<144.349 238> 635.992 103<70.5075 214.325>
VStem: 17.5 125<463.378 514.544> 226 127.5<473.688 486.992 574.742 623.187> 226 37<416.492 486.242> 226 12<521.492 593.242>
LayerCount: 2
Fore
SplineSet
226 501.2421875 m 1x79
 226 476.904978197 207.055555556 460.9921875 179.5 460.9921875 c 0
 153.329268292 460.9921875 142.5 471.830897177 142.5 488.9921875 c 0
 142.5 515.583096591 165.705607477 521.4921875 238 521.4921875 c 1
 238 593.2421875 l 1x79
 109.457399103 593.2421875 17.5 577.343882416 17.5 475.9921875 c 0
 17.5 411.9921875 63.5 369.9921875 137.5 369.9921875 c 0
 222.80078125 369.9921875 263 416.4921875 263 486.2421875 c 1x7a
 226 501.2421875 l 1x79
226 574.7421875 m 2xbc
 226 459.9921875 l 2xba
 226 398.9921875 258.154255319 369.9921875 323.5 369.9921875 c 0
 374.035211268 369.9921875 398.25 386.9921875 398.25 386.9921875 c 1
 392.25 472.9921875 l 1
 392.25 472.9921875 385.710526316 468.9921875 374.5 468.9921875 c 0
 359.5 468.9921875 353.5 473.687839674 353.5 486.9921875 c 2
 353.5 595.9921875 l 2
 353.5 682.197861259 304.296875 738.9921875 186 738.9921875 c 0
 101.517857143 738.9921875 43.5 705.9921875 43.5 705.9921875 c 1
 71.5 613.2421875 l 1
 71.5 613.2421875 109.568965518 635.9921875 163.5 635.9921875 c 0
 206.846774193 635.9921875 226 617.222026209 226 574.7421875 c 2xbc
EndSplineSet
EndChar

StartChar: ordmasculine
Encoding: 186 186 123
Width: 418
Flags: W
HStem: 367.992 113.5<161.594 256.725> 625.492 113.5<161.139 257.017>
VStem: 23 123<495.593 610.957> 272 123<495.593 610.957>
LayerCount: 2
Fore
SplineSet
146 554.9921875 m 0
 146 510.296241554 164.9 481.4921875 209 481.4921875 c 0
 254 481.4921875 272 510.296241554 272 554.9921875 c 0
 272 596.696412852 253.1 625.4921875 209 625.4921875 c 0
 164.9 625.4921875 146 596.696412852 146 554.9921875 c 0
23 555.9921875 m 0
 23 667.025895365 94 738.9921875 209 738.9921875 c 0
 325 738.9921875 395 667.025895365 395 555.9921875 c 0
 395 441.959400615 325 367.9921875 209 367.9921875 c 0
 94 367.9921875 23 441.959400615 23 555.9921875 c 0
EndSplineSet
EndChar

StartChar: arrowleft
Encoding: 8592 8592 124
Width: 550
Flags: W
HStem: 287.14 143<260.899 537.749> 297.14 123<142.249 419.099>
LayerCount: 2
Fore
SplineSet
537.749023438 287.139648438 m 1x80
 142.249023438 297.139648438 l 1
 142.249023438 420.139648438 l 1x40
 537.749023438 430.139648438 l 1
 537.749023438 287.139648438 l 1x80
167.561523438 358.638671875 m 1
 335.348632812 214.6171875 l 1
 234.510742188 113.779296875 l 1
 12.2509765625 358.638671875 l 1
 234.510742188 603.5 l 1
 335.348632812 502.66015625 l 1
 167.561523438 358.638671875 l 1
EndSplineSet
EndChar

StartChar: product
Encoding: 8719 8719 128
Width: 719
Flags: W
HStem: 576.258 154.75<231.5 487.5>
VStem: 52.5 179<-179.994 576.258> 487.5 179<-179.994 576.258>
LayerCount: 2
Fore
SplineSet
666.5 731.0078125 m 1
 666.5 -179.994140625 l 1
 487.5 -179.994140625 l 1
 487.5 576.2578125 l 1
 231.5 576.2578125 l 1
 231.5 -179.994140625 l 1
 52.5 -179.994140625 l 1
 52.5 731.0078125 l 1
 666.5 731.0078125 l 1
EndSplineSet
EndChar

StartChar: summation
Encoding: 8721 8721 129
Width: 634
Flags: W
HStem: -179.994 155<254.25 606.5> 576.008 155<274.25 606.5>
LayerCount: 2
Back
SplineSet
264 585.0078125 m 5
 394 410 l 5
 394 319 l 5
 244 146 l 5
 544 146 l 5
 544 0 l 5
 55 0 l 5
 55 161 l 5
 235 358 l 5
 55 589 l 5
 55 731.0078125 l 5
 544 731.0078125 l 5
 544 585.0078125 l 5
 264 585.0078125 l 5
EndSplineSet
Fore
SplineSet
274.25 576.0078125 m 1
 434.25 330 l 1
 434.25 239 l 1
 254.25 -24.994140625 l 1
 606.5 -24.994140625 l 1
 606.5 -179.994140625 l 1
 52.5 -179.994140625 l 1
 52.5 -9.994140625 l 1
 265 278 l 1
 52.5 580 l 1
 52.5 731.0078125 l 1
 606.5 731.0078125 l 1
 606.5 576.0078125 l 1
 274.25 576.0078125 l 1
EndSplineSet
EndChar

StartChar: approxequal
Encoding: 8776 8776 130
Width: 450
VWidth: 999
Flags: W
HStem: 172 140<237.931 357.792> 221 139<93.7445 211.717> 362 140<237.931 357.792> 411 139<93.7445 211.717>
LayerCount: 2
Fore
SplineSet
438 255 m 1x80
 438 255 386.065429688 172 306 172 c 0x80
 228.461914062 172 202.615234375 221 146 221 c 0
 109.927536232 221 80.5 188.25 80.5 188.25 c 1
 12 297.5 l 1
 12 297.5 69.3447265625 360 144 360 c 0x40
 219.949925232 360 251.799925233 312 303.25 312 c 0
 343.603846154 312 364.25 340.5 364.25 340.5 c 1
 438 255 l 1x80
438 445 m 1
 438 445 386.065429688 362 306 362 c 0x20
 228.461914062 362 202.615234375 411 146 411 c 0
 109.927536232 411 80.5 378.25 80.5 378.25 c 1
 12 487.5 l 1
 12 487.5 69.3447265625 550 144 550 c 0x10
 219.949925232 550 251.799925233 502 303.25 502 c 0x20
 343.603846154 502 364.25 530.5 364.25 530.5 c 1
 438 445 l 1
EndSplineSet
EndChar

StartChar: perthousand
Encoding: 8240 8240 131
Width: 1263
Flags: W
HStem: -9.99805 123.03<671.899 771.509 983.719 1083.33> 0 21G<188.5 334.675> 263.822 123.029<671.388 772.035 983.208 1083.86> 342.143 123.029<181.49 282.114> 615.962 123.03<180.976 282.65> 711.008 20G<621.325 767.5>
VStem: 32.5 132.91<481.416 600.567> 299.66 130.8<481.957 600.042> 523.5 131.91<129.275 248.427> 788.16 179.75<134.496 243.865> 844.75 65.46<80.081 298.011> 1100.66 130.8<129.816 247.901>
LayerCount: 2
Fore
SplineSet
967.91015625 188.981445312 m 0xa3d0
 967.91015625 134.49589344 997.529296877 113.032226562 1033.73046875 113.032226562 c 0
 1069.6442034 113.032226562 1100.66015625 134.49589344 1100.66015625 188.981445312 c 0
 1100.66015625 243.865209523 1069.6442034 263.822265625 1033.73046875 263.822265625 c 0
 997.529296877 263.822265625 967.91015625 243.865209523 967.91015625 188.981445312 c 0xa3d0
844.75 188.981445312 m 0xa3b0
 844.75 298.011332686 917.350634358 386.8515625 1043.73046875 386.8515625 c 0
 1169.35797727 386.8515625 1231.45996094 298.011332686 1231.45996094 188.981445312 c 0
 1231.45996094 80.0809814677 1169.35797727 -9.998046875 1043.73046875 -9.998046875 c 0
 917.350634358 -9.998046875 844.75 80.0809814677 844.75 188.981445312 c 0xa3b0
655.41015625 188.981445312 m 0
 655.41015625 134.495679677 685.028923278 113.032226562 721.23046875 113.032226562 c 0
 757.144141977 113.032226562 788.16015625 134.495679677 788.16015625 188.981445312 c 0xa3d0
 788.16015625 243.865095242 757.144141977 263.822265625 721.23046875 263.822265625 c 0
 685.028923278 263.822265625 655.41015625 243.865095242 655.41015625 188.981445312 c 0
523.5 188.981445312 m 0
 523.5 298.011769132 585.601981506 386.8515625 711.23046875 386.8515625 c 0
 837.609322045 386.8515625 910.209960938 298.011332686 910.209960938 188.981445312 c 0xa3b0
 910.209960938 80.0809814677 837.609322045 -9.998046875 711.23046875 -9.998046875 c 0
 585.601981506 -9.998046875 523.5 80.0806689567 523.5 188.981445312 c 0
165.41015625 541.122070312 m 0
 165.41015625 486.636288898 195.141421859 465.171875 231.48046875 465.171875 c 0
 268.064877091 465.171875 299.66015625 486.636288898 299.66015625 541.122070312 c 0
 299.66015625 596.004749629 268.064877091 615.961914062 231.48046875 615.961914062 c 0x1b90
 195.141421859 615.961914062 165.41015625 596.004749629 165.41015625 541.122070312 c 0
32.5 541.122070312 m 0
 32.5 650.152394132 105.100841027 738.9921875 231.48046875 738.9921875 c 0
 357.859096026 738.9921875 430.459960938 650.152394132 430.459960938 541.122070312 c 0
 430.459960938 432.221293956 357.859096026 342.142578125 231.48046875 342.142578125 c 0
 105.100841027 342.142578125 32.5 432.221293956 32.5 541.122070312 c 0
EndSplineSet
Refer: 138 8260 N 1 0 0 1 301 0 2
EndChar

StartChar: uni2031
Encoding: 8241 8241 132
Width: 1573
Flags: W
HStem: -9.99805 123.03<671.899 771.509 983.167 1082.06 1293.72 1393.33> 0 21G<188.5 334.675> 263.822 123.029<671.388 772.035 982.656 1082.59 1293.21 1393.86> 342.143 123.029<181.49 282.114> 615.962 123.03<180.976 282.65> 711.008 20G<621.325 767.5>
VStem: 32.5 132.91<481.416 600.567> 299.66 130.8<481.957 600.042> 523.5 131.91<129.275 248.427> 788.16 178.5<134.496 243.865> 846 64.21<80.081 298.011> 1099.41 178.5<134.496 243.865> 1154.75 64.21<80.081 298.011> 1410.66 130.8<129.816 247.901>
LayerCount: 2
Fore
SplineSet
1277.91015625 188.981445312 m 0xa394
 1277.91015625 134.49589344 1307.52929688 113.032226562 1343.73046875 113.032226562 c 0
 1379.6442034 113.032226562 1410.66015625 134.49589344 1410.66015625 188.981445312 c 0
 1410.66015625 243.865209523 1379.6442034 263.822265625 1343.73046875 263.822265625 c 0
 1307.52929688 263.822265625 1277.91015625 243.865209523 1277.91015625 188.981445312 c 0xa394
1154.75 188.981445312 m 0xa38c
 1154.75 298.011332686 1227.35063436 386.8515625 1353.73046875 386.8515625 c 0
 1479.35797727 386.8515625 1541.45996094 298.011332686 1541.45996094 188.981445312 c 0
 1541.45996094 80.0809814677 1479.35797727 -9.998046875 1353.73046875 -9.998046875 c 0
 1227.35063436 -9.998046875 1154.75 80.0809814677 1154.75 188.981445312 c 0xa38c
966.66015625 188.981445312 m 0xa3d4
 966.66015625 134.49589344 996.279296875 113.032226562 1032.48046875 113.032226562 c 0
 1068.3942034 113.032226562 1099.41015625 134.49589344 1099.41015625 188.981445312 c 0
 1099.41015625 243.865209523 1068.3942034 263.822265625 1032.48046875 263.822265625 c 0
 996.279296875 263.822265625 966.66015625 243.865209523 966.66015625 188.981445312 c 0xa3d4
846 188.981445312 m 0xa3ac
 846 298.011332686 907.688476562 386.8515625 1032.48046875 386.8515625 c 0
 1157.27148438 386.8515625 1218.95996094 298.011332686 1218.95996094 188.981445312 c 0
 1218.95996094 80.0809814677 1157.27148438 -9.998046875 1032.48046875 -9.998046875 c 0
 907.688476562 -9.998046875 846 80.0809814677 846 188.981445312 c 0xa3ac
655.41015625 188.981445312 m 0
 655.41015625 134.495679677 685.028923278 113.032226562 721.23046875 113.032226562 c 0
 757.144141977 113.032226562 788.16015625 134.495679677 788.16015625 188.981445312 c 0xa3c4
 788.16015625 243.865095242 757.144141977 263.822265625 721.23046875 263.822265625 c 0
 685.028923278 263.822265625 655.41015625 243.865095242 655.41015625 188.981445312 c 0
523.5 188.981445312 m 0
 523.5 298.011769132 585.601981506 386.8515625 711.23046875 386.8515625 c 0
 837.609322045 386.8515625 910.209960938 298.011332686 910.209960938 188.981445312 c 0xa3a4
 910.209960938 80.0809814677 837.609322045 -9.998046875 711.23046875 -9.998046875 c 0
 585.601981506 -9.998046875 523.5 80.0806689567 523.5 188.981445312 c 0
165.41015625 541.122070312 m 0
 165.41015625 486.636288898 195.141421859 465.171875 231.48046875 465.171875 c 0
 268.064877091 465.171875 299.66015625 486.636288898 299.66015625 541.122070312 c 0
 299.66015625 596.004749629 268.064877091 615.961914062 231.48046875 615.961914062 c 0x1b84
 195.141421859 615.961914062 165.41015625 596.004749629 165.41015625 541.122070312 c 0
32.5 541.122070312 m 0
 32.5 650.152394132 105.100841027 738.9921875 231.48046875 738.9921875 c 0
 357.859096026 738.9921875 430.459960938 650.152394132 430.459960938 541.122070312 c 0
 430.459960938 432.221293956 357.859096026 342.142578125 231.48046875 342.142578125 c 0
 105.100841027 342.142578125 32.5 432.221293956 32.5 541.122070312 c 0
EndSplineSet
Refer: 138 8260 N 1 0 0 1 301 0 2
EndChar

StartChar: uni203D
Encoding: 8253 8253 133
Width: 566
Flags: W
HStem: -10 196.449<173.738 302.261> 288.992 128.057<212.052 334.826> 584.479 154.514<102.523 368.656>
VStem: 140.387 195.227<23.5608 152.888> 160 158<605.672 791.008> 212.423 84.5771<292.5 420.336> 360.596 173.774<441.072 551.621>
LayerCount: 2
Fore
SplineSet
181 235 m 1xe6
 160 791.0078125 l 1
 318 791.0078125 l 1xea
 297 235 l 1
 181 235 l 1xe6
140.38671875 88.224609375 m 0xf2
 140.38671875 147.730230558 178.863474946 186.44921875 237.999023438 186.44921875 c 0
 297.135537333 186.44921875 335.61328125 147.730230558 335.61328125 88.224609375 c 0
 335.61328125 28.7179592526 297.135537333 -10 237.999023438 -10 c 0
 178.863474946 -10 140.38671875 28.7179592526 140.38671875 88.224609375 c 0xf2
212.422851562 292.5 m 1xe6
 211.65625 421.46875 l 1
 211.65625 421.46875 234.37498499 417.048828125 262.8984375 417.048828125 c 0
 328.978315147 417.048828125 360.595703125 445.360423074 360.595703125 498.145507812 c 0
 360.595703125 558.020599932 309.961944145 584.478515625 226.14453125 584.478515625 c 0
 140.443984599 584.478515625 67.923828125 548.958007812 67.923828125 548.958007812 c 1
 20.2412109375 697.811523438 l 1
 20.2412109375 697.811523438 101.0703125 738.9921875 229.89453125 738.9921875 c 0
 412.510169786 738.9921875 534.370117188 667.168074176 534.370117188 500.010742188 c 0
 534.370117188 366.767048455 436.666384779 288.9921875 285.5 288.9921875 c 0
 224.0071432 288.9921875 212.422851562 292.5 212.422851562 292.5 c 1xe6
EndSplineSet
EndChar

StartChar: lira
Encoding: 8356 8356 134
Width: 553
Flags: W
HStem: 0 154<225.319 523> 215 86<42.5 424> 345 86<42.5 424> 583.871 155.591<259.467 458.185>
VStem: 49.6016 187.729<453.289 560.956>
LayerCount: 2
Fore
SplineSet
523 0 m 1
 25 0 l 1
 25 130 l 1
 25 130 129.32421875 205.513671875 129.32421875 314.379882812 c 0
 129.32421875 406.676903587 49.6015625 430.67893641 49.6015625 547.185546875 c 0
 49.6015625 671.398535433 153.975934533 739.461914062 302.80859375 739.461914062 c 0
 446.858997623 739.461914062 511.20703125 703.405273438 511.20703125 703.405273438 c 1
 479.9375 552.274414062 l 1
 479.9375 552.274414062 426.761470853 583.87109375 341.05859375 583.87109375 c 0
 279.774042356 583.87109375 237.330078125 567.247545987 237.330078125 513.524414062 c 0
 237.330078125 456.10898488 290.731445312 417.907110894 290.731445312 327.658203125 c 0
 290.731445312 220.051539765 225.319335938 154 225.319335938 154 c 1
 523 154 l 1
 523 0 l 1
424 215 m 1
 42.5 215 l 1
 42.5 301 l 1
 424 301 l 1
 424 215 l 1
424 345 m 1
 42.5 345 l 1
 42.5 431 l 1
 424 431 l 1
 424 345 l 1
EndSplineSet
EndChar

StartChar: uni20B5
Encoding: 8373 8373 135
Width: 623
Flags: W
HStem: -9.99805 79.4678<300 449> 655 84.1211<300 449>
VStem: 32.5 184.849<252.573 476.55> 300 149<-105 69.4697 655 829.47>
LayerCount: 2
Fore
SplineSet
32.5 364.561523438 m 0
 32.5 591.206054688 160.498365127 739.12109375 385.888671875 739.12109375 c 0
 537.397841668 739.12109375 599.681640625 672.891601562 599.681640625 672.891601562 c 1
 535.85546875 525.138671875 l 1
 535.85546875 525.138671875 492.762571719 576.659179688 405.388671875 576.659179688 c 0
 273.665914684 576.659179688 217.348632812 491.746628895 217.348632812 364.561523438 c 0
 217.348632812 237.376417979 273.665914684 152.463867188 405.388671875 152.463867188 c 0
 502.228212489 152.463867188 553.518554688 198.595703125 553.518554688 198.595703125 c 1
 602.827148438 44.595703125 l 1
 602.827148438 44.595703125 536.561329272 -9.998046875 385.888671875 -9.998046875 c 0
 160.498365127 -9.998046875 32.5 137.916992188 32.5 364.561523438 c 0
300 -105 m 1
 300 69.4697265625 l 1
 449 69.4697265625 l 1
 449 -105 l 1
 300 -105 l 1
300 655 m 1
 300 829.469726562 l 1
 449 829.469726562 l 1
 449 655 l 1
 300 655 l 1
EndSplineSet
EndChar

StartChar: uni20B2
Encoding: 8370 8370 136
Width: 739
Flags: W
HStem: -9.99805 79.4678<300 449> 283.25 145.75<361 476.519 639.327 716.5> 283.25 16.3457<476.519 639.327> 655 84.1211<300 449>
VStem: 32.5 184.849<237.092 483.517> 300 149<-105 69.4697 655 829.47> 490.231 162.501<185.963 282.654>
LayerCount: 2
Fore
SplineSet
300 -105 m 1x9e
 300 69.4697265625 l 1
 449 69.4697265625 l 1
 449 -105 l 1
 300 -105 l 1x9e
300 655 m 1
 300 829.469726562 l 1
 449 829.469726562 l 1
 449 655 l 1
 300 655 l 1
716.5 283.25 m 1xde
 361 283.25 l 1
 361 429 l 1
 716.5 429 l 1
 716.5 283.25 l 1xde
32.5 364.561523438 m 0
 32.5 591.206054688 163.566813054 739.12109375 378.888671875 739.12109375 c 0
 537.129961615 739.12109375 602.181640625 672.891601562 602.181640625 672.891601562 c 1
 536.10546875 525.888671875 l 1
 536.10546875 525.888671875 487.480104232 577.409179688 388.888671875 577.409179688 c 0
 268.723871701 577.409179688 217.348632812 492.196369033 217.348632812 364.561523438 c 0
 217.348632812 237.376417979 258.226095646 152.463867188 369.888671875 152.463867188 c 0
 455.835396851 152.463867188 490.231445312 190.264274599 490.231445312 247 c 0
 490.231445312 283.78559257 476.518554688 299.595703125 476.518554688 299.595703125 c 1
 639.327148438 299.595703125 l 1xbe
 639.327148438 299.595703125 652.732421875 275.24972273 652.732421875 217 c 0
 652.732421875 85.8642486282 561.703354796 -9.998046875 369.888671875 -9.998046875 c 0
 154.98879452 -9.998046875 32.5 137.916992188 32.5 364.561523438 c 0
EndSplineSet
EndChar

StartChar: uni20BA
Encoding: 8378 8378 137
Width: 648
Flags: W
HStem: 0 154.75<271.5 381.119> 711.008 20G<92.5 271.5>
VStem: 92.5 179<154.75 731.008>
LayerCount: 2
Fore
SplineSet
414 356.25 m 1
 27.5 243.75 l 1
 27.5 329.75 l 1
 414 442.25 l 1
 414 356.25 l 1
414 486.25 m 1
 27.5 373.75 l 1
 27.5 459.75 l 1
 414 572.25 l 1
 414 486.25 l 1
271.5 154.75 m 1
 300 154.75 l 2
 461.168478261 154.75 464.75 321.25 464.75 321.25 c 1
 625.25 295.5 l 1
 625.25 295.5 616.378696526 -3.72965547335e-14 300 0 c 2
 92.5 0 l 1
 92.5 731.0078125 l 1
 271.5 731.0078125 l 1
 271.5 154.75 l 1
EndSplineSet
EndChar

StartChar: fraction
Encoding: 8260 8260 138
Width: 304
Flags: W
HStem: 0 21G<-112.5 33.675> 711.008 20G<320.325 466.5>
LayerCount: 2
Fore
SplineSet
-112.5 0 m 1
 332.5 731.0078125 l 1
 466.5 731.0078125 l 1
 21.5 0 l 1
 -112.5 0 l 1
EndSplineSet
EndChar

StartChar: endash
Encoding: 8211 8211 139
Width: 570
Flags: W
HStem: 204.25 150.5<27.5 542.5>
LayerCount: 2
Fore
SplineSet
27.5 204.25 m 1
 27.5 354.75 l 1
 542.5 354.75 l 1
 542.5 204.25 l 1
 27.5 204.25 l 1
EndSplineSet
EndChar

StartChar: emdash
Encoding: 8212 8212 140
Width: 820
Flags: W
HStem: 204.25 150.5<32.5 787.5>
LayerCount: 2
Fore
SplineSet
32.5 204.25 m 1
 32.5 354.75 l 1
 787.5 354.75 l 1
 787.5 204.25 l 1
 32.5 204.25 l 1
EndSplineSet
EndChar

StartChar: Euro
Encoding: 8364 8364 141
Width: 683
Flags: W
HStem: -9.99805 162.462<366.152 572.402> 260 86<27.5 459.957> 390 86<27.5 482.879> 576.659 162.462<371.489 553.945>
LayerCount: 2
Fore
SplineSet
459.95703125 260 m 1
 27.5 260 l 1
 27.5 346 l 1
 475.12109375 346 l 1
 459.95703125 260 l 1
482.87890625 390 m 1
 27.5 390 l 1
 27.5 476 l 1
 498.04296875 476 l 1
 482.87890625 390 l 1
92.5 364.561523438 m 0
 92.5 591.206054688 220.498279825 739.12109375 445.888671875 739.12109375 c 0
 597.397460938 739.12109375 659.681640625 672.891601562 659.681640625 672.891601562 c 1
 595.85546875 525.138671875 l 1
 595.85546875 525.138671875 552.762134568 576.659179688 465.388671875 576.659179688 c 0
 333.665612839 576.659179688 277.348632812 491.746628895 277.348632812 364.561523438 c 0
 277.348632812 237.376417979 332.916876289 152.463867188 462.888671875 152.463867188 c 0
 561.36235473 152.463867188 613.518554688 198.595703125 613.518554688 198.595703125 c 1
 662.827148438 44.595703125 l 1
 662.827148438 44.595703125 596.561523438 -9.998046875 445.888671875 -9.998046875 c 0
 220.498279825 -9.998046875 92.5 137.916992188 92.5 364.561523438 c 0
EndSplineSet
EndChar

StartChar: uni20AD
Encoding: 8365 8365 142
Width: 665
Flags: W
HStem: 0 21G<93.5 272.5 433.445 657.5> 292.5 126<32.5 616.5> 711.008 20G<93.5 272.5 431.379 647.5>
VStem: 93.5 179<0 311 401 731.008> 243.5 29<311 401>
LayerCount: 2
Fore
SplineSet
616.5 292.5 m 1xe0
 32.5 292.5 l 1
 32.5 418.5 l 1
 616.5 418.5 l 1
 616.5 292.5 l 1xe0
446.5 0 m 1
 243.5 311 l 1
 243.5 401 l 1xe8
 443.5 731.0078125 l 1
 647.5 731.0078125 l 1
 403.5 372 l 1
 657.5 0 l 1
 446.5 0 l 1
93.5 0 m 1xf0
 93.5 731.0078125 l 1
 272.5 731.0078125 l 1
 272.5 0 l 1
 93.5 0 l 1xf0
EndSplineSet
EndChar

StartChar: uni20B9
Encoding: 8377 8377 143
Width: 574
Flags: W
HStem: 0 21G<319.045 507.5> 252 147.602<27.5 247.353> 450 86<27.5 546.5> 576.149 154.858<27.5 259.042>
VStem: 288.429 179.849<398.827 614.371>
LayerCount: 2
Fore
SplineSet
144 252 m 2
 27.5 252 l 1
 27.5 399.6015625 l 1
 166.888671875 399.711914062 l 2
 236.288782448 399.766007823 288.428710938 415.418241332 288.428710938 487.061523438 c 0
 288.428710938 559.407986736 236.310123076 575.996283881 167.888671875 576.045898438 c 2
 27.5 576.149414062 l 1
 27.5 731.0078125 l 1
 183.888671875 731.0078125 l 2
 333.313562258 731.0078125 468.27734375 669.334960938 468.27734375 504.561523438 c 0
 468.27734375 371.325734629 360.688476562 331.276367188 360.688476562 331.276367188 c 1
 360.688476562 331.276367188 417.439075488 312.582719169 452.681152344 190.264648437 c 2
 507.5 0 l 1
 324.5 0 l 1
 279.5 165 l 2
 257.90490175 244.182026919 236.559859155 252 144 252 c 2
546.5 450 m 1
 27.5 450 l 1
 27.5 536 l 1
 546.5 536 l 1
 546.5 450 l 1
EndSplineSet
EndChar

StartChar: uni20B4
Encoding: 8372 8372 144
Width: 677
Flags: W
HStem: -10 151.212<262.223 486.828> 255 86<27.5 649.5> 385 86<311.522 649.5> 586.909 152.212<184.812 386.435>
VStem: 65 174.432<163.3 250.813> 408.831 180.562<477.674 565.134>
LayerCount: 2
Fore
SplineSet
649.5 255 m 1
 27.5 255 l 1
 27.5 341 l 1
 649.5 341 l 1
 649.5 255 l 1
649.5 385 m 1
 27.5 385 l 1
 27.5 471 l 1
 649.5 471 l 1
 649.5 385 l 1
335.034912109 281.51171875 m 0
 256.757030528 260.188889609 239.431640625 240.88242695 239.431640625 206.5 c 0
 239.431640625 163.421125614 275.359078528 141.211914062 350.823242188 141.211914062 c 0
 464.130831913 141.211914062 556.546875 189.482421875 556.546875 189.482421875 c 1
 593.703125 42.2294921875 l 1
 593.703125 42.2294921875 496.331054688 -10 342.71484375 -10 c 0
 161.688044827 -10 65 75.8560703037 65 213.75 c 0
 65 331.15278427 120.781606032 399.029859305 311.522460938 444.331054688 c 0
 388.653525435 462.779765977 408.831054688 487.598764721 408.831054688 520.5 c 0
 408.831054688 561.489991229 376.516170171 586.909179688 304.65625 586.909179688 c 0
 205.155019167 586.909179688 137.6484375 544.388671875 137.6484375 544.388671875 c 1
 95.2744140625 688.891601562 l 1
 95.2744140625 688.891601562 167.916632634 739.12109375 317.286132812 739.12109375 c 0
 486.432956388 739.12109375 589.392578125 651.723529751 589.392578125 516 c 0
 589.392578125 399.395438077 527.819335938 334.083740235 335.034912109 281.51171875 c 0
EndSplineSet
EndChar

StartChar: colonmonetary
Encoding: 8353 8353 145
Width: 623
Flags: W
HStem: -9.99805 79.4678<160.878 262.378 323.378 424.878> 576.659 162.462<271.034 425.613> 655 84.1211<264.122 365.622 426.622 528.122>
VStem: 32.5 184.849<252.573 476.55>
LayerCount: 2
Fore
SplineSet
292.614257812 -105 m 1x90
 323.377929688 69.4697265625 l 1
 424.877929688 69.4697265625 l 1
 394.114257812 -105 l 1
 292.614257812 -105 l 1x90
426.622070312 655 m 1xb0
 457.385742188 829.469726562 l 1
 558.885742188 829.469726562 l 1
 528.122070312 655 l 1
 426.622070312 655 l 1xb0
32.5 364.561523438 m 0
 32.5 591.206054688 160.498365127 739.12109375 385.888671875 739.12109375 c 0
 537.397841668 739.12109375 599.681640625 672.891601562 599.681640625 672.891601562 c 1
 535.85546875 525.138671875 l 1
 535.85546875 525.138671875 492.762571719 576.659179688 405.388671875 576.659179688 c 0xd0
 273.665914684 576.659179688 217.348632812 491.746628895 217.348632812 364.561523438 c 0
 217.348632812 237.376417979 272.917174122 152.463867188 402.888671875 152.463867188 c 0
 501.36258124 152.463867188 553.518554688 198.595703125 553.518554688 198.595703125 c 1
 602.827148438 44.595703125 l 1
 602.827148438 44.595703125 536.561329272 -9.998046875 385.888671875 -9.998046875 c 0
 160.498365127 -9.998046875 32.5 137.916992188 32.5 364.561523438 c 0
130.114257812 -105 m 1
 160.877929688 69.4697265625 l 1
 262.377929688 69.4697265625 l 1
 231.614257812 -105 l 1
 130.114257812 -105 l 1
264.122070312 655 m 1xb0
 294.885742188 829.469726562 l 1
 396.385742188 829.469726562 l 1
 365.622070312 655 l 1
 264.122070312 655 l 1xb0
EndSplineSet
EndChar

StartChar: zero.inferior
Encoding: 8320 8320 148
Width: 455
Flags: W
HStem: -358 112.812<172.788 282.865> 30.1875 112.812<172.788 282.865>
VStem: 16.875 120.812<-206.564 -9.11631> 316.438 120.812<-206.564 -9.11631>
LayerCount: 2
Fore
SplineSet
137.6875 -108 m 0
 137.6875 -191 165.375 -245.1875 228 -245.1875 c 0
 290.625 -245.1875 316.4375 -191 316.4375 -108 c 0
 316.4375 -25 290.625 30.1875 228 30.1875 c 0
 165.375 30.1875 137.6875 -25 137.6875 -108 c 0
16.875 -108 m 0
 16.875 44 90.0625 143 228 143 c 0
 365.9375 143 437.25 44 437.25 -108 c 0
 437.25 -260 365.9375 -358 228 -358 c 0
 90.0625 -358 16.875 -260 16.875 -108 c 0
EndSplineSet
EndChar

StartChar: one.inferior
Encoding: 8321 8321 149
Width: 277
Flags: W
VStem: 122.312 124.812<-350 12.375>
LayerCount: 2
Fore
SplineSet
247.125 137 m 1
 247.125 -350 l 1
 122.3125 -350 l 1
 122.3125 12.375 l 1
 34.75 -33.75 l 1
 1.3125 57 l 1
 133.3125 137 l 1
 247.125 137 l 1
EndSplineSet
EndChar

StartChar: two.inferior
Encoding: 8322 8322 150
Width: 404
Flags: W
HStem: -350 107.5<158.75 390.25> 32.5 110.5<97.6024 254.114>
VStem: 262.438 122.812<-60.9632 22.2915>
LayerCount: 2
Fore
SplineSet
262.4375 -20.375 m 0
 262.4375 14.4375 243.1875 32.5 187.5625 32.5 c 0
 119.8125 32.5 73.375 -3.5 73.375 -3.5 c 1
 39.375 101 l 1
 39.375 101 100.25 143 191 143 c 0
 312.5 143 385.25 92 385.25 -9 c 0
 385.25 -104.0625 339.187661785 -144.733275196 233 -194.125 c 0
 161.369245835 -227.225195716 159.5625 -238.3125 158.75 -242.5 c 1
 390.25 -242.5 l 1
 390.25 -350 l 1
 28.9375 -350 l 1
 28.9375 -314 l 2
 28.9375 -205.8125 93.8125 -145.0625 208.5625 -82.1875 c 0
 257.3125 -56.75 262.4375 -38.25 262.4375 -20.375 c 0
EndSplineSet
EndChar

StartChar: three.inferior
Encoding: 8323 8323 151
Width: 389
Flags: W
HStem: -358 108.938<66.1577 233.397> -149.938 95.875<112.875 224.598> 31.0625 111.938<61.111 223.112>
VStem: 230.688 130<-45.9198 22.3252> 244.875 127.25<-234.594 -162.645>
LayerCount: 2
Fore
SplineSet
156.625 -54.0625 m 2xe8
 213 -54.0625 230.6875 -39.25 230.6875 -11.0625 c 0
 230.6875 12.125 215.875 31.0625 163.5625 31.0625 c 0
 94.6875 31.0625 52.25 4.8125 52.25 4.8125 c 1
 22.8125 108.875 l 1
 22.8125 108.875 76.6875 143 169 143 c 0
 287.5 143 360.6875 95 360.6875 5 c 0xf0
 360.6875 -76 289.125 -100 289.125 -100 c 1
 289.125 -100 372.125 -123 372.125 -214 c 0
 372.125 -317 290.5 -358 168 -358 c 0
 66.8125 -358 6.9375 -323 6.9375 -323 c 1
 44.75 -215.5 l 1
 44.75 -215.5 90.3125 -249.0625 161 -249.0625 c 0
 218.625 -249.0625 244.875 -230.6875 244.875 -198.0625 c 0
 244.875 -165.3125 216.1875 -149.9375 158.0625 -149.9375 c 2
 112.875 -149.9375 l 1
 112.875 -54.0625 l 1
 156.625 -54.0625 l 2xe8
EndSplineSet
EndChar

StartChar: four.inferior
Encoding: 8324 8324 152
Width: 439
Flags: W
HStem: -244.375 99.75<144.375 424.688>
VStem: 234.438 120.812<-350 -32>
LayerCount: 2
Fore
SplineSet
355.25 137 m 1
 355.25 -350 l 1
 234.4375 -350 l 1
 234.4375 -32 l 1
 144.375 -144.625 l 1
 424.6875 -144.625 l 1
 424.6875 -244.375 l 1
 34.3125 -244.375 l 1
 13.4375 -160.6875 l 1
 235 137 l 1
 355.25 137 l 1
EndSplineSet
EndChar

StartChar: five.inferior
Encoding: 8325 8325 153
Width: 385
Flags: W
HStem: -357 109.062<54.3481 230.356> -123.438 94.4375<140.947 231.509> 32.375 104.625<145.25 343.438>
VStem: 245.375 122.375<-231.708 -136.642>
LayerCount: 2
Fore
SplineSet
173.1875 -357 m 0
 67.75 -357 3.875 -323 3.875 -323 c 1
 34.625 -216.8125 l 1
 34.625 -216.8125 89.3125 -247.9375 161.4375 -247.9375 c 0
 222 -247.9375 245.375 -224.875 245.375 -187.4375 c 0
 245.375 -148.25 223.5625 -123.4375 177.0625 -123.4375 c 0
 127.5625 -123.4375 110.875 -149.1875 110.875 -149.1875 c 1
 25.375 -130.625 l 1
 42.4375 137 l 1
 343.4375 137 l 1
 343.4375 32.375 l 1
 145.25 32.375 l 1
 139.4375 -52 l 1
 139.4375 -52 159 -29 221.6875 -29 c 0
 316.0625 -29 367.75 -87 367.75 -182.125 c 0
 367.75 -290.5625 301.75 -357 173.1875 -357 c 0
EndSplineSet
EndChar

StartChar: six.inferior
Encoding: 8326 8326 154
Width: 427
Flags: W
HStem: -358 101.75<163.296 277.949> -128.75 91<161.211 279.187> 37.8125 105.188<174.756 350.397>
VStem: 16.875 130.812<-240.367 -47.8102> 292.875 116.812<-242.035 -142.742>
LayerCount: 2
Fore
SplineSet
147.6875 -192 m 0
 147.6875 -229.1875 168.9375 -256.25 219.5625 -256.25 c 0
 271.625 -256.25 292.875 -229.1875 292.875 -192 c 0
 292.875 -154.8125 271.625 -128.75 219.5625 -128.75 c 0
 168.9375 -128.75 147.6875 -154.8125 147.6875 -192 c 0
134.6875 -66.9375 m 1
 134.6875 -66.9375 159.8125 -37.75 242.9375 -37.75 c 0
 345.25 -37.75 409.6875 -99.875 409.6875 -191 c 0
 409.6875 -298 337.5 -358 221 -358 c 0
 93.5 -358 16.875 -285 16.875 -107 c 0
 16.875 54 98.9375 143 245.625 143 c 0
 346.8125 143 398.125 102 398.125 102 c 1
 354 5.8125 l 1
 354 5.8125 316.4375 37.8125 250.1875 37.8125 c 0
 176.375 37.8125 138.25 1.1875 134.6875 -66.9375 c 1
EndSplineSet
EndChar

StartChar: seven.inferior
Encoding: 8327 8327 155
Width: 402
Flags: W
HStem: 29.5 107.5<21.3125 236.062>
VStem: 100.312 124.375<-350 -213.664>
LayerCount: 2
Fore
SplineSet
224.6875 -350 m 1
 100.3125 -350 l 1
 106.875 -140.6875 236.0625 29.5 236.0625 29.5 c 1
 21.3125 29.5 l 1
 21.3125 137 l 1
 381.6875 137 l 1
 381.6875 67 l 1
 381.6875 67 226.6875 -113 224.6875 -350 c 1
EndSplineSet
EndChar

StartChar: eight.inferior
Encoding: 8328 8328 156
Width: 433
Flags: W
HStem: -358 100.188<151.63 283.203> -143.812 95.625<181.938 257.75> -111 43.0625<104.5 334.75> 41.8125 101.188<164.322 272.774>
VStem: 16.875 119.812<-241.472 -159.872> 41.3125 115.375<-38.4412 31.8934> 280.25 115.375<-38.7603 31.8934> 297.25 119.812<-243.826 -157.68>
LayerCount: 2
Fore
SplineSet
218.125 -48.1875 m 0xd6
 257.75 -48.1875 280.25 -30.8125 280.25 -3.1875 c 0
 280.25 25.4375 258.75 41.8125 218.125 41.8125 c 0
 179.5 41.8125 156.6875 25.4375 156.6875 -3.1875 c 0
 156.6875 -30.8125 181.9375 -48.1875 218.125 -48.1875 c 0xd6
218.125 143 m 0
 329.75 143 395.625 93 395.625 12 c 0
 395.625 -68 334.75 -111 218.125 -111 c 0xb6
 104.5 -111 41.3125 -68 41.3125 12 c 0
 41.3125 93 108.5 143 218.125 143 c 0
217.6875 -257.8125 m 0
 270.3125 -257.8125 297.25 -237.4375 297.25 -199.8125 c 0
 297.25 -164.75 270.3125 -143.8125 217.6875 -143.8125 c 0
 165.0625 -143.8125 136.6875 -164.75 136.6875 -199.8125 c 0xd9
 136.6875 -237.4375 165.0625 -257.8125 217.6875 -257.8125 c 0
217.6875 -67.9375 m 0xb9
 346.75 -67.9375 417.0625 -120.25 417.0625 -212 c 0
 417.0625 -301 339.75 -358 217.6875 -358 c 0
 95.625 -358 16.875 -301 16.875 -212 c 0
 16.875 -120.25 88.625 -67.9375 217.6875 -67.9375 c 0xb9
EndSplineSet
EndChar

StartChar: nine.inferior
Encoding: 8329 8329 157
Width: 427
Flags: W
HStem: -358 105.188<82.9068 246.366> -180.125 91<151.081 267.567> 38.375 104.625<150.128 267.504>
VStem: 16.875 119.25<-72.7532 23.8593> 281.75 128.375<-161.492 24.1332>
LayerCount: 2
Fore
SplineSet
281.75 -24.875 m 0
 281.75 12.3125 260.5 38.375 209.875 38.375 c 0
 157.8125 38.375 136.125 12.3125 136.125 -24.875 c 0
 136.125 -62.0625 157.8125 -89.125 209.875 -89.125 c 0
 260.5 -89.125 281.75 -62.0625 281.75 -24.875 c 0
283.6875 -146.625 m 1
 283.6875 -146.625 258.5625 -180.125 184.0625 -180.125 c 0
 81.75 -180.125 16.875 -115.125 16.875 -22.5625 c 0
 16.875 84.4375 89.5 143 206 143 c 0
 333.5 143 410.125 70 410.125 -108 c 0
 410.125 -269 328.0625 -358 181.375 -358 c 0
 80.1875 -358 28.875 -317 28.875 -317 c 1
 63.9375 -219.375 l 1
 63.9375 -219.375 102.9375 -252.8125 176.8125 -252.8125 c 0
 244.875 -252.8125 280.125 -214.75 283.6875 -146.625 c 1
EndSplineSet
EndChar

StartChar: zero.superior
Encoding: 8304 8304 158
Width: 456
Flags: W
HStem: 342 112.812<172.788 283.131> 730.188 112.812<172.788 283.131>
VStem: 16.875 120.812<493.436 690.884> 317.875 120.812<493.436 690.884>
LayerCount: 2
Fore
SplineSet
137.6875 592 m 0
 137.6875 509 165.375 454.8125 228 454.8125 c 0
 290.625 454.8125 317.875 509 317.875 592 c 0
 317.875 675 290.625 730.1875 228 730.1875 c 0
 165.375 730.1875 137.6875 675 137.6875 592 c 0
16.875 592 m 0
 16.875 744 90.0625 843 228 843 c 0
 365.9375 843 438.6875 744 438.6875 592 c 0
 438.6875 440 365.9375 342 228 342 c 0
 90.0625 342 16.875 440 16.875 592 c 0
EndSplineSet
EndChar

StartChar: one.superior
Encoding: 185 185 159
Width: 277
Flags: W
VStem: 122.312 124.812<350 712.375>
LayerCount: 2
Fore
SplineSet
247.125 837 m 1
 247.125 350 l 1
 122.3125 350 l 1
 122.3125 712.375 l 1
 34.75 666.25 l 1
 1.3125 757 l 1
 133.3125 837 l 1
 247.125 837 l 1
EndSplineSet
EndChar

StartChar: two.superior
Encoding: 178 178 160
Width: 405
Flags: W
HStem: 350 107.5<158.75 391> 732.5 110.5<97.7295 254.505>
VStem: 263.188 122.812<639.037 722.291>
LayerCount: 2
Fore
SplineSet
263.1875 679.625 m 0
 263.1875 714.4375 243.8125 732.5 188.1875 732.5 c 0
 120.4375 732.5 73.375 696.5 73.375 696.5 c 1
 39.375 800.375 l 1
 39.375 800.375 100.25 843 191 843 c 0
 312.5 843 386 792 386 691 c 0
 386 595.9375 339.187661785 555.266724804 233 505.875 c 0
 161.369245835 472.774804283 159.5625 461.6875 158.75 457.5 c 1
 391 457.5 l 1
 391 350 l 1
 28.9375 350 l 1
 28.9375 386 l 2
 28.9375 494.1875 93.5906355413 556.292974207 209.1875 617.8125 c 0
 257.9375 643.25 263.1875 661.75 263.1875 679.625 c 0
EndSplineSet
EndChar

StartChar: three.superior
Encoding: 179 179 161
Width: 389
Flags: W
HStem: 342 108.938<66.1577 233.397> 550.062 95.875<112.875 224.598> 731.062 111.938<63.3597 223.112>
VStem: 230.688 130<654.08 722.325> 244.875 127.25<465.189 537.163>
LayerCount: 2
Fore
SplineSet
156.625 645.9375 m 2xe8
 213 645.9375 230.6875 660.75 230.6875 688.9375 c 0
 230.6875 712.125 215.875 731.0625 163.5625 731.0625 c 0
 94.6875 731.0625 52.25 703.375 52.25 703.375 c 1
 22.8125 807.4375 l 1
 22.8125 807.4375 76.6875 843 169 843 c 0
 287.5 843 360.6875 795 360.6875 705 c 0xf0
 360.6875 624 289.125 600 289.125 600 c 1
 289.125 600 372.125 576.5625 372.125 485.5625 c 0
 372.125 382.5625 290.5 342 168 342 c 0
 66.8125 342 6.9375 376 6.9375 376 c 1
 44.75 484.5 l 1
 44.75 484.5 90.3125 450.9375 161 450.9375 c 0
 218.625 450.9375 244.875 469.3125 244.875 501.9375 c 0
 244.875 534.6875 216.1875 550.0625 158.0625 550.0625 c 2
 112.875 550.0625 l 1
 112.875 645.9375 l 1
 156.625 645.9375 l 2xe8
EndSplineSet
EndChar

StartChar: four.superior
Encoding: 8308 8308 162
Width: 439
Flags: W
HStem: 455.625 99.75<144.375 424.688>
VStem: 234.438 120.812<350 667.438>
LayerCount: 2
Fore
SplineSet
355.25 837 m 1
 355.25 350 l 1
 234.4375 350 l 1
 234.4375 667.4375 l 1
 144.375 555.375 l 1
 424.6875 555.375 l 1
 424.6875 455.625 l 1
 34.3125 455.625 l 1
 13.4375 539.3125 l 1
 235 837 l 1
 355.25 837 l 1
EndSplineSet
EndChar

StartChar: five.superior
Encoding: 8309 8309 163
Width: 385
Flags: W
HStem: 343 109.062<54.3481 230.356> 576.562 94.4375<140.947 231.509> 732.375 104.625<145.25 343.438>
VStem: 245.375 122.375<468.292 563.358>
LayerCount: 2
Fore
SplineSet
173.1875 343 m 0
 67.75 343 3.875 377 3.875 377 c 1
 34.625 483.1875 l 1
 34.625 483.1875 89.3125 452.0625 161.4375 452.0625 c 0
 222 452.0625 245.375 475.125 245.375 512.5625 c 0
 245.375 551.75 223.5625 576.5625 177.0625 576.5625 c 0
 127.5625 576.5625 110.875 550.8125 110.875 550.8125 c 1
 25.375 569.375 l 1
 42.4375 837 l 1
 343.4375 837 l 1
 343.4375 732.375 l 1
 145.25 732.375 l 1
 139.4375 648 l 1
 139.4375 648 159 671 221.6875 671 c 0
 316.0625 671 367.75 613 367.75 517.875 c 0
 367.75 409.4375 301.75 343 173.1875 343 c 0
EndSplineSet
EndChar

StartChar: six.superior
Encoding: 8310 8310 164
Width: 427
Flags: W
HStem: 342 101.75<163.296 277.949> 571.25 91<161.211 279.187> 737.812 105.188<174.756 349.084>
VStem: 16.875 130.812<459.633 652.19> 292.875 116.812<457.965 557.258>
LayerCount: 2
Fore
SplineSet
147.6875 508 m 0
 147.6875 470.8125 168.9375 443.75 219.5625 443.75 c 0
 271.625 443.75 292.875 470.8125 292.875 508 c 0
 292.875 545.1875 271.625 571.25 219.5625 571.25 c 0
 168.9375 571.25 147.6875 545.1875 147.6875 508 c 0
134.6875 632.0625 m 1
 134.6875 632.0625 159.8125 662.25 242.9375 662.25 c 0
 345.25 662.25 409.6875 600.125 409.6875 509 c 0
 409.6875 402 337.5 342 221 342 c 0
 93.5 342 16.875 415 16.875 593 c 0
 16.875 754 98.9375 843 245.625 843 c 0
 346.8125 843 398.125 802 398.125 802 c 1
 354 704.375 l 1
 354 704.375 316.4375 737.8125 250.1875 737.8125 c 0
 176.375 737.8125 138.25 701.625 134.6875 632.0625 c 1
EndSplineSet
EndChar

StartChar: seven.superior
Encoding: 8311 8311 165
Width: 402
Flags: W
HStem: 729.5 107.5<21.3125 236.062>
VStem: 100.312 124.375<350 486.182>
LayerCount: 2
Fore
SplineSet
224.6875 350 m 1
 100.3125 350 l 1
 106.875 559.3125 236.0625 729.5 236.0625 729.5 c 1
 21.3125 729.5 l 1
 21.3125 837 l 1
 381.6875 837 l 1
 381.6875 765.5625 l 1
 381.6875 765.5625 226.6875 587 224.6875 350 c 1
EndSplineSet
EndChar

StartChar: eight.superior
Encoding: 8312 8312 166
Width: 443
Flags: W
HStem: 342 100.188<151.374 292.074> 556.188 95.625<183.375 264.938> 589 43.0625<105.938 341.938> 741.812 101.188<163.907 281.981>
VStem: 16.875 119.812<458.994 539.671> 41.3125 115.375<661.888 731.259> 288.875 115.375<661.559 731.581> 305.875 119.812<458.528 540.128>
LayerCount: 2
Fore
SplineSet
222.4375 651.8125 m 0xd6
 264.9375 651.8125 288.875 669.1875 288.875 696.8125 c 0
 288.875 725.4375 265.9375 741.8125 222.4375 741.8125 c 0
 182.375 741.8125 156.6875 725.4375 156.6875 696.8125 c 0
 156.6875 669.1875 183.375 651.8125 222.4375 651.8125 c 0xd6
222.4375 843 m 0
 336.9375 843 404.25 793 404.25 712 c 0
 404.25 632 341.9375 589 222.4375 589 c 0xb6
 105.9375 589 41.3125 632 41.3125 712 c 0
 41.3125 793 109.9375 843 222.4375 843 c 0
222 442.1875 m 0
 276.0625 442.1875 305.875 462.5625 305.875 500.1875 c 0
 305.875 535.25 276.0625 556.1875 222 556.1875 c 0
 167.9375 556.1875 136.6875 535.25 136.6875 500.1875 c 0xd9
 136.6875 462.5625 167.9375 442.1875 222 442.1875 c 0
222 632.0625 m 0xb9
 353.9375 632.0625 425.6875 579.75 425.6875 488 c 0
 425.6875 399 345.5 342 222 342 c 0
 98.5 342 16.875 399 16.875 488 c 0
 16.875 579.75 90.0625 632.0625 222 632.0625 c 0xb9
EndSplineSet
EndChar

StartChar: nine.superior
Encoding: 8313 8313 167
Width: 427
Flags: W
HStem: 342 105.188<82.9068 246.366> 519.875 91<151.081 267.567> 738.375 104.625<150.128 267.504>
VStem: 16.875 119.25<627.247 723.859> 281.75 128.375<538.508 724.133>
LayerCount: 2
Fore
SplineSet
281.75 675.125 m 0
 281.75 712.3125 260.5 738.375 209.875 738.375 c 0
 157.8125 738.375 136.125 712.3125 136.125 675.125 c 0
 136.125 637.9375 157.8125 610.875 209.875 610.875 c 0
 260.5 610.875 281.75 637.9375 281.75 675.125 c 0
283.6875 552.9375 m 1
 283.6875 552.9375 258.5625 519.875 184.0625 519.875 c 0
 81.75 519.875 16.875 584.875 16.875 677.4375 c 0
 16.875 784.4375 89.5 843 206 843 c 0
 333.5 843 410.125 770 410.125 592 c 0
 410.125 431 328.0625 342 181.375 342 c 0
 80.1875 342 28.875 383 28.875 383 c 1
 63.9375 480.625 l 1
 63.9375 480.625 102.9375 447.1875 176.8125 447.1875 c 0
 244.875 447.1875 280.125 484.8125 283.6875 552.9375 c 1
EndSplineSet
EndChar

StartChar: circumflex
Encoding: 710 710 168
Width: 362
Flags: W
HStem: 516 215.008
LayerCount: 2
Fore
SplineSet
271 516 m 1
 181 602.432617188 l 1
 91 516 l 1
 -4 546 l 1
 106 731.0078125 l 1
 256 731.0078125 l 1
 366 546 l 1
 271 516 l 1
EndSplineSet
EndChar

StartChar: caron
Encoding: 711 711 169
Width: 362
Flags: W
HStem: 526 215.008
LayerCount: 2
Fore
SplineSet
91 741.0078125 m 1
 181 654.575195312 l 1
 271 741.0078125 l 1
 366 711.0078125 l 1
 256 526 l 1
 106 526 l 1
 -4 711.0078125 l 1
 91 741.0078125 l 1
EndSplineSet
EndChar

StartChar: breve
Encoding: 728 728 170
Width: 322
VWidth: 999
Flags: W
HStem: 566.437 119.438<93.8147 229.006> 715 20G<51.7104 69.9434 252.877 271.11>
VStem: 5 312.82
LayerCount: 2
Fore
SplineSet
161.41015625 566.436523438 m 0
 51.853515625 566.436523438 5 663.762695312 5 663.762695312 c 1
 69.943359375 735 l 1
 69.943359375 735 90.1598127513 685.874023438 161.41015625 685.874023438 c 0
 232.660499749 685.874023438 252.876953125 735 252.876953125 735 c 1
 317.8203125 663.762695312 l 1
 317.8203125 663.762695312 270.966796875 566.436523438 161.41015625 566.436523438 c 0
EndSplineSet
EndChar

StartChar: dotaccent
Encoding: 729 729 171
Width: 248
Flags: W
HStem: 567.543 171.449<65.4629 183.536>
VStem: 39.3867 170.227<592.349 714.185>
LayerCount: 2
Fore
SplineSet
39.38671875 653.267578125 m 0
 39.38671875 705.200932475 72.9358189356 738.9921875 124.499023438 738.9921875 c 0
 176.063212664 738.9921875 209.61328125 705.200932475 209.61328125 653.267578125 c 0
 209.61328125 601.33328552 176.063212664 567.54296875 124.499023438 567.54296875 c 0
 72.9358189356 567.54296875 39.38671875 601.33328552 39.38671875 653.267578125 c 0
EndSplineSet
EndChar

StartChar: tilde
Encoding: 732 732 172
Width: 371
VWidth: 999
Flags: W
HStem: 564.58 116.937<192.525 313.329> 605.649 116.068<63.0426 178.851>
LayerCount: 2
Fore
SplineSet
366.400390625 631.092285156 m 1x80
 366.400390625 631.092285156 320.298615467 564.579589844 249.225585938 564.579589844 c 0x80
 181.864257812 564.579589844 168.09765625 605.648925781 118.913085938 605.648925781 c 0
 83.8351812021 605.648925781 55.21875 577.110839844 55.21875 577.110839844 c 1
 5 672.092285156 l 1
 5 672.092285156 55.9044291369 721.717285156 122.17578125 721.717285156 c 0x40
 188.467773438 721.717285156 207.580078125 681.517089844 252.48828125 681.517089844 c 0
 292.159086193 681.517089844 312.45703125 706.829589844 312.45703125 706.829589844 c 1
 366.400390625 631.092285156 l 1x80
EndSplineSet
EndChar

StartChar: hungarumlaut
Encoding: 733 733 173
Width: 412
Flags: W
HStem: 511 230.008
LayerCount: 2
Fore
SplineSet
295 511 m 1
 187 531 l 1
 260 741.0078125 l 1
 416 711.0078125 l 1
 295 511 l 1
105 511 m 1
 -3 531 l 1
 70 741.0078125 l 1
 226 711.0078125 l 1
 105 511 l 1
EndSplineSet
EndChar

StartChar: multiply
Encoding: 215 215 174
Width: 450
Flags: W
LayerCount: 2
Fore
SplineSet
418.040039062 455.694335938 m 1
 127.305664062 164.959960938 l 1
 31.9599609375 260.305664062 l 1
 322.694335938 551.040039062 l 1
 418.040039062 455.694335938 l 1
322.694335938 164.959960938 m 1
 31.9599609375 455.694335938 l 1
 127.305664062 551.040039062 l 1
 418.040039062 260.305664062 l 1
 322.694335938 164.959960938 l 1
EndSplineSet
EndChar

StartChar: divide
Encoding: 247 247 175
Width: 450
Flags: W
HStem: 89.7461 177.804<163.717 286.283> 291.25 133.5<30 420> 448.45 177.804<163.717 286.283>
VStem: 136.648 176.703<116.983 240.312 475.688 599.016>
CounterMasks: 1 e0
LayerCount: 2
Fore
SplineSet
420 291.25 m 1
 30 291.25 l 1
 30 424.75 l 1
 420 424.75 l 1
 420 291.25 l 1
136.6484375 178.647460938 m 0
 136.6484375 232.505625771 171.473791189 267.549804688 224.999023438 267.549804688 c 0
 278.52521985 267.549804688 313.3515625 232.505625771 313.3515625 178.647460938 c 0
 313.3515625 124.789260848 278.52521985 89.74609375 224.999023438 89.74609375 c 0
 171.473791189 89.74609375 136.6484375 124.789260848 136.6484375 178.647460938 c 0
136.6484375 537.352539062 m 0
 136.6484375 591.209704393 171.473791189 626.25390625 224.999023438 626.25390625 c 0
 278.52521985 626.25390625 313.3515625 591.209704393 313.3515625 537.352539062 c 0
 313.3515625 483.493339471 278.52521985 448.450195312 224.999023438 448.450195312 c 0
 171.473791189 448.450195312 136.6484375 483.493339471 136.6484375 537.352539062 c 0
EndSplineSet
EndChar

StartChar: AE
Encoding: 198 198 176
Width: 1024
Flags: W
HStem: 0 154.75<679 996.5> 140 155<234.5 590> 288.25 153.5<626 936.5> 288.25 6.75<590 626> 576.258 154.75<679 996.5>
VStem: 500 86<624.5 731.008> 590 89<295 441.75> 590 36<288.25 295>
LayerCount: 2
Fore
SplineSet
936.5 288.25 m 1x2e
 590 288.25 l 1x1d
 590 441.75 l 1
 936.5 441.75 l 1
 936.5 288.25 l 1x2e
679 576.2578125 m 1x8e
 679 154.75 l 1
 996.5 154.75 l 1
 996.5 0 l 1
 500 0 l 1
 500 731.0078125 l 1
 996.5 731.0078125 l 1
 996.5 576.2578125 l 1
 679 576.2578125 l 1x8e
626 140 m 1x4d
 164.5 140 l 1
 234.5 295 l 1x4d
 626 295 l 1x1d
 626 140 l 1x4d
586 731.0078125 m 1
 586 624.5 l 1
 208.5 0 l 1
 2.5 0 l 1x8c
 485 731.0078125 l 1
 586 731.0078125 l 1
EndSplineSet
EndChar

StartChar: ae
Encoding: 230 230 177
Width: 872
Flags: W
HStem: -9.99805 127.712<202.687 314.853> -9.99805 141.712<563.974 777.61> 202.5 99.75<458.75 680.75> 374.011 137<149.663 320.337> 377.034 133.899<545.742 657.536>
VStem: 33.75 163.099<125.191 191.901> 346.929 15.8486<210.284 309.934> 458.75 58.8486<202.5 302.25>
LayerCount: 2
Fore
SplineSet
346.928710938 215.061523438 m 1xa7
 468.5 184.5 l 1
 446.338310926 61.9244631395 371.674431431 -9.998046875 228.638671875 -9.998046875 c 0
 87.5165573239 -9.998046875 33.75 55 33.75 141 c 0
 33.75 286.71747631 146.16218164 309.797851562 362.928710938 309.93359375 c 1
 362.77734375 210.284179688 l 1
 221.110786045 210.208108036 196.848632812 192.068509963 196.848632812 159.811523438 c 0
 196.848632812 131.887551506 220.108955079 117.713867188 258.138671875 117.713867188 c 0
 304.679515143 117.713867188 346.928710938 149.660209443 346.928710938 215.061523438 c 1xa7
472.678710938 195.5 m 1
 346.928710938 165 l 1
 346.928710938 291.260742188 l 2
 346.928710937 349.087205456 304.096411454 374.010742188 246.178710938 374.010742188 c 0
 174.289898682 374.010742188 122.928710938 337.760742188 122.928710938 337.760742188 c 1
 76.9287109375 467.010742188 l 1
 76.9287109375 467.010742188 139.272801934 511.010742188 261.911132813 511.010742188 c 0x37
 381.507925306 511.010742188 472.678710937 432.972327643 472.678710938 315.010742188 c 2
 472.678710938 195.5 l 1
EndSplineSet
Refer: 43 101 N 1 0 0 1 321 0 2
EndChar

StartChar: Eth
Encoding: 208 208 178
Width: 789
Flags: W
HStem: 0 159.102<293.5 481.883> 286 149<30 434> 571.9 159.108<293.5 482.29>
VStem: 114.5 179<159.102 571.9> 577.429 179.849<251.618 477.762>
LayerCount: 2
Fore
SplineSet
434 286 m 1
 30 286 l 1
 30 435 l 1
 434 435 l 1
 434 286 l 1
EndSplineSet
Refer: 5 68 N 1 0 0 1 62 0 2
EndChar

StartChar: eth
Encoding: 240 240 179
Width: 588
Flags: W
HStem: -9.99805 151.212<232.666 357.302> 370.534 140.399<234.637 349.969>
VStem: 35.5713 164.849<175.24 335.775> 392.5 168.849<175.939 440> 392.5 62.8486<281.562 330.568>
LayerCount: 2
Fore
SplineSet
181.078125 616.658203125 m 1xe0
 507.991210938 710.080078125 l 1
 532.170898438 625.467773438 l 1
 205.256835938 532.044921875 l 1
 181.078125 616.658203125 l 1xe0
392.5 251.561523438 m 0xf0
 392.5 493.626154328 339.5 556.270613665 205.43359375 692.048828125 c 1
 360.327148438 771.274414062 l 1
 360.327148438 771.274414062 561.348632812 601 561.348632812 279 c 0xf0
 561.348632812 93.8330078125 460.681907075 -9.998046875 296.959960938 -9.998046875 c 0
 134.475244095 -9.998046875 35.5712890625 94.0830078125 35.5712890625 253.561523438 c 0
 35.5712890625 409.295898438 118.171757619 510.93359375 262 510.93359375 c 0
 375.14527081 510.93359375 455.348632812 423.747070312 455.348632812 281.561523438 c 1xe8
 392.5 273.561523438 l 1
 392.5 330.568009678 359.737589399 370.534179688 298.348632812 370.534179688 c 0
 229.748609759 370.534179688 200.419921875 323.704388285 200.419921875 253.561523438 c 0
 200.419921875 186.192250099 229.332910098 141.213867188 296.959960938 141.213867188 c 0
 365.834483805 141.213867188 392.5 195.749800518 392.5 251.561523438 c 0xf0
EndSplineSet
EndChar

StartChar: Thorn
Encoding: 222 222 180
Width: 650
Flags: W
HStem: 0 21G<52.5 231.5> 154 141.352<166.5 423.085> 455.649 145.358<167.5 423.349> 711.008 20G<52.5 231.5>
VStem: 52.5 179<0 154 295.352 455.649 601.008 731.008> 167.5 64<154 295.352 455.649 601.008> 448.429 169.849<317.778 432.543>
LayerCount: 2
Fore
SplineSet
52.5 0 m 1xfa
 52.5 731.0078125 l 1
 231.5 731.0078125 l 1
 231.5 0 l 1
 52.5 0 l 1xfa
166.5 154 m 1
 166.5 295.3515625 l 1
 342.388671875 295.461914062 l 2
 403.09671899 295.549092703 448.428710938 309.684894757 448.428710938 374.561523438 c 0
 448.428710938 440.404472237 403.090015938 455.52432638 342.388671875 455.545898438 c 2
 167.5 455.649414062 l 1
 167.5 601.0078125 l 1xf6
 361.388671875 601.0078125 l 2
 496.55048035 601.0078125 618.27734375 539.335495382 618.27734375 374.561523438 c 0
 618.27734375 213.240207598 495.759109269 154 361.388671875 154 c 2
 166.5 154 l 1
EndSplineSet
EndChar

StartChar: thorn
Encoding: 254 254 181
Width: 602
Flags: W
HStem: -9.99805 142.212<246.304 370.793> 369.534 141.399<257.519 369.699> 731.002 20G<52.5 221.5>
VStem: 52.5 169<-180 751.002> 133.651 87.8486<66.4395 183.562> 158.651 62.8486<283.562 425.747> 406.58 164.849<169.854 331.273>
LayerCount: 2
Fore
SplineSet
52.5 -180 m 1xf2
 52.5 751.001953125 l 1
 221.5 751.001953125 l 1
 221.5 -180 l 1
 52.5 -180 l 1xf2
221.5 213.561523438 m 1
 221.5 173.929304312 246.51941625 132.213867188 305.040039062 132.213867188 c 0
 376.169030463 132.213867188 406.580078125 180.794700403 406.580078125 253.561523438 c 0
 406.580078125 323.104736477 376.203174589 369.534179688 305.151367188 369.534179688 c 0
 246.55350248 369.534179688 221.5 335.115460081 221.5 283.561523438 c 1xf2
 158.651367188 283.561523438 l 1xe6
 158.651367188 425.747070312 232.99741713 510.93359375 347.5 510.93359375 c 0
 489.740234375 510.93359375 571.428710938 409.295898438 571.428710938 253.561523438 c 0
 571.428710938 94.0830078125 485.95703125 -9.998046875 345.540039062 -9.998046875 c 0
 213.825871811 -9.998046875 133.651367188 66.439453125 133.651367188 183.561523438 c 1xea
 221.5 213.561523438 l 1
EndSplineSet
EndChar

StartChar: kgreenlandic
Encoding: 312 312 182
Width: 555
Flags: W
HStem: 0 21G<50 219 328.9 550> 208.5 95<126.5 212.5> 481.011 20G<50 219 325.517 540>
VStem: 50 169<0 208.5 303.5 501.011> 126.5 92.5<208.5 303.5>
LayerCount: 2
Fore
SplineSet
212.5 303.5 m 1xe8
 212.5 208.5 l 1
 126.5 208.5 l 1
 126.5 303.5 l 1
 212.5 303.5 l 1xe8
341.25 0 m 1
 212.5 208.5 l 1
 212.5 303.5 l 1
 338.25 501.010742188 l 1
 540 501.010742188 l 1
 357.5 273.75 l 1
 550 0 l 1
 341.25 0 l 1
50 0 m 1xf0
 50 501.010742188 l 1
 219 501.010742188 l 1
 219 0 l 1
 50 0 l 1xf0
EndSplineSet
EndChar

StartChar: Eng
Encoding: 330 330 183
Width: 719
Flags: W
HStem: -189.994 137.5<311.9 487.422> 0 21G<52.5 219.5> 711.008 20G<52.5 243.467 499.5 666.5>
VStem: 52.5 167<0 427.505> 499.5 167<316.1 731.008>
LayerCount: 2
Fore
SplineSet
52.5 0 m 1
 52.5 731.0078125 l 1
 230.5 731.0078125 l 1
 499.5 316.099609375 l 1
 499.5 731.0078125 l 1
 666.5 731.0078125 l 1
 666.5 -3 l 2
 666.5 -125.529296875 605.534482758 -189.994140625 458.5 -189.994140625 c 0
 358.406104151 -189.994140625 299.5 -169.994140625 299.5 -169.994140625 c 1
 313.5 -37.494140625 l 1
 313.5 -37.494140625 357.88066688 -52.494140625 420 -52.494140625 c 0
 467.841722693 -52.494140625 491.477192707 -38.8617505541 497.975831653 -14.8368420298 c 1
 219.5 427.504882812 l 1
 219.5 0 l 1
 52.5 0 l 1
EndSplineSet
Substitution2: "'ss06' Style Set 6 lookup 7-1" Eng.ss06
EndChar

StartChar: eng
Encoding: 331 331 184
Width: 595
Flags: W
HStem: -189.994 143.75<216.345 354.655> 0 21G<52.5 221.5> 371.534 139.399<254.745 417.227> 481.011 20G<52.5 221.5>
VStem: 52.5 169<0 501.011> 374.277 169<-29.7216 353.297>
LayerCount: 2
Fore
SplineSet
52.5 0 m 1xdc
 52.5 501.010742188 l 1
 221.5 501.010742188 l 1
 221.5 0 l 1
 52.5 0 l 1xdc
221.5 284 m 1
 154 293.561523438 l 1
 175.604642074 444 226.833971843 510.93359375 354.5 510.93359375 c 0
 479.166135504 510.93359375 543.27734375 444.084682028 543.27734375 304.561523438 c 2
 543.27734375 28.5 l 2
 543.27734375 -103.008275719 483.33786336 -189.994140625 338.77734375 -189.994140625 c 0
 258.974008413 -189.994140625 203.77734375 -174.494140625 203.77734375 -174.494140625 c 1
 217.77734375 -35.494140625 l 1
 217.77734375 -35.494140625 252.886309815 -46.244140625 302.02734375 -46.244140625 c 0
 352.894867768 -46.244140625 374.27734375 -19.8134177334 374.27734375 41.505859375 c 2
 374.27734375 287.561523438 l 2
 374.27734375 340.586188001 351.834844721 371.534179688 299 371.534179688 c 0xec
 244.710796941 371.534179688 221.5 336.490178683 221.5 284 c 1
EndSplineSet
EndChar

StartChar: OE
Encoding: 338 338 185
Width: 991
Flags: W
HStem: 0 154.75<648.5 968.5> 0 160.212<299.476 532.777> 288.25 153.5<559.5 908.5> 570.546 160.462<304.988 532.777> 576.258 154.75<648.5 968.5>
VStem: 30 174.849<251.894 477.42> 559.5 89<288.25 441.75>
LayerCount: 2
Fore
SplineSet
532.77734375 160.1015625 m 1x76
 532.77734375 0 l 1
 403.888671875 0 l 2
 208.319335938 0 30 97.9169921875 30 364.561523438 c 0
 30 631.206054688 207.16796875 731.0078125 403.888671875 731.0078125 c 2
 532.77734375 731.0078125 l 1
 532.77734375 570.649414062 l 1
 423.888671875 570.545898438 l 2
 298.488653435 570.417372413 204.848632812 532.032795842 204.848632812 364.561523438 c 0
 204.848632812 196.956777183 298.488653435 160.347999244 423.888671875 160.211914062 c 2
 532.77734375 160.1015625 l 1x76
EndSplineSet
Refer: 10 69 N 1 0 0 1 417 0 2
EndChar

StartChar: oe
Encoding: 339 339 186
Width: 920
Flags: W
HStem: -9.99805 148.962<233.434 358.637> -9.99805 141.712<611.974 825.61> 202.5 99.75<506.75 728.75> 361.784 149.149<229.204 359.537> 377.034 133.899<593.742 705.536>
VStem: 33.5 164.849<174.443 329.518> 401.5 164.099<135.614 370.301> 506.75 49.5273<203.284 295.896>
LayerCount: 2
Fore
SplineSet
198.348632812 253.561523438 m 0xb4
 198.348632812 184.842773438 226.962402344 138.963867188 293.888671875 138.963867188 c 0
 362.215820312 138.963867188 391.428710938 184.842773438 391.428710938 253.561523438 c 0
 391.428710938 318.457519531 362.249511719 361.784179688 294 361.784179688 c 0
 226.995605469 361.784179688 198.348632812 318.457519531 198.348632812 253.561523438 c 0xb4
33.5 253.561523438 m 0
 33.5 409.295898438 132.025878906 510.93359375 293.888671875 510.93359375 c 0
 456.994628906 510.93359375 556.27734375 409.295898438 556.27734375 253.561523438 c 0xb5
 556.27734375 94.0830078125 456.994628906 -9.998046875 293.888671875 -9.998046875 c 0
 132.025878906 -9.998046875 33.5 94.0830078125 33.5 253.561523438 c 0
401.5 253.561523438 m 0x6e
 401.5 409.295898438 498.134277344 510.93359375 656.888671875 510.93359375 c 0
 840.435058594 510.93359375 897.965820312 373.297851562 897.965820312 266.7109375 c 0
 897.965820312 227.069335938 893.5 202.5 893.5 202.5 c 1
 506.75 202.5 l 1
 506.75 302.25 l 1x6d
 728.75 302.25 l 1
 728.75 302.25 728.228027344 310.514648438 724.91015625 321.5 c 0
 719.099609375 341.617675781 702.28515625 377.034179688 649 377.034179688 c 0
 590.577148437 377.034179688 565.598632812 331.305175781 565.598632812 262.811523438 c 0
 565.598632812 177.14453125 601.021484375 131.713867188 691.25 131.713867188 c 0
 778.53125 131.713867188 828.268554688 159.845703125 828.268554688 159.845703125 c 1
 855.827148438 17.345703125 l 1
 855.827148438 17.345703125 796.295898438 -9.998046875 692.888671875 -9.998046875 c 0
 491.582519531 -9.998046875 401.5 94.0830078125 401.5 253.561523438 c 0x6e
EndSplineSet
EndChar

StartChar: longs
Encoding: 383 383 187
Width: 269
Flags: W
HStem: 0 21G<50 219> 626.011 135<232.383 369.638>
VStem: 50 169<0 612.304>
LayerCount: 2
Fore
SplineSet
219 552.010742188 m 2
 219 0 l 1
 50 0 l 1
 50 565.010742188 l 2
 50 682.98213044 109.206723906 761.010742188 252 761.010742188 c 0
 328.84765625 761.010742188 382 745.010742188 382 745.010742188 c 1
 368 615.010742188 l 1
 368 615.010742188 334.662109375 626.010742188 288 626.010742188 c 0
 239.420634501 626.010742188 219 603.721251606 219 552.010742188 c 2
EndSplineSet
EndChar

StartChar: uni018F
Encoding: 399 399 188
Width: 765
Flags: W
HStem: -9.99805 161.462<295.54 471.993> 302.123 140.5<218.108 600.608> 575.909 163.212<167.77 447.518>
VStem: 556.76 45.8486<302.123 442.623>
LayerCount: 2
Back
SplineSet
35 364.561523438 m 0
 35 591.206054688 163.541887394 739.12109375 389.888671875 739.12109375 c 0
 653.541980974 739.12109375 740.108398438 551.971330386 740.108398438 365.891601562 c 0
 740.108398438 303.039520695 732 284 732 284 c 1
 162 284 l 1
 160 424 l 1
 562 424 l 1
 562 424 560.13712938 586.659179688 391 586.659179688 c 0
 261.796380576 586.659179688 205.848632812 497.743164062 205.848632812 364.561523438 c 4
 205.848632812 231.379882812 273.845797251 142.463867188 432.888671875 142.463867188 c 0
 580.720714467 142.463867188 659.018554688 179.595703125 659.018554688 179.595703125 c 1
 682.827148438 32.595703125 l 1
 682.827148438 32.595703125 604.343305548 -9.998046875 425.888671875 -9.998046875 c 0
 176.581210181 -9.998046875 35 137.916992188 35 364.561523438 c 0
EndSplineSet
Fore
SplineSet
737.608398438 364.561523438 m 0
 737.608398438 137.916992187 608.161002517 -9.998046875 380.219726562 -9.998046875 c 0
 114.684361078 -9.998046875 27.5 179.658883893 27.5 368.231445312 c 0
 27.5 420.977516917 34.1083984375 442.623046875 34.1083984375 442.623046875 c 1
 600.608398438 442.623046875 l 1
 602.608398438 302.123046875 l 1
 218.108398438 302.123046875 l 1
 218.108398438 302.123046875 219.285005622 281.48641385 225.433409779 260.585449723 c 0
 238.608707484 215.938764618 273.837307 151.463867188 383.608398438 151.463867188 c 0
 504.4380941 151.463867188 556.759765625 236.776764463 556.759765625 364.561523438 c 0
 556.759765625 491.296888759 491.008807341 575.909179688 337.219726562 575.909179688 c 0
 191.022054899 575.909179688 113.58984375 534.77734375 113.58984375 534.77734375 c 1
 84.78125 692.52734375 l 1
 84.78125 692.52734375 164.028737206 739.12109375 344.219726562 739.12109375 c 0
 595.121679729 739.12109375 737.608398438 591.206054687 737.608398438 364.561523438 c 0
EndSplineSet
EndChar

StartChar: florin
Encoding: 402 402 190
Width: 398
Flags: W
HStem: -190.011 143.75<-62.509 74.1513> 364.25 136.761<9 387> 626.011 135<272.383 409.638>
VStem: 90 169<-29.7347 612.304>
LayerCount: 2
Fore
SplineSet
9 501.010742188 m 1
 387 501.010742188 l 1
 387 364.25 l 1
 9 364.25 l 1
 9 501.010742188 l 1
90 36.4892578125 m 2
 90 565.010742188 l 2
 90 682.98213044 149.206723906 761.010742188 292 761.010742188 c 0
 368.84765625 761.010742188 422 745.010742188 422 745.010742188 c 1
 408 615.010742188 l 1
 408 615.010742188 374.662109375 626.010742188 328 626.010742188 c 0
 279.420634501 626.010742188 259 603.721251606 259 552.010742188 c 2
 259 28.4892578125 l 2
 259 -103.024960198 199.060344828 -190.010742188 54.5 -190.010742188 c 0
 -22.3476681593 -190.010742188 -75.5 -174.510742188 -75.5 -174.510742188 c 1
 -61.5 -35.5107421875 l 1
 -61.5 -35.5107421875 -28.4749497634 -46.2607421875 17.75 -46.2607421875 c 0
 68.6178100585 -46.2607421875 90 -21.3360433923 90 36.4892578125 c 2
EndSplineSet
EndChar

StartChar: uni01B7
Encoding: 439 439 191
Width: 584
Flags: W
HStem: -9.99805 151.188<120.113 339.336> 576 155<40 306>
VStem: 373.327 184.084<172.547 280.281>
LayerCount: 2
Fore
SplineSet
370.25 428 m 1
 370.25 428 557.411132812 427.709262019 557.411132812 214.670898438 c 0
 557.411132812 54.2555725681 434.521857791 -9.998046875 250 -9.998046875 c 0
 102.934570312 -9.998046875 15.451171875 40.9091796875 15.451171875 40.9091796875 c 1
 62.2744140625 191.012695312 l 1
 62.2744140625 191.012695312 131.661468184 141.189453125 240.5 141.189453125 c 0
 332.384496385 141.189453125 373.327148438 172.517577117 373.327148438 229 c 0
 373.327148438 285.322507675 331.271951853 312.447160036 250.638671875 312.737304688 c 2
 161.5 313 l 1
 161.5 398 l 1
 306 576 l 1
 40 576 l 1
 40 731 l 1
 539 731 l 1
 539 625 l 1
 370.25 428 l 1
EndSplineSet
EndChar

StartChar: uni0292
Encoding: 658 658 192
Width: 524
Flags: W
HStem: -189.994 140.438<83.1331 296.87> 356.011 145<44 251>
VStem: 330.577 166.834<-18.046 83.3731>
LayerCount: 2
Fore
SplineSet
320.5 214 m 1
 320.5 214 497.411132812 213.732435985 497.411132812 17.6748046875 c 0
 497.411132812 -130.60239263 382.516966744 -189.994140625 210 -189.994140625 c 0
 94.2852768714 -189.994140625 25.451171875 -159.086914062 25.451171875 -159.086914062 c 1
 60.2744140625 -18.2333984375 l 1
 60.2744140625 -18.2333984375 116.327206489 -49.556640625 204.25 -49.556640625 c 0
 291.638056963 -49.556640625 330.577148438 -19.5664022189 330.577148438 34.50390625 c 0
 330.577148438 86.1181473382 287.322451801 111.109927927 204.388671875 111.241210938 c 2
 121.5 111.50390625 l 1
 121.5 190.00390625 l 1
 251 356.010742188 l 1
 44 356.010742188 l 1
 44 501.010742188 l 1
 474 501.010742188 l 1
 474 405.010742188 l 1
 320.5 214 l 1
EndSplineSet
EndChar

StartChar: Oslash
Encoding: 216 216 193
Width: 797
Flags: W
HStem: -9.99805 161.212<299.082 498.695> 577.909 161.212<299.082 498.695>
VStem: 32.5 175.099<252.236 476.887> 590.179 175.099<252.236 476.887>
LayerCount: 2
Fore
SplineSet
151.5 -91.4697265625 m 1
 536.5 801.403320312 l 1
 645.5 801.403320312 l 1
 260.5 -91.4697265625 l 1
 151.5 -91.4697265625 l 1
EndSplineSet
Refer: 1 79 N 1 0 0 1 0 0 2
EndChar

StartChar: oslash
Encoding: 248 248 194
Width: 589
Flags: W
HStem: -9.99805 148.962<233.434 358.637> 361.784 149.149<229.204 359.537>
VStem: 33.5 164.849<174.443 329.518> 391.429 164.849<174.443 329.518>
LayerCount: 2
Fore
SplineSet
60 -91.4697265625 m 1
 421 581.403320312 l 1
 529 581.403320312 l 1
 168 -91.4697265625 l 1
 60 -91.4697265625 l 1
EndSplineSet
Refer: 29 111 N 1 0 0 1 0 0 2
EndChar

StartChar: ring
Encoding: 730 730 197
Width: 355
Flags: W
HStem: 480.07 95.6465<142.616 214.236> 665.168 95.834<140.303 214.65>
VStem: 28.75 107.953<580.218 660.677> 219.074 107.953<580.442 660.473>
LayerCount: 2
Fore
SplineSet
136.703125 622.396484375 m 0
 136.703125 594.405046367 148.770876636 575.716796875 176.99609375 575.716796875 c 0
 206.47199071 575.716796875 219.07421875 594.405046367 219.07421875 622.396484375 c 0
 219.07421875 648.044553064 206.501703804 665.16796875 177.094726562 665.16796875 c 0
 148.800588645 665.16796875 136.703125 648.044553064 136.703125 622.396484375 c 0
28.75 622.629882812 m 0
 28.75 706.358572334 84.8025131965 761.001953125 176.888671875 761.001953125 c 0
 270.21800939 761.001953125 327.02734375 706.358572334 327.02734375 622.629882812 c 0
 327.02734375 536.367848721 270.21800939 480.0703125 176.888671875 480.0703125 c 0
 84.8025131965 480.0703125 28.75 536.367848721 28.75 622.629882812 c 0
EndSplineSet
EndChar

StartChar: ogonek
Encoding: 731 731 198
Width: 307
VWidth: 999
Flags: W
HStem: -255 97<153.766 262.214>
VStem: 27.5 120<-149.655 -46.049>
LayerCount: 2
Fore
SplineSet
27.5 -130 m 0
 27.5 -30.5220125786 115.5 39 115.5 39 c 1
 230.5 39 l 1
 230.5 39 147.5 -29.3503184713 147.5 -108 c 0
 147.5 -143.947464923 167.613717215 -158 203 -158 c 0
 241.620592949 -158 259 -144 259 -144 c 1
 277 -232 l 1
 277 -232 244.426287616 -255 179 -255 c 0
 85.7115634171 -255 27.5 -210.528428819 27.5 -130 c 0
EndSplineSet
EndChar

StartChar: minute
Encoding: 8242 8242 203
Width: 235
Flags: W
HStem: 456 275.008<77 117.5>
VStem: -3 240.5
LayerCount: 2
Fore
SplineSet
-3 456 m 1
 77 731.0078125 l 1
 237.5 731.0078125 l 1
 117.5 456 l 1
 -3 456 l 1
EndSplineSet
EndChar

StartChar: bullet
Encoding: 8226 8226 206
Width: 325
Flags: W
HStem: 225 276.449<82.4344 242.791>
VStem: 25 275.227<282.69 443.759>
LayerCount: 2
Fore
SplineSet
25 363.224609375 m 0
 25 446.962700022 79.2439307619 501.44921875 162.612304688 501.44921875 c 0
 245.981554751 501.44921875 300.2265625 446.962700022 300.2265625 363.224609375 c 0
 300.2265625 279.485070773 245.981554751 225 162.612304688 225 c 0
 79.2439307619 225 25 279.485070773 25 363.224609375 c 0
EndSplineSet
EndChar

StartChar: dagger
Encoding: 8224 8224 207
Width: 530
Flags: W
HStem: 355.011 151<30 500>
LayerCount: 2
Fore
SplineSet
170.5 -171.469726562 m 1
 203 427 l 1
 180.5 759.469726562 l 1
 349.5 759.469726562 l 1
 327 426 l 1
 359.5 -171.469726562 l 1
 170.5 -171.469726562 l 1
30 355.010742188 m 1
 30 506.010742188 l 1
 500 506.010742188 l 1
 500 355.010742188 l 1
 30 355.010742188 l 1
EndSplineSet
EndChar

StartChar: daggerdbl
Encoding: 8225 8225 208
Width: 530
Flags: W
HStem: 65.0107 151<30 500> 405.011 151<30 500>
LayerCount: 2
Fore
SplineSet
30 65.0107421875 m 1
 30 216.010742188 l 1
 500 216.010742188 l 1
 500 65.0107421875 l 1
 30 65.0107421875 l 1
180.5 -171.469726562 m 1
 203 137 l 1
 180.5 317 l 1
 203 477 l 1
 180.5 759.469726562 l 1
 349.5 759.469726562 l 1
 327 476 l 1
 349.5 318 l 1
 327 136 l 1
 349.5 -171.469726562 l 1
 180.5 -171.469726562 l 1
30 405.010742188 m 1
 30 556.010742188 l 1
 500 556.010742188 l 1
 500 405.010742188 l 1
 30 405.010742188 l 1
EndSplineSet
EndChar

StartChar: uni2116
Encoding: 8470 8470 209
Width: 1126
Flags: W
HStem: 0 21G<52.5 219.5 475.915 666.5> 236.5 101.5<739.5 1066.5> 378.061 121.526<861.098 953.95> 617.278 121.714<860.392 954.703> 711.008 20G<52.5 243.467 499.5 666.5>
VStem: 52.5 167<0 427.505> 499.5 167<316.1 731.008> 723.111 127.412<510.531 608.343> 965.477 127.412<510.929 608.343>
LayerCount: 2
Fore
SplineSet
739.5 338 m 1xe780
 1066.5 338 l 1
 1066.5 236.5 l 1
 739.5 236.5 l 1
 739.5 338 l 1xe780
850.5234375 560.844726562 m 0
 850.5234375 524.111527329 867.407468006 499.586914062 906.897460938 499.586914062 c 0
 947.932358802 499.586914062 965.4765625 524.111527329 965.4765625 560.844726562 c 0
 965.4765625 594.685326439 947.969451696 617.278320312 907.020507812 617.278320312 c 0xf780
 867.4445604 617.278320312 850.5234375 594.685326439 850.5234375 560.844726562 c 0
723.111328125 560.620117188 m 0
 723.111328125 668.552734375 792.690878667 738.9921875 907 738.9921875 c 0
 1022.55228497 738.9921875 1092.88867188 668.552734375 1092.88867188 560.620117188 c 0
 1092.88867188 450.154296875 1022.55228497 378.060546875 907 378.060546875 c 0
 792.690878667 378.060546875 723.111328125 450.154296875 723.111328125 560.620117188 c 0
EndSplineSet
Refer: 11 78 N 1 0 0 1 0 0 2
EndChar

StartChar: uni20BF
Encoding: 8383 8383 210
Width: 640
Flags: W
HStem: -105 174.47<115 264 345 494> 0 155.21<232.75 405.98> 293.656 143.695<166.5 390.107> 575.899 155.108<232.75 384.4> 655 174.47<115 264 345 494>
VStem: 115 149<-105 69.4697 655 829.47> 166.5 66.25<293.656 437.352> 345 149<-105 69.4697 655 829.47> 408.179 181.099<456.058 554.179> 431.179 181.099<177.609 274.111>
LayerCount: 2
Fore
SplineSet
345 -105 m 1xa1
 345 69.4697265625 l 1
 494 69.4697265625 l 1
 494 -105 l 1
 345 -105 l 1xa1
345 655 m 1x29
 345 829.469726562 l 1
 494 829.469726562 l 1
 494 655 l 1
 345 655 l 1x29
115 -105 m 1xa4
 115 69.4697265625 l 1
 264 69.4697265625 l 1
 264 -105 l 1
 115 -105 l 1xa4
115 655 m 1x2c
 115 829.469726562 l 1
 264 829.469726562 l 1
 264 655 l 1
 115 655 l 1x2c
EndSplineSet
Refer: 19 66 N 1 0 0 1 0 0 2
EndChar

StartChar: uni20A6
Encoding: 8358 8358 211
Width: 874
Flags: W
HStem: 0 21G<150.5 317.5 542.394 730.5> 259 86<27.5 229 645 846.5> 389 86<27.5 229 645 846.5> 711.008 20G<150.5 338.945 563.5 730.5>
VStem: 150.5 167<0 259 345 389> 150.5 78.5<259 345 389 475> 563.5 167<345 389 475 731.008> 645 85.5<259 345 389 475>
LayerCount: 2
Fore
SplineSet
846.5 259 m 1xf1
 645 259 l 1
 645 345 l 1
 846.5 345 l 1
 846.5 259 l 1xf1
846.5 389 m 1
 645 389 l 1
 645 475 l 1
 846.5 475 l 1
 846.5 389 l 1
229 259 m 1xf4
 27.5 259 l 1
 27.5 345 l 1
 229 345 l 1
 229 259 l 1xf4
229 389 m 1
 27.5 389 l 1
 27.5 475 l 1
 229 475 l 1
 229 389 l 1
150.5 0 m 1xf9
 150.5 731.0078125 l 1
 327.5 731.0078125 l 1
 563.5 318.599609375 l 1
 563.5 731.0078125 l 1
 730.5 731.0078125 l 1xf6
 730.5 0 l 1
 553.5 0 l 1
 317.5 425.004882812 l 1
 317.5 0 l 1
 150.5 0 l 1xf9
EndSplineSet
EndChar

StartChar: uni20BD
Encoding: 8381 8381 212
Width: 703
Flags: W
HStem: 0 21G<128.5 307.5> 158.352 86<30 544> 285.852 125.5<30 466.546> 575.899 155.108<307.5 466.546>
VStem: 128.5 179<0 575.899> 490.179 181.099<435.182 552.007>
LayerCount: 2
Fore
SplineSet
544 158.3515625 m 1
 30 158.3515625 l 1
 30 244.3515625 l 1
 544 244.3515625 l 1
 544 158.3515625 l 1
30 285.8515625 m 1
 30 411.3515625 l 1
 383.638671875 411.461914062 l 2
 444.632815833 411.552283753 490.178710938 426.268851053 490.178710938 493.811523438 c 0
 490.178710938 560.467425478 444.632815833 575.712262701 383.638671875 575.795898438 c 2
 307.5 575.899414062 l 1
 307.5 0 l 1
 128.5 0 l 1
 128.5 731.0078125 l 1
 387.388671875 731.0078125 l 2
 570.002929688 731.0078125 671.27734375 660.943500038 671.27734375 493.811523438 c 0
 671.27734375 359.292818839 579.897460938 285.8515625 425.5 285.8515625 c 2
 30 285.8515625 l 1
EndSplineSet
EndChar

StartChar: dong
Encoding: 8363 8363 213
Width: 645
Flags: W
HStem: 0 86<30 594> 150.002 129.399<235.631 345.501> 460.722 127.212<235.043 353.776> 621.5 81<296 617.5> 731.002 20G<378.5 547.5>
VStem: 43.5713 164.849<306.016 433.944> 378.5 169<355.374 751.002> 378.5 67.8486<387.374 504.496>
LayerCount: 2
Fore
SplineSet
594 0 m 1xfc
 30 0 l 1
 30 86 l 1
 594 86 l 1
 594 0 l 1xfc
617.5 621.5 m 1
 296 621.5 l 1
 296 702.5 l 1
 617.5 702.5 l 1
 617.5 621.5 l 1
547.5 160 m 1xfe
 378.5 160 l 1xfd
 378.5 751.001953125 l 1
 547.5 751.001953125 l 1
 547.5 160 l 1xfe
378.5 385.374023438 m 1xfe
 378.5 422.083167881 356.636704141 460.721679688 294.459960938 460.721679688 c 0
 237.498640145 460.721679688 208.419921875 424.351734028 208.419921875 369.874023438 c 0
 208.419921875 315.621639112 237.464270992 279.401367188 294.348632812 279.401367188 c 0
 356.602817062 279.401367188 378.5 309.817045616 378.5 355.374023438 c 1xfe
 441.348632812 367.374023438 l 1
 441.348632812 237.6953125 375.889414674 150.001953125 250 150.001953125 c 0
 108.753267781 150.001953125 43.5712890625 242.951389405 43.5712890625 369.874023438 c 0
 43.5712890625 497.632931407 115.324175479 587.93359375 254.959960938 587.93359375 c 0
 385.642577614 587.93359375 446.348632812 504.49609375 446.348632812 387.374023438 c 1xfd
 378.5 385.374023438 l 1xfe
EndSplineSet
EndChar

StartChar: uni1E9E
Encoding: 7838 7838 220
Width: 743
Flags: W
HStem: -10 140.124<336.712 515.275> 0 21G<52.5 231.5> 576.008 155<272.736 451>
VStem: 52.5 179<0 538.844> 549.5 171<163.795 285.515>
LayerCount: 2
Fore
SplineSet
52.5 476.5 m 2x78
 52.5 655.555303381 135.954545455 731.0078125 322.5 731.0078125 c 2
 672.5 731.0078125 l 1
 672.5 641.0078125 l 1
 536.5 427.5 l 1
 602.282383419 427.5 720.5 389.45410628 720.5 220.25 c 0
 720.5 64.7302631579 626.554878049 -10 472 -10 c 0
 353.487547273 -10 305 26 305 26 c 1
 338.75 151.75 l 1
 338.75 151.75 377.4692077 130.124023438 442.015625 130.124023438 c 0xb8
 507.477411564 130.124023438 549.5 161.753135833 549.5 225.25 c 0
 549.5 290.005154639 509.138297873 319 414 319 c 2
 341 319 l 1
 341 389 l 1
 451 576.0078125 l 1
 347.5 576.0078125 l 2
 259.301652892 576.0078125 231.5 536.250418527 231.5 443.5078125 c 2
 231.5 0 l 1
 52.5 0 l 1
 52.5 476.5 l 2x78
EndSplineSet
EndChar

StartChar: germandbls
Encoding: 223 223 221
Width: 725
Flags: W
HStem: -9.99805 129.979<341.635 522.212> 0 21G<52.5 221.5> 490.684 20G<409.078 473.177> 616.261 144.75<279.868 451.512>
VStem: 52.5 169<0 555.713> 496 169.368<509.5 576.198>
LayerCount: 2
Fore
SplineSet
457.096679688 185.818359375 m 0xbc
 325.66613814 217.652673127 289.454101562 269.579267832 289.454101562 352.5 c 0
 289.454101562 451.037568854 360.655939579 510.68359375 457.5 510.68359375 c 0
 488.853466939 510.68359375 496 509.5 496 509.5 c 1
 493.626014087 578.687004639 454.362596786 616.260742188 366.5 616.260742188 c 0
 269.654671547 616.260742188 221.5 566.073104379 221.5 467.010742188 c 2
 221.5 0 l 1
 52.5 0 l 1x7c
 52.5 480.010742188 l 2
 52.5 651.613415948 130.87635155 761.010742188 361 761.010742188 c 0
 618.924403034 761.010742188 665.368164062 637.805931744 665.368164062 490 c 0
 665.368164062 414.548628488 642.794921875 355.694335938 642.794921875 355.694335938 c 1
 642.794921875 355.694335938 592.348988773 380.404296875 517.993164062 380.404296875 c 0
 476.618752247 380.404296875 458.01171875 369.347991288 458.01171875 351.518554688 c 0
 458.01171875 334.366777039 469.556524193 323.886944621 508.537109375 314.086914062 c 0
 655.928339158 276.904043784 693.189453125 231.53529728 693.189453125 145.90234375 c 0
 693.189453125 49.8227150905 617.871231527 -9.998046875 476.856445312 -9.998046875 c 0
 355.453616971 -9.998046875 278.5 27.5625 278.5 27.5625 c 1
 309.314453125 155.361328125 l 1
 309.314453125 155.361328125 375.993457987 119.981445312 457.743164062 119.981445312 c 0
 503.490632798 119.981445312 525.270507812 130.137475144 525.270507812 149.836914062 c 0
 525.270507812 166.32966749 512.912779654 172.349922677 457.096679688 185.818359375 c 0xbc
EndSplineSet
EndChar

StartChar: uni2113
Encoding: 8467 8467 222
Width: 619
Flags: W
HStem: -10 146.88<300.789 480.791> 620.872 140.13<322.448 407.246>
VStem: 80.5 179.229<140.787 503.334> 415.644 157.496<495.986 612.58>
LayerCount: 2
Fore
SplineSet
80.5 285.099609375 m 0
 80.5 598.440260401 180.101463835 761.001953125 367.650390625 761.001953125 c 0
 514.948245431 761.001953125 573.139648438 664.222431182 573.139648438 573.95703125 c 0
 573.139648438 226.249758229 16.5 166 16.5 166 c 1
 2.5 292.75 l 1
 2.5 292.75 415.643554688 361.431531796 415.643554688 564.251953125 c 0
 415.643554688 599.838399042 398.196289423 620.872070312 364.650390625 620.872070312 c 0
 290.710472254 620.872070312 259.729492188 490.780350453 259.729492188 300.875 c 0
 259.729492188 194.405810638 279.373233033 136.879882812 378.75 136.879882812 c 0
 460.585948526 136.879882812 517.208007812 177.174804688 517.208007812 177.174804688 c 1
 563 42 l 1
 563 42 502.068063888 -10 367.400390625 -10 c 0
 182.076526397 -10 80.5 87.1689302308 80.5 285.099609375 c 0
EndSplineSet
EndChar

StartChar: uni20B8
Encoding: 8376 8376 223
Width: 614
Flags: W
HStem: 0 21G<217.5 396.5> 361.25 149.75<27.5 217.5 396.5 586.5> 361.25 119.75<217.5 396.5> 581.25 149.75<27.5 586.5>
VStem: 217.5 179<0 481>
LayerCount: 2
Fore
SplineSet
586.5 581.25 m 1x98
 27.5 581.25 l 1
 27.5 731 l 1
 586.5 731 l 1
 586.5 581.25 l 1x98
586.5 361.25 m 1xd8
 27.5 361.25 l 1
 27.5 511 l 1
 586.5 511 l 1
 586.5 361.25 l 1xd8
217.5 0 m 1
 217.5 481 l 1
 396.5 481 l 1xb8
 396.5 0 l 1
 217.5 0 l 1
EndSplineSet
EndChar

StartChar: uni20BC
Encoding: 8380 8380 224
Width: 839
Flags: W
HStem: 0 21G<52.5 231.5 330 509 604.277 783.277> 413.544 162.462<308.34 527.437> 711.008 20G<330 509>
VStem: 52.5 179<0 334.616> 330 179<0 731.008> 604.277 179<0 334.616>
LayerCount: 2
Fore
SplineSet
417.888671875 576.005859375 m 0
 690.764472846 576.005859375 783.27734375 445.861106775 783.27734375 246.446289062 c 2
 783.27734375 0 l 1
 604.27734375 0 l 1
 604.27734375 216.446289062 l 2
 604.27734375 334.636249872 578.578921667 413.543945312 417.888671875 413.543945312 c 0
 257.198422083 413.543945312 231.5 334.636249872 231.5 216.446289062 c 2
 231.5 0 l 1
 52.5 0 l 1
 52.5 246.446289062 l 2
 52.5 445.861106775 145.012870904 576.005859375 417.888671875 576.005859375 c 0
330 0 m 1
 330 731.0078125 l 1
 509 731.0078125 l 1
 509 0 l 1
 330 0 l 1
EndSplineSet
EndChar

StartChar: Ohorn
Encoding: 416 416 225
Width: 797
Flags: W
HStem: -9.99805 161.212<299.082 498.695> 577.909 161.212<299.082 498.695>
VStem: 32.5 175.099<252.236 476.887> 580.66 141.76<672.574 813.507> 590.179 175.099<252.236 476.887>
LayerCount: 2
Fore
SplineSet
550.580078125 825.799804688 m 1xf0
 700.259765625 825.799804688 l 1
 700.259765625 825.799804688 722.419921875 795.200195312 722.419921875 738.9921875 c 0
 722.419921875 645 640.099609375 592.639648438 640.099609375 592.639648438 c 1
 535.66015625 641.360351562 l 1
 535.66015625 641.360351562 580.66015625 688 580.66015625 733.729492188 c 0
 580.66015625 790.55078125 550.580078125 825.799804688 550.580078125 825.799804688 c 1xf0
EndSplineSet
Refer: 1 79 N 1 0 0 1 0 0 2
EndChar

StartChar: ohorn
Encoding: 417 417 226
Width: 589
Flags: W
HStem: -9.99805 148.962<233.434 358.637> 361.784 149.149<229.204 359.537>
VStem: 33.5 164.849<174.443 329.518> 391.429 164.849<174.443 329.518> 406.66 135.76<462.574 603.507>
LayerCount: 2
Fore
SplineSet
376.580078125 615.799804688 m 1xe8
 520.259765625 615.799804688 l 1
 520.259765625 615.799804688 542.419921875 585.200195312 542.419921875 528.9921875 c 0
 542.419921875 435 460.099609375 382.639648438 460.099609375 382.639648438 c 1
 361.66015625 431.360351562 l 1
 361.66015625 431.360351562 406.66015625 478 406.66015625 523.729492188 c 0
 406.66015625 580.55078125 376.580078125 615.799804688 376.580078125 615.799804688 c 1xe8
EndSplineSet
Refer: 29 111 N 1 0 0 1 0 0 2
EndChar

StartChar: Uhorn
Encoding: 431 431 227
Width: 777
Flags: W
HStem: -9.99805 161.212<277.123 438.654> 661 164.8<630.5 714.642> 711.008 20G<52.5 231.5 484.277 663.277>
VStem: 52.5 179<198.431 731.008> 484.277 179<198.431 731.008> 604.5 145<737.954 815.378>
LayerCount: 2
Fore
SplineSet
570.580078125 825.799804688 m 1xd4
 720.259765625 825.799804688 l 1
 720.259765625 825.799804688 749.5 800 749.5 752 c 0
 749.5 692 701.5 661 630.5 661 c 1xd4
 531.5 731.0078125 l 1xb4
 565.5 731.0078125 604.5 732.480474404 604.5 770 c 0
 604.5 804 570.580078125 825.799804688 570.580078125 825.799804688 c 1xd4
EndSplineSet
Refer: 6 85 N 1 0 0 1 0 0 2
EndChar

StartChar: uhorn
Encoding: 432 432 228
Width: 660
Flags: W
HStem: -9.92285 139.399<178.551 338.998> 0 21G<374.277 543.277> 481.011 20G<52.5 221.5 374.277 543.277>
VStem: 52.5 169<147.657 501.011> 374.277 169<207.449 501.011> 487.5 145<509.138 596.83>
LayerCount: 2
Fore
SplineSet
445.259765625 615.799804688 m 1x34
 594.939453125 615.799804688 l 1
 594.939453125 615.799804688 632.5 584.757147576 632.5 527.002929688 c 0
 632.5 463.706226391 584.5 431.002929688 513.5 431.002929688 c 1
 414.5 501.010742188 l 1
 448.5 501.010742188 487.5 502.67223835 487.5 545.002929688 c 0
 487.5 588.140961505 445.259765625 615.799804688 445.259765625 615.799804688 c 1x34
EndSplineSet
Refer: 50 117 N 1 0 0 1 0 0 2
EndChar

StartChar: integral
Encoding: 8747 8747 229
Width: 448
Flags: W
HStem: -190.011 147.75<-65.4322 72.2713> 621.261 139.75<322.109 464.432>
LayerCount: 2
Fore
SplineSet
90 31.9892578125 m 2
 140 570.010742188 l 2
 150.955600791 684.979719828 199.206723906 761.010742188 342 761.010742188 c 0
 421.803335337 761.010742188 477 745.010742188 477 745.010742188 c 1
 463 610.260742188 l 1
 463 610.260742188 428.20357666 621.260742188 379.5 621.260742188 c 0
 329.864561339 621.260742188 313.236425907 602.427048244 309 557.010742188 c 2
 259 20.9892578125 l 2
 246.862746767 -105.906604899 199.793103449 -190.010742188 57 -190.010742188 c 0
 -22.8033477039 -190.010742188 -78 -174.010742188 -78 -174.010742188 c 1
 -64 -31.2607421875 l 1
 -64 -31.2607421875 -29.203890287 -42.2607421875 19.5 -42.2607421875 c 0
 69.1357177734 -42.2607421875 85.1341629458 -20.3692396811 90 31.9892578125 c 2
EndSplineSet
EndChar

StartChar: dotlessi
Encoding: 305 305 231
Width: 269
Flags: W
HStem: 0 21G<50 219> 481.011 20G<50 219>
VStem: 50 169<0 501.011>
LayerCount: 2
Fore
SplineSet
50 0 m 1
 50 501.010742188 l 1
 219 501.010742188 l 1
 219 0 l 1
 50 0 l 1
EndSplineSet
EndChar

StartChar: uni0237
Encoding: 567 567 232
Width: 269
Flags: W
HStem: -190 143.75<-90.5858 34.1513> 481.011 20G<50 219>
VStem: 50 169<-29.724 501.011>
LayerCount: 2
Fore
SplineSet
50 36.5 m 2
 50 501.010742188 l 1
 219 501.010742188 l 1
 219 28.5 l 2
 219 -103.014218009 159.060344828 -190 14.5 -190 c 0
 -54.9584692978 -190 -103 -174.5 -103 -174.5 c 1
 -89 -35.5 l 1
 -89 -35.5 -61.1839482234 -46.25 -22.25 -46.25 c 0
 28.6178100585 -46.25 50 -21.3253012048 50 36.5 c 2
EndSplineSet
EndChar

StartChar: uni20B3
Encoding: 8371 8371 233
Width: 824
Flags: W
HStem: 0 21G<65 262.861 561.791 759> 139 86<27.5 796.5> 269 86<57.5 766.5> 711.008 20G<317.887 520.703>
LayerCount: 2
Fore
SplineSet
514 731.0078125 m 1
 759 0 l 1
 567.5 0 l 1
 420.393554688 515.313476562 l 1
 256.5 0 l 1
 65 0 l 1
 325 731.0078125 l 1
 514 731.0078125 l 1
766.5 269 m 1
 57.5 269 l 1
 57.5 355 l 1
 766.5 355 l 1
 766.5 269 l 1
796.5 139 m 1
 27.5 139 l 1
 27.5 225 l 1
 796.5 225 l 1
 796.5 139 l 1
EndSplineSet
EndChar

StartChar: hookabovecomb
Encoding: 777 777 234
Width: 0
Flags: W
HStem: 468 117.549<46.9329 150.171> 640.229 98.7637<17.9267 146.881>
VStem: 45.1816 114.956<468 521.153>
LayerCount: 2
Fore
SplineSet
158.645507812 521.153320312 m 1
 160.137695312 468 l 1
 45.181640625 468 l 1
 46.9150390625 589.96875 l 1
 46.9150390625 589.96875 71.4072257487 585.548828125 102.157226562 585.548828125 c 0
 134.756344101 585.548828125 150.354492188 594.048291153 150.354492188 609.895507812 c 0
 150.354492188 630.932453862 129.399970525 640.228515625 98.6533203125 640.228515625 c 0
 52.7545546485 640.228515625 22.6826171875 620.958007812 22.6826171875 620.958007812 c 1
 0 715.311523438 l 1
 0 715.311523438 42.0068803014 738.9921875 114.153320312 738.9921875 c 0
 211.132145256 738.9921875 279.62890625 702.759765625 279.62890625 614.010742188 c 0
 279.62890625 550.527672552 233.985491447 519.9921875 182.948486328 519.9921875 c 0
 167.073716687 519.9921875 158.645507812 521.153320312 158.645507812 521.153320312 c 1
EndSplineSet
EndChar

StartChar: uni20B1
Encoding: 8369 8369 235
Width: 844
Flags: W
HStem: 0 21G<148.5 327.5> 224 151.102<260 496.29> 339 86<27.5 234 610 816.5> 469 86<27.5 234 610 816.5> 575.899 155.108<327.5 496.584>
VStem: 148.5 85.5<339 425 469 555> 260 67.5<224 375.102> 610 104.277<339 425 469 555>
LayerCount: 2
Fore
SplineSet
816.5 339 m 1xbf
 610 339 l 1
 610 425 l 1
 816.5 425 l 1
 816.5 339 l 1xbf
816.5 469 m 1
 610 469 l 1
 610 555 l 1
 816.5 555 l 1
 816.5 469 l 1
234 339 m 1
 27.5 339 l 1
 27.5 425 l 1
 234 425 l 1
 234 339 l 1
234 469 m 1
 27.5 469 l 1
 27.5 555 l 1
 234 555 l 1
 234 469 l 1
260 224 m 1xdf
 260 375.1015625 l 1
 404.388671875 375.211914062 l 2
 478.264231711 375.340495133 533.428710938 393.07606772 533.428710938 474.561523438 c 0
 533.428710938 556.868385346 478.264234442 575.679572405 404.388671875 575.795898438 c 2
 327.5 575.899414062 l 1
 327.5 0 l 1
 148.5 0 l 1
 148.5 731.0078125 l 1
 427.388671875 731.0078125 l 2
 578.334960938 731.0078125 714.27734375 661.165039062 714.27734375 474.561523438 c 0
 714.27734375 291.297851562 577.451171875 224 427.388671875 224 c 2
 260 224 l 1xdf
EndSplineSet
EndChar

StartChar: uni20A9
Encoding: 8361 8361 236
Width: 1114
Flags: W
HStem: 0 21G<242.834 490.95 632.477 880.33> 259 86<47.5 266.5 847.5 1066.5> 389 86<27.5 266.5 847.5 1086.5> 711.008 20G<112.5 299.578 829.355 1016.5>
LayerCount: 2
Fore
SplineSet
1066.5 259 m 1
 847.5 259 l 1
 847.5 345 l 1
 1066.5 345 l 1
 1066.5 259 l 1
1086.5 389 m 1
 847.5 389 l 1
 847.5 475 l 1
 1086.5 475 l 1
 1086.5 389 l 1
266.5 259 m 1
 47.5 259 l 1
 47.5 345 l 1
 266.5 345 l 1
 266.5 259 l 1
266.5 389 m 1
 27.5 389 l 1
 27.5 475 l 1
 266.5 475 l 1
 266.5 389 l 1
246.5 0 m 1
 112.5 731.0078125 l 1
 296.5 731.0078125 l 1
 378.106445312 200.694335938 l 1
 482.5 671.0078125 l 1
 649 671.0078125 l 1
 749.106445312 200.694335938 l 1
 832.5 731.0078125 l 1
 1016.5 731.0078125 l 1
 876.5 0 l 1
 636 0 l 1
 565.75 398.771484375 l 1
 487 0 l 1
 246.5 0 l 1
EndSplineSet
EndChar

StartChar: franc
Encoding: 8355 8355 237
Width: 584
Flags: W
HStem: 0 21G<92.5 271.5> 106.5 116<30 384> 309.5 157<182.5 494> 576.258 154.75<271.5 554>
VStem: 92.5 179<0 309.5 466.5 576.258> 182.5 89<309.5 466.5>
LayerCount: 2
Fore
SplineSet
384 106.5 m 1xf0
 30 106.5 l 1
 30 222.5 l 1
 384 222.5 l 1
 384 106.5 l 1xf0
494 309.5 m 1
 182.5 309.5 l 1
 182.5 466.5 l 1xf4
 494 466.5 l 1
 494 309.5 l 1
271.5 576.2578125 m 1xf8
 271.5 0 l 1
 92.5 0 l 1
 92.5 731.0078125 l 1
 554 731.0078125 l 1
 554 576.2578125 l 1
 271.5 576.2578125 l 1xf8
EndSplineSet
EndChar

StartChar: peseta
Encoding: 8359 8359 238
Width: 844
Flags: W
HStem: 0 21G<148.5 327.5> 224 151.102<260 496.29> 429 86<30 814> 575.899 155.108<327.5 496.584>
VStem: 148.5 179<0 224 375.102 575.899> 260 67.5<224 375.102> 533.429 180.849<409.255 540.948>
LayerCount: 2
Fore
SplineSet
814 429 m 1xf2
 629 429 l 1
 585 429 l 1
 265 429 l 1
 209 429 l 1
 30 429 l 1
 30 515 l 1
 211 515 l 1
 267 515 l 1
 583 515 l 1
 627 515 l 1
 814 515 l 1
 814 429 l 1xf2
260 224 m 1xf6
 260 375.1015625 l 1xf6
 404.388671875 375.211914062 l 2
 478.264289285 375.264540527 533.428710938 393.07606772 533.428710938 474.561523438 c 0
 533.428710938 556.868385346 478.264265572 575.705557617 404.388671875 575.795898438 c 2
 327.5 575.899414062 l 1
 327.5 0 l 1
 148.5 0 l 1
 148.5 731.0078125 l 1xfa
 427.388671875 731.0078125 l 2
 578.334960938 731.0078125 714.27734375 661.165039062 714.27734375 474.561523438 c 0
 714.27734375 291.297851562 577.451171875 224 427.388671875 224 c 2
 260 224 l 1xf6
EndSplineSet
EndChar

StartChar: uni20BE
Encoding: 8382 8382 239
Width: 781
Flags: W
HStem: 0 154.75<459 744> 53.752 100.998<178.904 408.389> 719.121 20G<300.004 519.445>
VStem: 52.5 184.849<267.752 487.816> 309 86<388 812> 439 86<388 812> 591.355 167.826<410.892 504.251>
LayerCount: 2
Fore
SplineSet
525 812 m 1x3e
 525 388 l 1
 439 388 l 1
 439 812 l 1
 525 812 l 1x3e
395 812 m 1
 395 388 l 1
 309 388 l 1
 309 812 l 1
 395 812 l 1
744 0 m 1xbe
 27.5 0 l 1xbe
 27.5 154.75 l 1x7e
 744 154.75 l 1
 744 0 l 1xbe
408.388671875 53.751953125 m 1x7e
 178.903786212 53.751953125 52.5 188.338817265 52.5 394.561523438 c 0
 52.5 603.05352116 184.120305374 739.12109375 415.888671875 739.12109375 c 0
 623.00172398 739.12109375 761.243986131 604.473940289 759.181640625 410.891601562 c 1
 591.35546875 393.138671875 l 1
 593.437324085 512.946900414 540.846711575 577.909179688 422.888671875 577.909179688 c 0
 292.916876289 577.909179688 237.348632812 500.503527851 237.348632812 384.561523438 c 0
 237.348632812 246.754672295 301.132396284 154.75 459 154.75 c 1xbe
 408.388671875 53.751953125 l 1x7e
EndSplineSet
EndChar

StartChar: uni030F
Encoding: 783 783 251
Width: 0
Flags: W
HStem: 516 225.008
LayerCount: 2
Fore
SplineSet
116 516 m 1
 -5 711.0078125 l 1
 151 741.0078125 l 1
 224 536 l 1
 116 516 l 1
306 516 m 1
 185 711.0078125 l 1
 341 741.0078125 l 1
 414 536 l 1
 306 516 l 1
EndSplineSet
EndChar

StartChar: uni0326
Encoding: 806 806 254
Width: 0
Flags: W
HStem: -269.5 269.949
VStem: -5 170.227<-143.111 -30.5736>
LayerCount: 2
Fore
SplineSet
-5 -85.732421875 m 0
 -5 -33.5225802584 27.8057594352 0.44921875 78.2255859375 0.44921875 c 0
 130.932518785 0.44921875 165.2265625 -37.3389239398 165.2265625 -105.732421875 c 0
 165.2265625 -197.441580649 78.11328125 -269.5 78.11328125 -269.5 c 1
 19.61328125 -224 l 1
 19.61328125 -224 54.1708984375 -197.53125 69.61328125 -171 c 1
 24.0343512908 -166.607543643 -5 -134.002157001 -5 -85.732421875 c 0
EndSplineSet
EndChar

StartChar: uni031B
Encoding: 795 795 258
Width: 0
Flags: W
HStem: 497.848 233.16
VStem: 40 146.76<577.782 718.715>
LayerCount: 2
Fore
SplineSet
9.919921875 731.0078125 m 1
 164.599609375 731.0078125 l 1
 164.599609375 731.0078125 186.759765625 700.408203124 186.759765625 644.200195312 c 0
 186.759765625 550.208007812 104.439453125 497.84765625 104.439453125 497.84765625 c 1
 -5 546.568359375 l 1
 -5 546.568359375 40 593.208007812 40 638.9375 c 0
 40 695.758789062 9.919921875 731.0078125 9.919921875 731.0078125 c 1
EndSplineSet
EndChar

StartChar: dcaron
Encoding: 271 271 406
Width: 763
Flags: W
HStem: -9.99805 141.399<235.845 350.74> 0 21G<385.5 554.5> 368.722 142.212<237.896 361.315> 731 20G<632.843 790.5> 731.002 20G<385.5 554.5>
VStem: 35.5713 167.349<165.515 332.117> 385.5 62.8486<75.1885 217.374> 385.5 70.3486<317.374 434.496> 385.5 169<217.374 751.002>
LayerCount: 2
Fore
SplineSet
638.5 751 m 25x34
 790.5 751 l 25
 695.5 553 l 25
 582.5 553 l 25
 638.5 751 l 25x34
EndSplineSet
Refer: 44 100 N 1 0 0 1 0 0 2
EndChar

StartChar: tcaron
Encoding: 357 357 407
Width: 463
Flags: W
HStem: -10 136.75<267.012 370.277> 364 137.011<11.5 384.5> 731 20G<342.843 500.5>
VStem: 90 169<134.598 650.511>
LayerCount: 2
Fore
SplineSet
348.5 751 m 25
 500.5 751 l 25
 405.5 553 l 25
 292.5 553 l 25
 348.5 751 l 25
EndSplineSet
Refer: 41 116 N 1 0 0 1 0 0 2
EndChar

StartChar: dcroat
Encoding: 273 273 409
Width: 622
Flags: W
HStem: -9.99805 141.399<235.845 350.74> 0 21G<385.5 554.5> 368.722 142.212<237.896 361.315> 546.25 128.5<285.5 624.5> 731.002 20G<385.5 554.5>
VStem: 35.5713 167.349<165.515 332.117> 385.5 62.8486<75.1885 217.374> 385.5 70.3486<317.374 434.496> 385.5 169<217.374 751.002>
LayerCount: 2
Fore
SplineSet
624.5 546.25 m 1x3c
 285.5 546.25 l 1
 285.5 674.75 l 1
 624.5 674.75 l 1
 624.5 546.25 l 1x3c
EndSplineSet
Refer: 44 100 N 1 0 0 1 0 0 2
EndChar

StartChar: Tbar
Encoding: 358 358 410
Width: 614
Flags: W
HStem: 0 21G<217.5 396.5> 235 151<102.5 511.5> 576.25 124.75<217.5 396.5> 576.25 154.75<27.5 217.5 396.5 586.5>
VStem: 217.5 179<0 701>
LayerCount: 2
Fore
SplineSet
511.5 235 m 1xc8
 102.5 235 l 1
 102.5 386 l 1
 511.5 386 l 1
 511.5 235 l 1xc8
EndSplineSet
Refer: 17 84 N 1 0 0 1 0 0 2
EndChar

StartChar: tbar
Encoding: 359 359 411
Width: 412
Flags: W
HStem: -10 136.75<267.012 370.277> 200.25 128.5<39 343> 364 137.011<11.5 384.5>
VStem: 90 169<134.598 650.511>
LayerCount: 2
Fore
SplineSet
343 200.25 m 1
 39 200.25 l 1
 39 328.75 l 1
 343 328.75 l 1
 343 200.25 l 1
EndSplineSet
Refer: 41 116 N 1 0 0 1 0 0 2
EndChar

StartChar: Hbar
Encoding: 294 294 412
Width: 859
Flags: W
HStem: 0 21G<122.5 301.5 557.5 736.5> 280 156<212.5 631.5> 496.011 151<27.5 831.5> 711.008 20G<122.5 301.5 557.5 736.5>
VStem: 122.5 179<0 280 436 731.008> 212.5 89<280 436> 557.5 74<280 436> 557.5 179<0 280 436 731.008>
LayerCount: 2
Fore
SplineSet
831.5 496.010742188 m 1xf0
 27.5 493 l 1
 27.5 644 l 1
 831.5 647.010742188 l 1
 831.5 496.010742188 l 1xf0
EndSplineSet
Refer: 2 72 N 1 0 0 1 70 0 2
EndChar

StartChar: hbar
Encoding: 295 295 413
Width: 637
Flags: W
HStem: 0 21G<94.5 263.5 416.277 585.277> 371.534 139.399<298.78 459.227> 546.25 128.5<30 364> 731.002 20G<94.5 263.5>
VStem: 94.5 169<0 751.002> 416.277 169<0 353.354>
LayerCount: 2
Fore
SplineSet
364 546.25 m 1
 30 546.25 l 1
 30 674.75 l 1
 364 674.75 l 1
 364 546.25 l 1
EndSplineSet
Refer: 36 104 N 1 0 0 1 42 0 2
EndChar

StartChar: uogonek
Encoding: 371 371 423
Width: 595
Flags: W
HStem: -274 97<449.766 558.214> -9.92285 139.399<178.551 338.998> 0 21G<374.277 543.277> 481.011 20G<52.5 221.5 374.277 543.277>
VStem: 52.5 169<147.657 501.011> 323.5 120<-168.655 -65.0491> 374.277 169<207.449 501.011>
LayerCount: 2
Fore
SplineSet
323.5 -149 m 0x9c
 323.5 -49.5224609375 411.5 20 411.5 20 c 1
 526.5 20 l 1
 526.5 20 443.5 -48.3505859375 443.5 -127 c 0
 443.5 -162.947265625 463.613769531 -177 499 -177 c 0
 537.620117188 -177 555 -163 555 -163 c 1
 573 -251 l 1
 573 -251 540.426757812 -274 475 -274 c 0
 381.711425781 -274 323.5 -229.528320312 323.5 -149 c 0x9c
EndSplineSet
Refer: 50 117 N 1 0 0 1 0 0 3
EndChar

StartChar: Lslash
Encoding: 321 321 429
Width: 612
Flags: W
HStem: 0 154.75<275.5 588> 489 20G<324.961 414.997> 711.008 20G<96.5 275.5>
VStem: 96.5 179<154.75 731.008>
LayerCount: 2
Fore
SplineSet
424.5 362 m 1
 30.5 273 l 1
 19.5 420 l 1
 413.5 509 l 1
 424.5 362 l 1
EndSplineSet
Refer: 7 76 N 1 0 0 1 44 0 2
EndChar

StartChar: lslash
Encoding: 322 322 430
Width: 425
Flags: W
HStem: -10.0088 142.75<274.211 374.83> 731.002 20G<94 263>
VStem: 94 169<141.836 751.002>
LayerCount: 2
Fore
SplineSet
354.5 382 m 1
 30.5 293 l 1
 19.5 440 l 1
 343.5 529 l 1
 354.5 382 l 1
EndSplineSet
Refer: 35 108 N 1 0 0 1 44 0 2
EndChar

StartChar: guilsinglleft
Encoding: 8249 8249 530
Width: 340
Flags: W
VStem: 32.5 310
LayerCount: 2
Fore
SplineSet
32.5 281 m 1
 172.5 441 l 1
 342.5 441 l 1
 189.25 254 l 1
 342.5 67 l 1
 172.5 67 l 1
 32.5 227 l 1
 32.5 281 l 1
EndSplineSet
EndChar

StartChar: guilsinglright
Encoding: 8250 8250 531
Width: 340
Flags: W
VStem: -2.5 310
LayerCount: 2
Fore
SplineSet
307.5 227 m 1
 167.5 67 l 1
 -2.5 67 l 1
 150.75 254 l 1
 -2.5 441 l 1
 167.5 441 l 1
 307.5 281 l 1
 307.5 227 l 1
EndSplineSet
EndChar

StartChar: uni20AE
Encoding: 8366 8366 532
Width: 614
Flags: W
HStem: 0 21G<217.5 396.5> 576.25 154.75<27.5 217.5 396.5 586.5> 576.25 124.75<217.5 396.5>
VStem: 217.5 179<0 701>
LayerCount: 2
Fore
SplineSet
586.5 576.25 m 1xd0
 27.5 576.25 l 1
 27.5 731 l 1
 586.5 731 l 1
 586.5 576.25 l 1xd0
217.5 0 m 1
 217.5 701 l 1
 396.5 701 l 1xb0
 396.5 0 l 1
 217.5 0 l 1
494 255 m 1
 120 145 l 1
 120 231 l 1
 494 341 l 1
 494 255 l 1
494 385 m 1
 120 275 l 1
 120 361 l 1
 494 471 l 1
 494 385 l 1
EndSplineSet
EndChar

StartChar: estimated
Encoding: 8494 8494 533
Width: 765
Flags: W
HStem: -9.99805 124.462<308.327 614.779> 294 110<134.5 548> 362 42<548 608> 614.159 124.962<290.257 503.531>
VStem: 132.349 102.5<294 604.562> 132.5 39.8486<298.105 398.706> 548 102.5<362 404 418.734 624> 608.598 41.9023<404.004 486.045>
LayerCount: 2
Fore
SplineSet
548 624 m 1xb2
 650.5 624 l 1
 650.5 362 l 1
 548 362 l 1
 548 624 l 1xb2
132.348632812 604.561523438 m 1x98
 234.848632812 604.561523438 l 1
 234.848632812 132.561523438 l 1
 132.348632812 132.561523438 l 1
 132.348632812 604.561523438 l 1x98
35 364.561523438 m 0
 35 591.206054688 163.541887394 739.12109375 389.888671875 739.12109375 c 0
 633.541980974 739.12109375 740.108398438 587.014334807 740.108398438 395.891601562 c 0
 740.108398438 317.689453126 732 294 732 294 c 1
 134.5 294 l 1xd5
 132.5 404 l 1
 608 404 l 1
 608 404 608.597724613 409.501166291 608.597724613 418.733913793 c 0
 608.597724613 486.044699485 573.156498407 614.159179688 395 614.159179688 c 0
 239.627868823 614.159179688 172.348632812 514.233635772 172.348632812 364.561523438 c 0xb5
 172.348632812 214.589584344 250.678345565 114.463867188 433.888671875 114.463867188 c 0
 583.355085396 114.463867188 662.518554688 151.595703125 662.518554688 151.595703125 c 1
 685.327148438 32.595703125 l 1
 685.327148438 32.595703125 606.079661232 -9.998046875 425.888671875 -9.998046875 c 0
 176.581210181 -9.998046875 35 137.916992188 35 364.561523438 c 0
EndSplineSet
EndChar

StartChar: Omega
Encoding: 8486 8486 534
Width: 837
Flags: W
HStem: 0 149.75<27.5 144.828 327.427 384 453 509.885 692.666 809.5> 577.909 161.212<319.017 518.76>
VStem: 52.5 174.849<254.473 479.549> 453 356.5<0 149.75> 610.429 174.849<256.534 479.549>
LayerCount: 2
Fore
SplineSet
384 0 m 1xe8
 27.5 0 l 1
 27.5 149.75 l 1
 144.828125 149.75 l 1
 144.828125 149.75 52.5 215.618186651 52.5 384.561523438 c 0
 52.5 599.104132899 191.134428492 739.12109375 418.888671875 739.12109375 c 0
 646.642915258 739.12109375 785.27734375 599.104132899 785.27734375 384.561523438 c 0xe8
 785.27734375 215.618186651 692.666015625 149.75 692.666015625 149.75 c 1
 809.5 149.75 l 1
 809.5 0 l 1
 453 0 l 1
 453 149.75 l 1xf0
 546.824403414 171.467217715 610.428710938 235.749037977 610.428710938 364.561523438 c 0
 610.428710938 492.496195791 553.063588967 577.909179688 418.888671875 577.909179688 c 0
 284.713754783 577.909179688 227.348632812 492.496195791 227.348632812 364.561523438 c 0
 227.348632812 235.749037977 290.715252884 171.467217715 384 149.75 c 1
 384 0 l 1xe8
EndSplineSet
EndChar

StartChar: uni2E3A
Encoding: 11834 11834 536
Width: 1080
Flags: W
HStem: 204.25 150.5<27.5 1052.5>
LayerCount: 2
Fore
SplineSet
27.5 204.25 m 1
 27.5 354.75 l 1
 1052.5 354.75 l 1
 1052.5 204.25 l 1
 27.5 204.25 l 1
EndSplineSet
EndChar

StartChar: uni2E3B
Encoding: 11835 11835 537
Width: 1380
Flags: W
HStem: 204.25 150.5<27.5 1352.5>
LayerCount: 2
Fore
SplineSet
27.5 204.25 m 1
 27.5 354.75 l 1
 1352.5 354.75 l 1
 1352.5 204.25 l 1
 27.5 204.25 l 1
EndSplineSet
EndChar

StartChar: pi
Encoding: 960 960 538
Width: 672
Flags: W
HStem: -10 124<463.113 629.704> 0 21G<60.5 239.5> 358 143.011<11.5 105 274 370 539 644.5> 358 123.011<105 274>
VStem: 105 169<105.202 481.011> 370 169<119.739 441.011>
LayerCount: 2
Fore
SplineSet
60.5 0 m 1x5c
 60.5 0 105 151.304635761 105 341 c 2
 105 481.010742188 l 1
 274 481.010742188 l 1
 274 319 l 2
 274 136.714285714 239.5 0 239.5 0 c 1
 60.5 0 l 1x5c
11.5 501.010742188 m 1x2c
 644.5 501.010742188 l 1
 644.5 358 l 1
 11.5 358 l 1
 11.5 501.010742188 l 1x2c
539 162 m 2
 539 128.457841981 552.021918403 114 583 114 c 0
 609.247070312 114 628 125 628 125 c 1
 642 6 l 1
 642 6 594.980273438 -10 527 -10 c 0x8c
 399.225967162 -10 370 58.076171875 370 161 c 2
 370 441.010742188 l 1
 539 461.010742188 l 1
 539 162 l 2
EndSplineSet
EndChar

StartChar: radical
Encoding: 8730 8730 539
Width: 686
Flags: W
HStem: 0 21G<250.719 477.3> 481.011 20G<5 272.38> 711.008 20G<499.471 683.5>
LayerCount: 2
Fore
SplineSet
266.5 501.010742188 m 1
 363.606445312 170.694335938 l 1
 504.5 731.0078125 l 1
 683.5 731.0078125 l 1
 471.5 0 l 1
 257.5 0 l 1
 140.85546875 344.010742188 l 1
 15 334.010742188 l 1
 5 481.510742188 l 1
 266.5 501.010742188 l 1
EndSplineSet
EndChar

StartChar: .notdef
Encoding: 65536 -1 681
Width: 639
Flags: W
HStem: 0 135<227.75 440> 50 85<199 227.75> 596.008 135<199 411.25> 596.008 84.9922<411.25 440>
VStem: 50 149<135 596.008>
LayerCount: 2
Fore
SplineSet
199 596.0078125 m 1x28
 199 135 l 1x68
 440 135 l 1
 440 596.0078125 l 1x98
 199 596.0078125 l 1x28
589 0 m 1xa8
 50 0 l 1
 50 731.0078125 l 1
 589 731.0078125 l 1
 589 0 l 1xa8
91.25 50 m 1x58
 411.25 681 l 1
 547.75 681 l 1
 227.75 50 l 1
 91.25 50 l 1x58
EndSplineSet
EndChar

